M48
; DRILL file {KiCad (5.1.5-0)} date Sunday, March 06, 2022 at 12:17:26 AM
; FORMAT={-:-/ absolute / metric / decimal}
; #@! TF.CreationDate,2022-03-06T00:17:26-05:00
; #@! TF.GenerationSoftware,Kicad,Pcbnew,(5.1.5-0)
; #@! TF.FileFunction,Plated,1,2,PTH
FMAT,2
METRIC
T1C0.400
T2C1.000
T3C4.500
%
G90
G05
T1
X208.4Y-76.5
X209.7Y-64.4
X209.7Y-66.6
X210.0Y-77.6
X210.8Y-78.2
X211.3Y-53.5
X211.6Y-77.3
X212.7Y-75.725
X213.0Y-71.6
X213.0Y-72.6
X213.6Y-55.2
X213.7Y-78.2
X214.35Y-76.575
X214.35Y-79.0
X216.2Y-74.6
X216.2Y-77.4
X216.5Y-72.7
X217.375Y-65.3
X217.6Y-78.5
X217.8Y-89.3
X218.9Y-71.6
X219.175Y-74.5
X219.175Y-76.1
X219.2Y-65.3
X219.2Y-77.7
X221.0Y-74.5
X221.0Y-76.1
X221.0Y-77.7
X221.4Y-80.3
X221.4Y-81.4
X221.4Y-89.3
X221.4Y-90.6
X221.4Y-91.9
X221.4Y-93.0
X221.5Y-82.5
X221.5Y-83.6
X222.3Y-61.5
X222.499Y-66.499
X222.5Y-68.8
X222.6Y-56.4
X222.6Y-58.8
X222.6Y-59.8
X222.6Y-63.59
X222.6Y-64.9
X222.741Y-53.02
X222.9Y-80.3
X222.9Y-81.4
X222.9Y-82.5
X222.9Y-83.6
X222.9Y-89.3
X222.9Y-90.6
X222.9Y-91.9
X222.9Y-93.0
X223.4Y-71.6
X223.4Y-60.9
X224.2Y-56.4
X224.2Y-68.7
X224.8Y-74.5
X224.8Y-76.1
X224.8Y-77.7
X225.4Y-55.22
X225.5Y-53.6
X226.3Y-73.1
X227.5Y-77.7
X227.6Y-76.1
X229.2Y-78.6
X231.2Y-76.0
X232.9Y-64.0
X233.6Y-69.0
X233.6Y-70.0
X233.6Y-71.0
X233.6Y-72.0
X233.6Y-73.0
X233.6Y-74.0
X233.8Y-57.6
X233.8Y-58.6
X233.8Y-59.6
X233.8Y-60.6
X233.8Y-61.6
X233.8Y-62.6
X233.8Y-80.6
X233.8Y-81.6
X233.8Y-82.6
X233.8Y-83.6
X233.8Y-84.6
X233.8Y-85.6
X234.6Y-69.0
X234.6Y-70.0
X234.6Y-71.0
X234.6Y-72.0
X234.6Y-73.0
X234.6Y-74.0
X234.8Y-57.6
X234.8Y-58.6
X234.8Y-59.6
X234.8Y-60.6
X234.8Y-61.6
X234.8Y-62.6
X234.8Y-80.6
X234.8Y-81.6
X234.8Y-82.6
X234.8Y-83.6
X234.8Y-84.6
X234.8Y-85.6
X235.6Y-69.0
X235.6Y-70.0
X235.6Y-71.0
X235.6Y-72.0
X235.6Y-73.0
X235.6Y-74.0
X235.8Y-57.6
X235.8Y-58.6
X235.8Y-59.6
X235.8Y-60.6
X235.8Y-61.6
X235.8Y-62.6
X235.8Y-80.6
X235.8Y-81.6
X235.8Y-82.6
X235.8Y-83.6
X235.8Y-84.6
X235.8Y-85.6
X236.6Y-69.0
X236.6Y-70.0
X236.6Y-71.0
X236.6Y-72.0
X236.6Y-73.0
X236.6Y-74.0
X236.8Y-57.6
X236.8Y-58.6
X236.8Y-59.6
X236.8Y-60.6
X236.8Y-61.6
X236.8Y-62.6
X236.8Y-80.6
X236.8Y-81.6
X236.8Y-82.6
X236.8Y-83.6
X236.8Y-84.6
X236.8Y-85.6
X237.6Y-69.0
X237.6Y-70.0
X237.6Y-71.0
X237.6Y-72.0
X237.6Y-73.0
X237.6Y-74.0
X237.8Y-57.6
X237.8Y-58.6
X237.8Y-59.6
X237.8Y-60.6
X237.8Y-61.6
X237.8Y-62.6
X237.8Y-80.6
X237.8Y-81.6
X237.8Y-82.6
X237.8Y-83.6
X237.8Y-84.6
X237.8Y-85.6
X238.6Y-69.0
X238.6Y-70.0
X238.6Y-71.0
X238.6Y-72.0
X238.6Y-73.0
X238.6Y-74.0
X238.8Y-57.6
X238.8Y-58.6
X238.8Y-59.6
X238.8Y-60.6
X238.8Y-61.6
X238.8Y-62.6
X238.8Y-80.6
X238.8Y-81.6
X238.8Y-82.6
X238.8Y-83.6
X238.8Y-84.6
X238.8Y-85.6
X240.2Y-57.2
X240.2Y-58.2
X240.2Y-59.2
X240.2Y-60.2
X240.4Y-68.8
X240.4Y-69.8
X240.4Y-70.8
X240.4Y-71.8
X240.4Y-80.45
X240.4Y-81.4
X240.4Y-82.4
X240.4Y-83.4
X241.2Y-57.2
X241.2Y-58.2
X241.2Y-59.2
X241.2Y-60.2
X241.4Y-68.8
X241.4Y-69.8
X241.4Y-70.8
X241.4Y-71.8
X241.4Y-80.45
X241.4Y-81.4
X241.4Y-82.4
X241.4Y-83.4
X242.2Y-57.2
X242.2Y-58.2
X242.2Y-59.2
X242.2Y-60.2
X242.4Y-68.8
X242.4Y-69.8
X242.4Y-70.8
X242.4Y-71.8
X242.4Y-80.45
X242.4Y-81.4
X242.4Y-82.4
X242.4Y-83.4
X243.2Y-57.2
X243.2Y-58.2
X243.2Y-59.2
X243.2Y-60.2
X243.4Y-68.8
X243.4Y-69.8
X243.4Y-70.8
X243.4Y-71.8
X243.4Y-80.45
X243.4Y-81.4
X243.4Y-82.4
X243.4Y-83.4
X244.2Y-57.2
X244.2Y-58.2
X244.2Y-59.2
X244.2Y-60.2
X244.4Y-68.8
X244.4Y-69.8
X244.4Y-70.8
X244.4Y-71.8
X244.4Y-80.45
X244.4Y-81.4
X244.4Y-82.4
X244.4Y-83.4
T2
X216.0Y-49.2
X216.0Y-51.74
X206.0Y-72.2
X206.0Y-74.74
X206.0Y-77.28
X206.0Y-79.82
X206.0Y-82.36
X206.0Y-49.55
X206.0Y-52.09
X206.0Y-54.63
X206.0Y-57.17
X206.0Y-59.71
X206.0Y-62.25
T3
X235.8Y-51.8
X243.0Y-51.8
T0
M30
