G04 #@! TF.GenerationSoftware,KiCad,Pcbnew,(5.0.1)-3*
G04 #@! TF.CreationDate,2020-02-13T16:16:06-05:00*
G04 #@! TF.ProjectId,ESC_V1,4553435F56312E6B696361645F706362,rev?*
G04 #@! TF.SameCoordinates,Original*
G04 #@! TF.FileFunction,Copper,L2,Bot,Signal*
G04 #@! TF.FilePolarity,Positive*
%FSLAX46Y46*%
G04 Gerber Fmt 4.6, Leading zero omitted, Abs format (unit mm)*
G04 Created by KiCad (PCBNEW (5.0.1)-3) date 2/13/2020 4:16:06 PM*
%MOMM*%
%LPD*%
G01*
G04 APERTURE LIST*
G04 #@! TA.AperFunction,SMDPad,CuDef*
%ADD10R,2.500000X1.800000*%
G04 #@! TD*
G04 #@! TA.AperFunction,SMDPad,CuDef*
%ADD11R,4.000000X4.000000*%
G04 #@! TD*
G04 #@! TA.AperFunction,ComponentPad*
%ADD12R,1.700000X1.700000*%
G04 #@! TD*
G04 #@! TA.AperFunction,ComponentPad*
%ADD13O,1.700000X1.700000*%
G04 #@! TD*
G04 #@! TA.AperFunction,ViaPad*
%ADD14C,0.800000*%
G04 #@! TD*
G04 #@! TA.AperFunction,Conductor*
%ADD15C,0.250000*%
G04 #@! TD*
G04 #@! TA.AperFunction,Conductor*
%ADD16C,0.254000*%
G04 #@! TD*
G04 APERTURE END LIST*
D10*
G04 #@! TO.P,D1,1*
G04 #@! TO.N,VCC*
X152000000Y-58500000D03*
G04 #@! TO.P,D1,2*
G04 #@! TO.N,MOTOR1*
X148000000Y-58500000D03*
G04 #@! TD*
G04 #@! TO.P,D2,2*
G04 #@! TO.N,GND*
X142000000Y-64000000D03*
G04 #@! TO.P,D2,1*
G04 #@! TO.N,MOTOR1*
X146000000Y-64000000D03*
G04 #@! TD*
G04 #@! TO.P,D3,1*
G04 #@! TO.N,VCC*
X165500000Y-58500000D03*
G04 #@! TO.P,D3,2*
G04 #@! TO.N,MOTOR2*
X161500000Y-58500000D03*
G04 #@! TD*
G04 #@! TO.P,D4,2*
G04 #@! TO.N,GND*
X155500000Y-64000000D03*
G04 #@! TO.P,D4,1*
G04 #@! TO.N,MOTOR2*
X159500000Y-64000000D03*
G04 #@! TD*
G04 #@! TO.P,D5,1*
G04 #@! TO.N,VCC*
X138500000Y-58500000D03*
G04 #@! TO.P,D5,2*
G04 #@! TO.N,MOTOR3*
X134500000Y-58500000D03*
G04 #@! TD*
G04 #@! TO.P,D6,2*
G04 #@! TO.N,GND*
X128000000Y-64000000D03*
G04 #@! TO.P,D6,1*
G04 #@! TO.N,MOTOR3*
X132000000Y-64000000D03*
G04 #@! TD*
D11*
G04 #@! TO.P,J5,1*
G04 #@! TO.N,VCC*
X125000000Y-53000000D03*
G04 #@! TD*
G04 #@! TO.P,J6,1*
G04 #@! TO.N,GND*
X125000000Y-59500000D03*
G04 #@! TD*
D12*
G04 #@! TO.P,J1,1*
G04 #@! TO.N,GND*
X183250000Y-51000000D03*
D13*
G04 #@! TO.P,J1,2*
G04 #@! TO.N,Net-(J1-Pad2)*
X183250000Y-53540000D03*
G04 #@! TO.P,J1,3*
G04 #@! TO.N,Net-(J1-Pad3)*
X183250000Y-56080000D03*
G04 #@! TO.P,J1,4*
G04 #@! TO.N,Net-(J1-Pad4)*
X183250000Y-58620000D03*
G04 #@! TO.P,J1,5*
G04 #@! TO.N,Net-(J1-Pad5)*
X183250000Y-61160000D03*
G04 #@! TO.P,J1,6*
G04 #@! TO.N,Net-(J1-Pad6)*
X183250000Y-63700000D03*
G04 #@! TO.P,J1,7*
G04 #@! TO.N,Net-(J1-Pad7)*
X183250000Y-66240000D03*
G04 #@! TD*
D14*
G04 #@! TO.N,VCC*
X166250000Y-54750000D03*
X165250000Y-54750000D03*
X166250000Y-52750000D03*
X167250000Y-53750000D03*
X167250000Y-54750000D03*
X165250000Y-52750000D03*
X167250000Y-52750000D03*
X166250000Y-53750000D03*
X165250000Y-53750000D03*
X152750000Y-54750000D03*
X151750000Y-54750000D03*
X152750000Y-52750000D03*
X153750000Y-53750000D03*
X153750000Y-54750000D03*
X151750000Y-52750000D03*
X153750000Y-52750000D03*
X152750000Y-53750000D03*
X151750000Y-53750000D03*
X139250000Y-54750000D03*
X138250000Y-54750000D03*
X138250000Y-53750000D03*
X139250000Y-53750000D03*
X139250000Y-52750000D03*
X138250000Y-52750000D03*
X140250000Y-52750000D03*
X140250000Y-53750000D03*
X140250000Y-54750000D03*
G04 #@! TO.N,OUT1*
X162862347Y-65362347D03*
X167000000Y-65500000D03*
G04 #@! TO.N,GND*
X125750000Y-65750000D03*
X124750000Y-65750000D03*
X124750000Y-66750000D03*
X126750000Y-64750000D03*
X124750000Y-64750000D03*
X126750000Y-66750000D03*
X126750000Y-65750000D03*
X126750000Y-67750000D03*
X125750000Y-66750000D03*
X125750000Y-64750000D03*
X125750000Y-67750000D03*
X124750000Y-67750000D03*
X139750000Y-65750000D03*
X138750000Y-65750000D03*
X138750000Y-66750000D03*
X140750000Y-64750000D03*
X138750000Y-64750000D03*
X140750000Y-66750000D03*
X140750000Y-65750000D03*
X140750000Y-67750000D03*
X139750000Y-66750000D03*
X139750000Y-64750000D03*
X139750000Y-67750000D03*
X138750000Y-67750000D03*
X154250000Y-67750000D03*
X153250000Y-67750000D03*
X154250000Y-64750000D03*
X154250000Y-65750000D03*
X154250000Y-66750000D03*
X153250000Y-66750000D03*
X153250000Y-65750000D03*
X153250000Y-64750000D03*
X152250000Y-64750000D03*
X152250000Y-65750000D03*
X152250000Y-66750000D03*
X152250000Y-67750000D03*
X177750000Y-54250000D03*
G04 #@! TO.N,MOTOR1*
X146500000Y-64250000D03*
X145500000Y-64250000D03*
X148500000Y-58500000D03*
X147500000Y-58500000D03*
G04 #@! TO.N,MOTOR2*
X160250000Y-64250000D03*
X159250000Y-64250000D03*
X162000000Y-58500000D03*
X161000000Y-58500000D03*
G04 #@! TO.N,MOTOR3*
X132750000Y-64250000D03*
X131500000Y-64250000D03*
X135000000Y-58500000D03*
X133750000Y-58500000D03*
G04 #@! TO.N,OUT4*
X168250000Y-60750000D03*
X167589793Y-62634902D03*
G04 #@! TO.N,OUT5*
X166500000Y-62750000D03*
X167012653Y-60737347D03*
G04 #@! TD*
D15*
G04 #@! TO.N,OUT1*
X162862347Y-65362347D02*
X166862347Y-65362347D01*
X166862347Y-65362347D02*
X167000000Y-65500000D01*
G04 #@! TO.N,OUT4*
X167589793Y-61410207D02*
X168250000Y-60750000D01*
X167589793Y-62634902D02*
X167589793Y-61410207D01*
G04 #@! TO.N,OUT5*
X166500000Y-62750000D02*
X166500000Y-61250000D01*
X166500000Y-61250000D02*
X167012653Y-60737347D01*
G04 #@! TD*
D16*
G04 #@! TO.N,GND*
G36*
X128627633Y-61533991D02*
X128649956Y-61578231D01*
X128687509Y-61610561D01*
X128750000Y-61627000D01*
X161373000Y-61627000D01*
X161373000Y-62977131D01*
X161348157Y-62852235D01*
X161207809Y-62642191D01*
X160997765Y-62501843D01*
X160750000Y-62452560D01*
X158250000Y-62452560D01*
X158002235Y-62501843D01*
X157792191Y-62642191D01*
X157651843Y-62852235D01*
X157602560Y-63100000D01*
X157602560Y-64900000D01*
X157651843Y-65147765D01*
X157792191Y-65357809D01*
X158002235Y-65498157D01*
X158250000Y-65547440D01*
X160750000Y-65547440D01*
X160997765Y-65498157D01*
X161207809Y-65357809D01*
X161348157Y-65147765D01*
X161373000Y-65022869D01*
X161373000Y-69373000D01*
X122710000Y-69373000D01*
X122710000Y-63100000D01*
X130102560Y-63100000D01*
X130102560Y-64900000D01*
X130151843Y-65147765D01*
X130292191Y-65357809D01*
X130502235Y-65498157D01*
X130750000Y-65547440D01*
X133250000Y-65547440D01*
X133497765Y-65498157D01*
X133707809Y-65357809D01*
X133848157Y-65147765D01*
X133897440Y-64900000D01*
X133897440Y-63100000D01*
X144102560Y-63100000D01*
X144102560Y-64900000D01*
X144151843Y-65147765D01*
X144292191Y-65357809D01*
X144502235Y-65498157D01*
X144750000Y-65547440D01*
X147250000Y-65547440D01*
X147497765Y-65498157D01*
X147707809Y-65357809D01*
X147848157Y-65147765D01*
X147897440Y-64900000D01*
X147897440Y-63100000D01*
X147848157Y-62852235D01*
X147707809Y-62642191D01*
X147497765Y-62501843D01*
X147250000Y-62452560D01*
X144750000Y-62452560D01*
X144502235Y-62501843D01*
X144292191Y-62642191D01*
X144151843Y-62852235D01*
X144102560Y-63100000D01*
X133897440Y-63100000D01*
X133848157Y-62852235D01*
X133707809Y-62642191D01*
X133497765Y-62501843D01*
X133250000Y-62452560D01*
X130750000Y-62452560D01*
X130502235Y-62501843D01*
X130292191Y-62642191D01*
X130151843Y-62852235D01*
X130102560Y-63100000D01*
X122710000Y-63100000D01*
X122710000Y-57127000D01*
X127403469Y-57127000D01*
X128627633Y-61533991D01*
X128627633Y-61533991D01*
G37*
X128627633Y-61533991D02*
X128649956Y-61578231D01*
X128687509Y-61610561D01*
X128750000Y-61627000D01*
X161373000Y-61627000D01*
X161373000Y-62977131D01*
X161348157Y-62852235D01*
X161207809Y-62642191D01*
X160997765Y-62501843D01*
X160750000Y-62452560D01*
X158250000Y-62452560D01*
X158002235Y-62501843D01*
X157792191Y-62642191D01*
X157651843Y-62852235D01*
X157602560Y-63100000D01*
X157602560Y-64900000D01*
X157651843Y-65147765D01*
X157792191Y-65357809D01*
X158002235Y-65498157D01*
X158250000Y-65547440D01*
X160750000Y-65547440D01*
X160997765Y-65498157D01*
X161207809Y-65357809D01*
X161348157Y-65147765D01*
X161373000Y-65022869D01*
X161373000Y-69373000D01*
X122710000Y-69373000D01*
X122710000Y-63100000D01*
X130102560Y-63100000D01*
X130102560Y-64900000D01*
X130151843Y-65147765D01*
X130292191Y-65357809D01*
X130502235Y-65498157D01*
X130750000Y-65547440D01*
X133250000Y-65547440D01*
X133497765Y-65498157D01*
X133707809Y-65357809D01*
X133848157Y-65147765D01*
X133897440Y-64900000D01*
X133897440Y-63100000D01*
X144102560Y-63100000D01*
X144102560Y-64900000D01*
X144151843Y-65147765D01*
X144292191Y-65357809D01*
X144502235Y-65498157D01*
X144750000Y-65547440D01*
X147250000Y-65547440D01*
X147497765Y-65498157D01*
X147707809Y-65357809D01*
X147848157Y-65147765D01*
X147897440Y-64900000D01*
X147897440Y-63100000D01*
X147848157Y-62852235D01*
X147707809Y-62642191D01*
X147497765Y-62501843D01*
X147250000Y-62452560D01*
X144750000Y-62452560D01*
X144502235Y-62501843D01*
X144292191Y-62642191D01*
X144151843Y-62852235D01*
X144102560Y-63100000D01*
X133897440Y-63100000D01*
X133848157Y-62852235D01*
X133707809Y-62642191D01*
X133497765Y-62501843D01*
X133250000Y-62452560D01*
X130750000Y-62452560D01*
X130502235Y-62501843D01*
X130292191Y-62642191D01*
X130151843Y-62852235D01*
X130102560Y-63100000D01*
X122710000Y-63100000D01*
X122710000Y-57127000D01*
X127403469Y-57127000D01*
X128627633Y-61533991D01*
G04 #@! TO.N,VCC*
G36*
X167373000Y-59766332D02*
X167218527Y-59702347D01*
X166806779Y-59702347D01*
X166426373Y-59859916D01*
X166135222Y-60151067D01*
X166043295Y-60373000D01*
X131066123Y-60373000D01*
X129125023Y-57600000D01*
X132602560Y-57600000D01*
X132602560Y-59400000D01*
X132651843Y-59647765D01*
X132792191Y-59857809D01*
X133002235Y-59998157D01*
X133250000Y-60047440D01*
X135750000Y-60047440D01*
X135997765Y-59998157D01*
X136207809Y-59857809D01*
X136348157Y-59647765D01*
X136397440Y-59400000D01*
X136397440Y-57600000D01*
X146102560Y-57600000D01*
X146102560Y-59400000D01*
X146151843Y-59647765D01*
X146292191Y-59857809D01*
X146502235Y-59998157D01*
X146750000Y-60047440D01*
X149250000Y-60047440D01*
X149497765Y-59998157D01*
X149707809Y-59857809D01*
X149848157Y-59647765D01*
X149897440Y-59400000D01*
X149897440Y-57600000D01*
X159602560Y-57600000D01*
X159602560Y-59400000D01*
X159651843Y-59647765D01*
X159792191Y-59857809D01*
X160002235Y-59998157D01*
X160250000Y-60047440D01*
X162750000Y-60047440D01*
X162997765Y-59998157D01*
X163207809Y-59857809D01*
X163348157Y-59647765D01*
X163397440Y-59400000D01*
X163397440Y-57600000D01*
X163348157Y-57352235D01*
X163207809Y-57142191D01*
X162997765Y-57001843D01*
X162750000Y-56952560D01*
X160250000Y-56952560D01*
X160002235Y-57001843D01*
X159792191Y-57142191D01*
X159651843Y-57352235D01*
X159602560Y-57600000D01*
X149897440Y-57600000D01*
X149848157Y-57352235D01*
X149707809Y-57142191D01*
X149497765Y-57001843D01*
X149250000Y-56952560D01*
X146750000Y-56952560D01*
X146502235Y-57001843D01*
X146292191Y-57142191D01*
X146151843Y-57352235D01*
X146102560Y-57600000D01*
X136397440Y-57600000D01*
X136348157Y-57352235D01*
X136207809Y-57142191D01*
X135997765Y-57001843D01*
X135750000Y-56952560D01*
X133250000Y-56952560D01*
X133002235Y-57001843D01*
X132792191Y-57142191D01*
X132651843Y-57352235D01*
X132602560Y-57600000D01*
X129125023Y-57600000D01*
X127604042Y-55427170D01*
X127568252Y-55392899D01*
X127500000Y-55373000D01*
X122710000Y-55373000D01*
X122710000Y-50627000D01*
X167373000Y-50627000D01*
X167373000Y-59766332D01*
X167373000Y-59766332D01*
G37*
X167373000Y-59766332D02*
X167218527Y-59702347D01*
X166806779Y-59702347D01*
X166426373Y-59859916D01*
X166135222Y-60151067D01*
X166043295Y-60373000D01*
X131066123Y-60373000D01*
X129125023Y-57600000D01*
X132602560Y-57600000D01*
X132602560Y-59400000D01*
X132651843Y-59647765D01*
X132792191Y-59857809D01*
X133002235Y-59998157D01*
X133250000Y-60047440D01*
X135750000Y-60047440D01*
X135997765Y-59998157D01*
X136207809Y-59857809D01*
X136348157Y-59647765D01*
X136397440Y-59400000D01*
X136397440Y-57600000D01*
X146102560Y-57600000D01*
X146102560Y-59400000D01*
X146151843Y-59647765D01*
X146292191Y-59857809D01*
X146502235Y-59998157D01*
X146750000Y-60047440D01*
X149250000Y-60047440D01*
X149497765Y-59998157D01*
X149707809Y-59857809D01*
X149848157Y-59647765D01*
X149897440Y-59400000D01*
X149897440Y-57600000D01*
X159602560Y-57600000D01*
X159602560Y-59400000D01*
X159651843Y-59647765D01*
X159792191Y-59857809D01*
X160002235Y-59998157D01*
X160250000Y-60047440D01*
X162750000Y-60047440D01*
X162997765Y-59998157D01*
X163207809Y-59857809D01*
X163348157Y-59647765D01*
X163397440Y-59400000D01*
X163397440Y-57600000D01*
X163348157Y-57352235D01*
X163207809Y-57142191D01*
X162997765Y-57001843D01*
X162750000Y-56952560D01*
X160250000Y-56952560D01*
X160002235Y-57001843D01*
X159792191Y-57142191D01*
X159651843Y-57352235D01*
X159602560Y-57600000D01*
X149897440Y-57600000D01*
X149848157Y-57352235D01*
X149707809Y-57142191D01*
X149497765Y-57001843D01*
X149250000Y-56952560D01*
X146750000Y-56952560D01*
X146502235Y-57001843D01*
X146292191Y-57142191D01*
X146151843Y-57352235D01*
X146102560Y-57600000D01*
X136397440Y-57600000D01*
X136348157Y-57352235D01*
X136207809Y-57142191D01*
X135997765Y-57001843D01*
X135750000Y-56952560D01*
X133250000Y-56952560D01*
X133002235Y-57001843D01*
X132792191Y-57142191D01*
X132651843Y-57352235D01*
X132602560Y-57600000D01*
X129125023Y-57600000D01*
X127604042Y-55427170D01*
X127568252Y-55392899D01*
X127500000Y-55373000D01*
X122710000Y-55373000D01*
X122710000Y-50627000D01*
X167373000Y-50627000D01*
X167373000Y-59766332D01*
G04 #@! TO.N,GND*
G36*
X181861673Y-49790301D02*
X181765000Y-50023690D01*
X181765000Y-50714250D01*
X181923750Y-50873000D01*
X183123000Y-50873000D01*
X183123000Y-50853000D01*
X183377000Y-50853000D01*
X183377000Y-50873000D01*
X183397000Y-50873000D01*
X183397000Y-51127000D01*
X183377000Y-51127000D01*
X183377000Y-51147000D01*
X183123000Y-51147000D01*
X183123000Y-51127000D01*
X181923750Y-51127000D01*
X181765000Y-51285750D01*
X181765000Y-51976310D01*
X181861673Y-52209699D01*
X182040302Y-52388327D01*
X182201033Y-52454904D01*
X182179375Y-52469375D01*
X181851161Y-52960582D01*
X181735908Y-53540000D01*
X181851161Y-54119418D01*
X182179375Y-54610625D01*
X182477761Y-54810000D01*
X182179375Y-55009375D01*
X181851161Y-55500582D01*
X181735908Y-56080000D01*
X181851161Y-56659418D01*
X182179375Y-57150625D01*
X182477761Y-57350000D01*
X182179375Y-57549375D01*
X181851161Y-58040582D01*
X181735908Y-58620000D01*
X181851161Y-59199418D01*
X182179375Y-59690625D01*
X182477761Y-59890000D01*
X182179375Y-60089375D01*
X181851161Y-60580582D01*
X181735908Y-61160000D01*
X181851161Y-61739418D01*
X182179375Y-62230625D01*
X182477761Y-62430000D01*
X182179375Y-62629375D01*
X181851161Y-63120582D01*
X181735908Y-63700000D01*
X181851161Y-64279418D01*
X182179375Y-64770625D01*
X182477761Y-64970000D01*
X182179375Y-65169375D01*
X181851161Y-65660582D01*
X181735908Y-66240000D01*
X181851161Y-66819418D01*
X182179375Y-67310625D01*
X182670582Y-67638839D01*
X183103744Y-67725000D01*
X183396256Y-67725000D01*
X183829418Y-67638839D01*
X184290001Y-67331087D01*
X184290001Y-69373000D01*
X161627000Y-69373000D01*
X161627000Y-65156473D01*
X161827347Y-65156473D01*
X161827347Y-65568221D01*
X161984916Y-65948627D01*
X162276067Y-66239778D01*
X162656473Y-66397347D01*
X163068221Y-66397347D01*
X163448627Y-66239778D01*
X163566058Y-66122347D01*
X166158636Y-66122347D01*
X166413720Y-66377431D01*
X166794126Y-66535000D01*
X167205874Y-66535000D01*
X167586280Y-66377431D01*
X167877431Y-66086280D01*
X168035000Y-65705874D01*
X168035000Y-65294126D01*
X167877431Y-64913720D01*
X167586280Y-64622569D01*
X167205874Y-64465000D01*
X166794126Y-64465000D01*
X166462540Y-64602347D01*
X163566058Y-64602347D01*
X163448627Y-64484916D01*
X163068221Y-64327347D01*
X162656473Y-64327347D01*
X162276067Y-64484916D01*
X161984916Y-64776067D01*
X161827347Y-65156473D01*
X161627000Y-65156473D01*
X161627000Y-62627000D01*
X165465000Y-62627000D01*
X165465000Y-62955874D01*
X165622569Y-63336280D01*
X165913720Y-63627431D01*
X166294126Y-63785000D01*
X166705874Y-63785000D01*
X167086280Y-63627431D01*
X167143425Y-63570286D01*
X167383919Y-63669902D01*
X167795667Y-63669902D01*
X168176073Y-63512333D01*
X168467224Y-63221182D01*
X168624793Y-62840776D01*
X168624793Y-62627000D01*
X168750000Y-62627000D01*
X168798601Y-62617333D01*
X168839803Y-62589803D01*
X168867333Y-62548601D01*
X168877000Y-62500000D01*
X168877000Y-61586711D01*
X169127431Y-61336280D01*
X169285000Y-60955874D01*
X169285000Y-60544126D01*
X169127431Y-60163720D01*
X168877000Y-59913289D01*
X168877000Y-49627000D01*
X182024975Y-49627000D01*
X181861673Y-49790301D01*
X181861673Y-49790301D01*
G37*
X181861673Y-49790301D02*
X181765000Y-50023690D01*
X181765000Y-50714250D01*
X181923750Y-50873000D01*
X183123000Y-50873000D01*
X183123000Y-50853000D01*
X183377000Y-50853000D01*
X183377000Y-50873000D01*
X183397000Y-50873000D01*
X183397000Y-51127000D01*
X183377000Y-51127000D01*
X183377000Y-51147000D01*
X183123000Y-51147000D01*
X183123000Y-51127000D01*
X181923750Y-51127000D01*
X181765000Y-51285750D01*
X181765000Y-51976310D01*
X181861673Y-52209699D01*
X182040302Y-52388327D01*
X182201033Y-52454904D01*
X182179375Y-52469375D01*
X181851161Y-52960582D01*
X181735908Y-53540000D01*
X181851161Y-54119418D01*
X182179375Y-54610625D01*
X182477761Y-54810000D01*
X182179375Y-55009375D01*
X181851161Y-55500582D01*
X181735908Y-56080000D01*
X181851161Y-56659418D01*
X182179375Y-57150625D01*
X182477761Y-57350000D01*
X182179375Y-57549375D01*
X181851161Y-58040582D01*
X181735908Y-58620000D01*
X181851161Y-59199418D01*
X182179375Y-59690625D01*
X182477761Y-59890000D01*
X182179375Y-60089375D01*
X181851161Y-60580582D01*
X181735908Y-61160000D01*
X181851161Y-61739418D01*
X182179375Y-62230625D01*
X182477761Y-62430000D01*
X182179375Y-62629375D01*
X181851161Y-63120582D01*
X181735908Y-63700000D01*
X181851161Y-64279418D01*
X182179375Y-64770625D01*
X182477761Y-64970000D01*
X182179375Y-65169375D01*
X181851161Y-65660582D01*
X181735908Y-66240000D01*
X181851161Y-66819418D01*
X182179375Y-67310625D01*
X182670582Y-67638839D01*
X183103744Y-67725000D01*
X183396256Y-67725000D01*
X183829418Y-67638839D01*
X184290001Y-67331087D01*
X184290001Y-69373000D01*
X161627000Y-69373000D01*
X161627000Y-65156473D01*
X161827347Y-65156473D01*
X161827347Y-65568221D01*
X161984916Y-65948627D01*
X162276067Y-66239778D01*
X162656473Y-66397347D01*
X163068221Y-66397347D01*
X163448627Y-66239778D01*
X163566058Y-66122347D01*
X166158636Y-66122347D01*
X166413720Y-66377431D01*
X166794126Y-66535000D01*
X167205874Y-66535000D01*
X167586280Y-66377431D01*
X167877431Y-66086280D01*
X168035000Y-65705874D01*
X168035000Y-65294126D01*
X167877431Y-64913720D01*
X167586280Y-64622569D01*
X167205874Y-64465000D01*
X166794126Y-64465000D01*
X166462540Y-64602347D01*
X163566058Y-64602347D01*
X163448627Y-64484916D01*
X163068221Y-64327347D01*
X162656473Y-64327347D01*
X162276067Y-64484916D01*
X161984916Y-64776067D01*
X161827347Y-65156473D01*
X161627000Y-65156473D01*
X161627000Y-62627000D01*
X165465000Y-62627000D01*
X165465000Y-62955874D01*
X165622569Y-63336280D01*
X165913720Y-63627431D01*
X166294126Y-63785000D01*
X166705874Y-63785000D01*
X167086280Y-63627431D01*
X167143425Y-63570286D01*
X167383919Y-63669902D01*
X167795667Y-63669902D01*
X168176073Y-63512333D01*
X168467224Y-63221182D01*
X168624793Y-62840776D01*
X168624793Y-62627000D01*
X168750000Y-62627000D01*
X168798601Y-62617333D01*
X168839803Y-62589803D01*
X168867333Y-62548601D01*
X168877000Y-62500000D01*
X168877000Y-61586711D01*
X169127431Y-61336280D01*
X169285000Y-60955874D01*
X169285000Y-60544126D01*
X169127431Y-60163720D01*
X168877000Y-59913289D01*
X168877000Y-49627000D01*
X182024975Y-49627000D01*
X181861673Y-49790301D01*
G04 #@! TD*
M02*
