M48
;DRILL file {KiCad (5.0.1)-3} date 2/13/2020 4:16:15 PM
;FORMAT={-:-/ absolute / inch / decimal}
FMAT,2
INCH,TZ
T1C0.0157
T2C0.0394
%
G90
G05
M72
T1
X4.9114Y-2.5492
X4.9114Y-2.5886
X4.9114Y-2.628
X4.9114Y-2.6673
X4.9508Y-2.5492
X4.9508Y-2.5886
X4.9508Y-2.628
X4.9508Y-2.6673
X4.9902Y-2.5492
X4.9902Y-2.5886
X4.9902Y-2.628
X4.9902Y-2.6673
X5.1772Y-2.5295
X5.2264Y-2.5295
X5.2657Y-2.3031
X5.315Y-2.3031
X5.4429Y-2.0768
X5.4429Y-2.1161
X5.4429Y-2.1555
X5.4626Y-2.5492
X5.4626Y-2.5886
X5.4626Y-2.628
X5.4626Y-2.6673
X5.4823Y-2.0768
X5.4823Y-2.1161
X5.4823Y-2.1555
X5.502Y-2.5492
X5.502Y-2.5886
X5.502Y-2.628
X5.502Y-2.6673
X5.5217Y-2.0768
X5.5217Y-2.1161
X5.5217Y-2.1555
X5.5413Y-2.5492
X5.5413Y-2.5886
X5.5413Y-2.628
X5.5413Y-2.6673
X5.7283Y-2.5295
X5.7677Y-2.5295
X5.8071Y-2.3031
X5.8465Y-2.3031
X5.9744Y-2.0768
X5.9744Y-2.1161
X5.9744Y-2.1555
X5.9941Y-2.5492
X5.9941Y-2.5886
X5.9941Y-2.628
X5.9941Y-2.6673
X6.0138Y-2.0768
X6.0138Y-2.1161
X6.0138Y-2.1555
X6.0335Y-2.5492
X6.0335Y-2.5886
X6.0335Y-2.628
X6.0335Y-2.6673
X6.0531Y-2.0768
X6.0531Y-2.1161
X6.0531Y-2.1555
X6.0728Y-2.5492
X6.0728Y-2.5886
X6.0728Y-2.628
X6.0728Y-2.6673
X6.2697Y-2.5295
X6.3091Y-2.5295
X6.3386Y-2.3031
X6.378Y-2.3031
X6.4119Y-2.5733
X6.5059Y-2.0768
X6.5059Y-2.1161
X6.5059Y-2.1555
X6.5453Y-2.0768
X6.5453Y-2.1161
X6.5453Y-2.1555
X6.5551Y-2.4705
X6.5748Y-2.5787
X6.5753Y-2.3912
X6.5846Y-2.0768
X6.5846Y-2.1161
X6.5846Y-2.1555
X6.598Y-2.4659
X6.624Y-2.3917
X6.998Y-2.1358
T2
X7.2146Y-2.0079
X7.2146Y-2.1079
X7.2146Y-2.2079
X7.2146Y-2.3079
X7.2146Y-2.4079
X7.2146Y-2.5079
X7.2146Y-2.6079
T0
M30
