G04 #@! TF.GenerationSoftware,KiCad,Pcbnew,(5.0.1)-3*
G04 #@! TF.CreationDate,2020-02-13T16:16:06-05:00*
G04 #@! TF.ProjectId,ESC_V1,4553435F56312E6B696361645F706362,rev?*
G04 #@! TF.SameCoordinates,Original*
G04 #@! TF.FileFunction,Paste,Top*
G04 #@! TF.FilePolarity,Positive*
%FSLAX46Y46*%
G04 Gerber Fmt 4.6, Leading zero omitted, Abs format (unit mm)*
G04 Created by KiCad (PCBNEW (5.0.1)-3) date 2/13/2020 4:16:06 PM*
%MOMM*%
%LPD*%
G01*
G04 APERTURE LIST*
%ADD10R,2.200000X1.200000*%
%ADD11R,3.050000X2.750000*%
%ADD12R,2.000000X0.600000*%
G04 APERTURE END LIST*
D10*
G04 #@! TO.C,Q3*
X152300000Y-59280000D03*
X152300000Y-54720000D03*
D11*
X144325000Y-55475000D03*
X147675000Y-58525000D03*
X144325000Y-58525000D03*
X147675000Y-55475000D03*
G04 #@! TD*
G04 #@! TO.C,Q4*
X141500000Y-64500000D03*
X138150000Y-67550000D03*
X141500000Y-67550000D03*
X138150000Y-64500000D03*
D10*
X146125000Y-63745000D03*
X146125000Y-68305000D03*
G04 #@! TD*
G04 #@! TO.C,Q7*
X165800000Y-59280000D03*
X165800000Y-54720000D03*
D11*
X157825000Y-55475000D03*
X161175000Y-58525000D03*
X157825000Y-58525000D03*
X161175000Y-55475000D03*
G04 #@! TD*
G04 #@! TO.C,Q8*
X155175000Y-64500000D03*
X151825000Y-67550000D03*
X155175000Y-67550000D03*
X151825000Y-64500000D03*
D10*
X159800000Y-63745000D03*
X159800000Y-68305000D03*
G04 #@! TD*
D11*
G04 #@! TO.C,Q11*
X134100000Y-55500000D03*
X130750000Y-58550000D03*
X134100000Y-58550000D03*
X130750000Y-55500000D03*
D10*
X138725000Y-54745000D03*
X138725000Y-59305000D03*
G04 #@! TD*
G04 #@! TO.C,Q12*
X132300000Y-68280000D03*
X132300000Y-63720000D03*
D11*
X124325000Y-64475000D03*
X127675000Y-67525000D03*
X124325000Y-67525000D03*
X127675000Y-64475000D03*
G04 #@! TD*
D12*
G04 #@! TO.C,U1*
X179700000Y-64330000D03*
X179700000Y-63060000D03*
X179700000Y-61790000D03*
X179700000Y-60520000D03*
X179700000Y-59250000D03*
X179700000Y-57980000D03*
X179700000Y-56710000D03*
X179700000Y-55440000D03*
X179700000Y-54170000D03*
X170300000Y-54170000D03*
X170300000Y-55440000D03*
X170300000Y-56710000D03*
X170300000Y-57980000D03*
X170300000Y-59250000D03*
X170300000Y-60520000D03*
X170300000Y-61790000D03*
X170300000Y-63060000D03*
X170300000Y-64330000D03*
G04 #@! TD*
M02*
