G04 #@! TF.GenerationSoftware,KiCad,Pcbnew,(5.0.1)-3*
G04 #@! TF.CreationDate,2020-02-13T16:16:06-05:00*
G04 #@! TF.ProjectId,ESC_V1,4553435F56312E6B696361645F706362,rev?*
G04 #@! TF.SameCoordinates,Original*
G04 #@! TF.FileFunction,Copper,L1,Top,Signal*
G04 #@! TF.FilePolarity,Positive*
%FSLAX46Y46*%
G04 Gerber Fmt 4.6, Leading zero omitted, Abs format (unit mm)*
G04 Created by KiCad (PCBNEW (5.0.1)-3) date 2/13/2020 4:16:06 PM*
%MOMM*%
%LPD*%
G01*
G04 APERTURE LIST*
G04 #@! TA.AperFunction,SMDPad,CuDef*
%ADD10R,2.200000X1.200000*%
G04 #@! TD*
G04 #@! TA.AperFunction,SMDPad,CuDef*
%ADD11R,6.400000X5.800000*%
G04 #@! TD*
G04 #@! TA.AperFunction,SMDPad,CuDef*
%ADD12R,2.000000X0.600000*%
G04 #@! TD*
G04 #@! TA.AperFunction,SMDPad,CuDef*
%ADD13R,3.000000X3.000000*%
G04 #@! TD*
G04 #@! TA.AperFunction,ComponentPad*
%ADD14R,1.700000X1.700000*%
G04 #@! TD*
G04 #@! TA.AperFunction,ComponentPad*
%ADD15O,1.700000X1.700000*%
G04 #@! TD*
G04 #@! TA.AperFunction,ViaPad*
%ADD16C,0.800000*%
G04 #@! TD*
G04 #@! TA.AperFunction,Conductor*
%ADD17C,0.250000*%
G04 #@! TD*
G04 #@! TA.AperFunction,Conductor*
%ADD18C,0.254000*%
G04 #@! TD*
G04 APERTURE END LIST*
D10*
G04 #@! TO.P,Q3,1*
G04 #@! TO.N,OUT1*
X152300000Y-59280000D03*
G04 #@! TO.P,Q3,3*
G04 #@! TO.N,VCC*
X152300000Y-54720000D03*
D11*
G04 #@! TO.P,Q3,2*
G04 #@! TO.N,MOTOR1*
X146000000Y-57000000D03*
G04 #@! TD*
G04 #@! TO.P,Q4,2*
G04 #@! TO.N,GND*
X139825000Y-66025000D03*
D10*
G04 #@! TO.P,Q4,3*
G04 #@! TO.N,MOTOR1*
X146125000Y-63745000D03*
G04 #@! TO.P,Q4,1*
G04 #@! TO.N,OUT2*
X146125000Y-68305000D03*
G04 #@! TD*
G04 #@! TO.P,Q7,1*
G04 #@! TO.N,OUT3*
X165800000Y-59280000D03*
G04 #@! TO.P,Q7,3*
G04 #@! TO.N,VCC*
X165800000Y-54720000D03*
D11*
G04 #@! TO.P,Q7,2*
G04 #@! TO.N,MOTOR2*
X159500000Y-57000000D03*
G04 #@! TD*
G04 #@! TO.P,Q8,2*
G04 #@! TO.N,GND*
X153500000Y-66025000D03*
D10*
G04 #@! TO.P,Q8,3*
G04 #@! TO.N,MOTOR2*
X159800000Y-63745000D03*
G04 #@! TO.P,Q8,1*
G04 #@! TO.N,OUT4*
X159800000Y-68305000D03*
G04 #@! TD*
D11*
G04 #@! TO.P,Q11,2*
G04 #@! TO.N,MOTOR3*
X132425000Y-57025000D03*
D10*
G04 #@! TO.P,Q11,3*
G04 #@! TO.N,VCC*
X138725000Y-54745000D03*
G04 #@! TO.P,Q11,1*
G04 #@! TO.N,OUT5*
X138725000Y-59305000D03*
G04 #@! TD*
G04 #@! TO.P,Q12,1*
G04 #@! TO.N,OUT6*
X132300000Y-68280000D03*
G04 #@! TO.P,Q12,3*
G04 #@! TO.N,MOTOR3*
X132300000Y-63720000D03*
D11*
G04 #@! TO.P,Q12,2*
G04 #@! TO.N,GND*
X126000000Y-66000000D03*
G04 #@! TD*
D12*
G04 #@! TO.P,U1,1*
G04 #@! TO.N,Net-(J1-Pad7)*
X179700000Y-64330000D03*
G04 #@! TO.P,U1,2*
G04 #@! TO.N,Net-(J1-Pad6)*
X179700000Y-63060000D03*
G04 #@! TO.P,U1,3*
G04 #@! TO.N,Net-(J1-Pad5)*
X179700000Y-61790000D03*
G04 #@! TO.P,U1,4*
G04 #@! TO.N,Net-(J1-Pad4)*
X179700000Y-60520000D03*
G04 #@! TO.P,U1,5*
G04 #@! TO.N,Net-(J1-Pad3)*
X179700000Y-59250000D03*
G04 #@! TO.P,U1,6*
G04 #@! TO.N,Net-(J1-Pad2)*
X179700000Y-57980000D03*
G04 #@! TO.P,U1,7*
G04 #@! TO.N,Net-(U1-Pad7)*
X179700000Y-56710000D03*
G04 #@! TO.P,U1,8*
G04 #@! TO.N,Net-(U1-Pad8)*
X179700000Y-55440000D03*
G04 #@! TO.P,U1,9*
G04 #@! TO.N,GND*
X179700000Y-54170000D03*
G04 #@! TO.P,U1,10*
G04 #@! TO.N,VCC*
X170300000Y-54170000D03*
G04 #@! TO.P,U1,11*
G04 #@! TO.N,Net-(U1-Pad11)*
X170300000Y-55440000D03*
G04 #@! TO.P,U1,12*
G04 #@! TO.N,Net-(U1-Pad12)*
X170300000Y-56710000D03*
G04 #@! TO.P,U1,13*
G04 #@! TO.N,OUT6*
X170300000Y-57980000D03*
G04 #@! TO.P,U1,14*
G04 #@! TO.N,OUT5*
X170300000Y-59250000D03*
G04 #@! TO.P,U1,15*
G04 #@! TO.N,OUT4*
X170300000Y-60520000D03*
G04 #@! TO.P,U1,16*
G04 #@! TO.N,OUT3*
X170300000Y-61790000D03*
G04 #@! TO.P,U1,17*
G04 #@! TO.N,OUT2*
X170300000Y-63060000D03*
G04 #@! TO.P,U1,18*
G04 #@! TO.N,OUT1*
X170300000Y-64330000D03*
G04 #@! TD*
D13*
G04 #@! TO.P,J2,1*
G04 #@! TO.N,MOTOR1*
X146000000Y-51500000D03*
G04 #@! TD*
G04 #@! TO.P,J3,1*
G04 #@! TO.N,MOTOR2*
X159500000Y-51500000D03*
G04 #@! TD*
G04 #@! TO.P,J4,1*
G04 #@! TO.N,MOTOR3*
X132500000Y-51500000D03*
G04 #@! TD*
D14*
G04 #@! TO.P,J1,1*
G04 #@! TO.N,GND*
X183250000Y-51000000D03*
D15*
G04 #@! TO.P,J1,2*
G04 #@! TO.N,Net-(J1-Pad2)*
X183250000Y-53540000D03*
G04 #@! TO.P,J1,3*
G04 #@! TO.N,Net-(J1-Pad3)*
X183250000Y-56080000D03*
G04 #@! TO.P,J1,4*
G04 #@! TO.N,Net-(J1-Pad4)*
X183250000Y-58620000D03*
G04 #@! TO.P,J1,5*
G04 #@! TO.N,Net-(J1-Pad5)*
X183250000Y-61160000D03*
G04 #@! TO.P,J1,6*
G04 #@! TO.N,Net-(J1-Pad6)*
X183250000Y-63700000D03*
G04 #@! TO.P,J1,7*
G04 #@! TO.N,Net-(J1-Pad7)*
X183250000Y-66240000D03*
G04 #@! TD*
D16*
G04 #@! TO.N,VCC*
X166250000Y-54750000D03*
X165250000Y-54750000D03*
X166250000Y-52750000D03*
X167250000Y-53750000D03*
X167250000Y-54750000D03*
X165250000Y-52750000D03*
X167250000Y-52750000D03*
X166250000Y-53750000D03*
X165250000Y-53750000D03*
X152750000Y-54750000D03*
X151750000Y-54750000D03*
X152750000Y-52750000D03*
X153750000Y-53750000D03*
X153750000Y-54750000D03*
X151750000Y-52750000D03*
X153750000Y-52750000D03*
X152750000Y-53750000D03*
X151750000Y-53750000D03*
X139250000Y-54750000D03*
X138250000Y-54750000D03*
X138250000Y-53750000D03*
X139250000Y-53750000D03*
X139250000Y-52750000D03*
X138250000Y-52750000D03*
X140250000Y-52750000D03*
X140250000Y-53750000D03*
X140250000Y-54750000D03*
G04 #@! TO.N,OUT1*
X162862347Y-65362347D03*
X167000000Y-65500000D03*
G04 #@! TO.N,GND*
X125750000Y-65750000D03*
X124750000Y-65750000D03*
X124750000Y-66750000D03*
X126750000Y-64750000D03*
X124750000Y-64750000D03*
X126750000Y-66750000D03*
X126750000Y-65750000D03*
X126750000Y-67750000D03*
X125750000Y-66750000D03*
X125750000Y-64750000D03*
X125750000Y-67750000D03*
X124750000Y-67750000D03*
X139750000Y-65750000D03*
X138750000Y-65750000D03*
X138750000Y-66750000D03*
X140750000Y-64750000D03*
X138750000Y-64750000D03*
X140750000Y-66750000D03*
X140750000Y-65750000D03*
X140750000Y-67750000D03*
X139750000Y-66750000D03*
X139750000Y-64750000D03*
X139750000Y-67750000D03*
X138750000Y-67750000D03*
X154250000Y-67750000D03*
X153250000Y-67750000D03*
X154250000Y-64750000D03*
X154250000Y-65750000D03*
X154250000Y-66750000D03*
X153250000Y-66750000D03*
X153250000Y-65750000D03*
X153250000Y-64750000D03*
X152250000Y-64750000D03*
X152250000Y-65750000D03*
X152250000Y-66750000D03*
X152250000Y-67750000D03*
X177750000Y-54250000D03*
G04 #@! TO.N,MOTOR1*
X146500000Y-64250000D03*
X145500000Y-64250000D03*
X148500000Y-58500000D03*
X147500000Y-58500000D03*
G04 #@! TO.N,MOTOR2*
X160250000Y-64250000D03*
X159250000Y-64250000D03*
X162000000Y-58500000D03*
X161000000Y-58500000D03*
G04 #@! TO.N,MOTOR3*
X132750000Y-64250000D03*
X131500000Y-64250000D03*
X135000000Y-58500000D03*
X133750000Y-58500000D03*
G04 #@! TO.N,OUT4*
X168250000Y-60750000D03*
X167589793Y-62634902D03*
G04 #@! TO.N,OUT5*
X166500000Y-62750000D03*
X167012653Y-60737347D03*
G04 #@! TD*
D17*
G04 #@! TO.N,VCC*
X166250000Y-54750000D02*
X167500000Y-54750000D01*
X168080000Y-54170000D02*
X170300000Y-54170000D01*
X167500000Y-54750000D02*
X168080000Y-54170000D01*
G04 #@! TO.N,OUT1*
X152300000Y-60130000D02*
X154420000Y-62250000D01*
X152300000Y-59280000D02*
X152300000Y-60130000D01*
X157475011Y-62678599D02*
X157475011Y-63068603D01*
X154420000Y-62250000D02*
X157046412Y-62250000D01*
X157046412Y-62250000D02*
X157475011Y-62678599D01*
X157475011Y-63068603D02*
X157475011Y-65799990D01*
X157475011Y-65799990D02*
X161700010Y-65799990D01*
X161700010Y-65799990D02*
X162424704Y-65799990D01*
X162424704Y-65799990D02*
X162862347Y-65362347D01*
X168170000Y-64330000D02*
X170300000Y-64330000D01*
X167000000Y-65500000D02*
X168170000Y-64330000D01*
G04 #@! TO.N,GND*
X179620000Y-54250000D02*
X179700000Y-54170000D01*
X177750000Y-54250000D02*
X179620000Y-54250000D01*
G04 #@! TO.N,OUT2*
X147475000Y-68305000D02*
X148420000Y-69250000D01*
X146125000Y-68305000D02*
X147475000Y-68305000D01*
X148420000Y-69250000D02*
X162000000Y-69250000D01*
X168190000Y-63060000D02*
X170300000Y-63060000D01*
X162000000Y-69250000D02*
X168190000Y-63060000D01*
G04 #@! TO.N,OUT3*
X170300000Y-61790000D02*
X167040000Y-61790000D01*
X165800000Y-60550000D02*
X165800000Y-59280000D01*
X167040000Y-61790000D02*
X165800000Y-60550000D01*
G04 #@! TO.N,Net-(J1-Pad2)*
X180400000Y-57980000D02*
X179700000Y-57980000D01*
X181025001Y-57354999D02*
X180400000Y-57980000D01*
X181025001Y-54544999D02*
X181025001Y-57354999D01*
X182150000Y-53420000D02*
X181025001Y-54544999D01*
X183250000Y-53420000D02*
X182150000Y-53420000D01*
G04 #@! TO.N,Net-(J1-Pad3)*
X180400000Y-59250000D02*
X179700000Y-59250000D01*
X181025001Y-58624999D02*
X180400000Y-59250000D01*
X181025001Y-57991409D02*
X181025001Y-58624999D01*
X183056410Y-55960000D02*
X181025001Y-57991409D01*
X183250000Y-55960000D02*
X183056410Y-55960000D01*
G04 #@! TO.N,Net-(J1-Pad4)*
X181230000Y-60520000D02*
X179700000Y-60520000D01*
X183250000Y-58500000D02*
X181230000Y-60520000D01*
G04 #@! TO.N,Net-(J1-Pad5)*
X180950000Y-61790000D02*
X179700000Y-61790000D01*
X181297919Y-61790000D02*
X180950000Y-61790000D01*
X182047919Y-61040000D02*
X181297919Y-61790000D01*
X183250000Y-61040000D02*
X182047919Y-61040000D01*
G04 #@! TO.N,Net-(J1-Pad6)*
X180220000Y-63580000D02*
X179700000Y-63060000D01*
X183250000Y-63580000D02*
X180220000Y-63580000D01*
G04 #@! TO.N,OUT4*
X159800000Y-68305000D02*
X161945000Y-68305000D01*
X168250000Y-60750000D02*
X170070000Y-60750000D01*
X170070000Y-60750000D02*
X170300000Y-60520000D01*
X167589793Y-62910207D02*
X167589793Y-62634902D01*
X162195000Y-68305000D02*
X167589793Y-62910207D01*
X161945000Y-68305000D02*
X162195000Y-68305000D01*
G04 #@! TO.N,OUT5*
X140075000Y-59305000D02*
X143500000Y-62730000D01*
X138725000Y-59305000D02*
X140075000Y-59305000D01*
X143500000Y-62730000D02*
X143500000Y-65250000D01*
X147589998Y-65250000D02*
X150089998Y-62750000D01*
X143500000Y-65250000D02*
X147589998Y-65250000D01*
X156910002Y-62750000D02*
X157025001Y-62864999D01*
X150089998Y-62750000D02*
X156910002Y-62750000D01*
X157025001Y-62864999D02*
X157025001Y-63255003D01*
X157025001Y-63255003D02*
X157025001Y-66250000D01*
X157025001Y-66250000D02*
X161750000Y-66250000D01*
X161750000Y-66250000D02*
X163000000Y-66250000D01*
X163000000Y-66250000D02*
X166500000Y-62750000D01*
X168500000Y-59250000D02*
X170300000Y-59250000D01*
X167012653Y-60737347D02*
X168500000Y-59250000D01*
G04 #@! TO.N,OUT6*
X171000000Y-57980000D02*
X170300000Y-57980000D01*
X171625001Y-58605001D02*
X171000000Y-57980000D01*
X132300000Y-68280000D02*
X133650000Y-68280000D01*
X171625001Y-64890001D02*
X171625001Y-58605001D01*
X166814992Y-69700010D02*
X171625001Y-64890001D01*
X135070010Y-69700010D02*
X166814992Y-69700010D01*
X133650000Y-68280000D02*
X135070010Y-69700010D01*
G04 #@! TO.N,Net-(J1-Pad7)*
X179700000Y-64880000D02*
X179700000Y-64330000D01*
X180940000Y-66120000D02*
X179700000Y-64880000D01*
X183250000Y-66120000D02*
X180940000Y-66120000D01*
G04 #@! TD*
D18*
G04 #@! TO.N,MOTOR3*
G36*
X135623000Y-53519382D02*
X135623000Y-60466733D01*
X133425725Y-64373000D01*
X131078490Y-64373000D01*
X129127000Y-60470020D01*
X129127000Y-53523030D01*
X130588011Y-49627000D01*
X134406631Y-49627000D01*
X135623000Y-53519382D01*
X135623000Y-53519382D01*
G37*
X135623000Y-53519382D02*
X135623000Y-60466733D01*
X133425725Y-64373000D01*
X131078490Y-64373000D01*
X129127000Y-60470020D01*
X129127000Y-53523030D01*
X130588011Y-49627000D01*
X134406631Y-49627000D01*
X135623000Y-53519382D01*
G04 #@! TO.N,MOTOR1*
G36*
X149373000Y-53523030D02*
X149373000Y-59973049D01*
X147437681Y-64327516D01*
X147392197Y-64373000D01*
X144824275Y-64373000D01*
X144260000Y-63369844D01*
X144260000Y-62804846D01*
X144274888Y-62729999D01*
X144260000Y-62655152D01*
X144260000Y-62655148D01*
X144215904Y-62433463D01*
X144174102Y-62370902D01*
X144090329Y-62245526D01*
X144090327Y-62245524D01*
X144047929Y-62182071D01*
X143984476Y-62139673D01*
X143032597Y-61187795D01*
X142627000Y-60466733D01*
X142627000Y-53523030D01*
X144088011Y-49627000D01*
X147911989Y-49627000D01*
X149373000Y-53523030D01*
X149373000Y-53523030D01*
G37*
X149373000Y-53523030D02*
X149373000Y-59973049D01*
X147437681Y-64327516D01*
X147392197Y-64373000D01*
X144824275Y-64373000D01*
X144260000Y-63369844D01*
X144260000Y-62804846D01*
X144274888Y-62729999D01*
X144260000Y-62655152D01*
X144260000Y-62655148D01*
X144215904Y-62433463D01*
X144174102Y-62370902D01*
X144090329Y-62245526D01*
X144090327Y-62245524D01*
X144047929Y-62182071D01*
X143984476Y-62139673D01*
X143032597Y-61187795D01*
X142627000Y-60466733D01*
X142627000Y-53523030D01*
X144088011Y-49627000D01*
X147911989Y-49627000D01*
X149373000Y-53523030D01*
G04 #@! TO.N,MOTOR2*
G36*
X162873000Y-53523030D02*
X162873000Y-60473434D01*
X161166940Y-64373000D01*
X158570390Y-64373000D01*
X158235011Y-63836394D01*
X158235011Y-62753447D01*
X158249899Y-62678599D01*
X158235011Y-62603751D01*
X158235011Y-62603747D01*
X158190915Y-62382062D01*
X158022940Y-62130670D01*
X157959481Y-62088268D01*
X157636743Y-61765530D01*
X157594341Y-61702071D01*
X157342949Y-61534096D01*
X157121264Y-61490000D01*
X157121259Y-61490000D01*
X157046412Y-61475112D01*
X156971565Y-61490000D01*
X156768515Y-61490000D01*
X156127000Y-60463576D01*
X156127000Y-53523030D01*
X157588011Y-49627000D01*
X161411989Y-49627000D01*
X162873000Y-53523030D01*
X162873000Y-53523030D01*
G37*
X162873000Y-53523030D02*
X162873000Y-60473434D01*
X161166940Y-64373000D01*
X158570390Y-64373000D01*
X158235011Y-63836394D01*
X158235011Y-62753447D01*
X158249899Y-62678599D01*
X158235011Y-62603751D01*
X158235011Y-62603747D01*
X158190915Y-62382062D01*
X158022940Y-62130670D01*
X157959481Y-62088268D01*
X157636743Y-61765530D01*
X157594341Y-61702071D01*
X157342949Y-61534096D01*
X157121264Y-61490000D01*
X157121259Y-61490000D01*
X157046412Y-61475112D01*
X156971565Y-61490000D01*
X156768515Y-61490000D01*
X156127000Y-60463576D01*
X156127000Y-53523030D01*
X157588011Y-49627000D01*
X161411989Y-49627000D01*
X162873000Y-53523030D01*
G04 #@! TO.N,VCC*
G36*
X140623000Y-55373000D02*
X137627000Y-55373000D01*
X137627000Y-52127000D01*
X140623000Y-52127000D01*
X140623000Y-55373000D01*
X140623000Y-55373000D01*
G37*
X140623000Y-55373000D02*
X137627000Y-55373000D01*
X137627000Y-52127000D01*
X140623000Y-52127000D01*
X140623000Y-55373000D01*
G36*
X154123000Y-55373000D02*
X151127000Y-55373000D01*
X151127000Y-52127000D01*
X154123000Y-52127000D01*
X154123000Y-55373000D01*
X154123000Y-55373000D01*
G37*
X154123000Y-55373000D02*
X151127000Y-55373000D01*
X151127000Y-52127000D01*
X154123000Y-52127000D01*
X154123000Y-55373000D01*
G36*
X167623000Y-55373000D02*
X164627000Y-55373000D01*
X164627000Y-52127000D01*
X167623000Y-52127000D01*
X167623000Y-55373000D01*
X167623000Y-55373000D01*
G37*
X167623000Y-55373000D02*
X164627000Y-55373000D01*
X164627000Y-52127000D01*
X167623000Y-52127000D01*
X167623000Y-55373000D01*
G04 #@! TD*
M02*
