G04 #@! TF.GenerationSoftware,KiCad,Pcbnew,(5.0.1)-3*
G04 #@! TF.CreationDate,2020-02-13T16:16:06-05:00*
G04 #@! TF.ProjectId,ESC_V1,4553435F56312E6B696361645F706362,rev?*
G04 #@! TF.SameCoordinates,Original*
G04 #@! TF.FileFunction,Soldermask,Top*
G04 #@! TF.FilePolarity,Negative*
%FSLAX46Y46*%
G04 Gerber Fmt 4.6, Leading zero omitted, Abs format (unit mm)*
G04 Created by KiCad (PCBNEW (5.0.1)-3) date 2/13/2020 4:16:06 PM*
%MOMM*%
%LPD*%
G01*
G04 APERTURE LIST*
%ADD10C,0.100000*%
G04 APERTURE END LIST*
D10*
G36*
X156751000Y-68976000D02*
X150249000Y-68976000D01*
X150249000Y-63074000D01*
X156751000Y-63074000D01*
X156751000Y-68976000D01*
X156751000Y-68976000D01*
G37*
G36*
X143076000Y-68976000D02*
X136574000Y-68976000D01*
X136574000Y-63074000D01*
X143076000Y-63074000D01*
X143076000Y-68976000D01*
X143076000Y-68976000D01*
G37*
G36*
X147276000Y-68956000D02*
X144974000Y-68956000D01*
X144974000Y-67654000D01*
X147276000Y-67654000D01*
X147276000Y-68956000D01*
X147276000Y-68956000D01*
G37*
G36*
X160951000Y-68956000D02*
X158649000Y-68956000D01*
X158649000Y-67654000D01*
X160951000Y-67654000D01*
X160951000Y-68956000D01*
X160951000Y-68956000D01*
G37*
G36*
X129251000Y-68951000D02*
X122749000Y-68951000D01*
X122749000Y-63049000D01*
X129251000Y-63049000D01*
X129251000Y-68951000D01*
X129251000Y-68951000D01*
G37*
G36*
X133451000Y-68931000D02*
X131149000Y-68931000D01*
X131149000Y-67629000D01*
X133451000Y-67629000D01*
X133451000Y-68931000D01*
X133451000Y-68931000D01*
G37*
G36*
X183360443Y-65345519D02*
X183426627Y-65352037D01*
X183539853Y-65386384D01*
X183596467Y-65403557D01*
X183735087Y-65477652D01*
X183752991Y-65487222D01*
X183788729Y-65516552D01*
X183890186Y-65599814D01*
X183973448Y-65701271D01*
X184002778Y-65737009D01*
X184002779Y-65737011D01*
X184086443Y-65893533D01*
X184086443Y-65893534D01*
X184137963Y-66063373D01*
X184155359Y-66240000D01*
X184137963Y-66416627D01*
X184103616Y-66529853D01*
X184086443Y-66586467D01*
X184012348Y-66725087D01*
X184002778Y-66742991D01*
X183973448Y-66778729D01*
X183890186Y-66880186D01*
X183788729Y-66963448D01*
X183752991Y-66992778D01*
X183752989Y-66992779D01*
X183596467Y-67076443D01*
X183539853Y-67093616D01*
X183426627Y-67127963D01*
X183360443Y-67134481D01*
X183294260Y-67141000D01*
X183205740Y-67141000D01*
X183139557Y-67134481D01*
X183073373Y-67127963D01*
X182960147Y-67093616D01*
X182903533Y-67076443D01*
X182747011Y-66992779D01*
X182747009Y-66992778D01*
X182711271Y-66963448D01*
X182609814Y-66880186D01*
X182526552Y-66778729D01*
X182497222Y-66742991D01*
X182487652Y-66725087D01*
X182413557Y-66586467D01*
X182396384Y-66529853D01*
X182362037Y-66416627D01*
X182344641Y-66240000D01*
X182362037Y-66063373D01*
X182413557Y-65893534D01*
X182413557Y-65893533D01*
X182497221Y-65737011D01*
X182497222Y-65737009D01*
X182526552Y-65701271D01*
X182609814Y-65599814D01*
X182711271Y-65516552D01*
X182747009Y-65487222D01*
X182764913Y-65477652D01*
X182903533Y-65403557D01*
X182960147Y-65386384D01*
X183073373Y-65352037D01*
X183139557Y-65345519D01*
X183205740Y-65339000D01*
X183294260Y-65339000D01*
X183360443Y-65345519D01*
X183360443Y-65345519D01*
G37*
G36*
X171351000Y-64681000D02*
X169249000Y-64681000D01*
X169249000Y-63979000D01*
X171351000Y-63979000D01*
X171351000Y-64681000D01*
X171351000Y-64681000D01*
G37*
G36*
X180751000Y-64681000D02*
X178649000Y-64681000D01*
X178649000Y-63979000D01*
X180751000Y-63979000D01*
X180751000Y-64681000D01*
X180751000Y-64681000D01*
G37*
G36*
X183360442Y-62805518D02*
X183426627Y-62812037D01*
X183539853Y-62846384D01*
X183596467Y-62863557D01*
X183735087Y-62937652D01*
X183752991Y-62947222D01*
X183788729Y-62976552D01*
X183890186Y-63059814D01*
X183973448Y-63161271D01*
X184002778Y-63197009D01*
X184002779Y-63197011D01*
X184086443Y-63353533D01*
X184086443Y-63353534D01*
X184137963Y-63523373D01*
X184155359Y-63700000D01*
X184137963Y-63876627D01*
X184103616Y-63989853D01*
X184086443Y-64046467D01*
X184012348Y-64185087D01*
X184002778Y-64202991D01*
X183973448Y-64238729D01*
X183890186Y-64340186D01*
X183822175Y-64396000D01*
X183752991Y-64452778D01*
X183752989Y-64452779D01*
X183596467Y-64536443D01*
X183539853Y-64553616D01*
X183426627Y-64587963D01*
X183360442Y-64594482D01*
X183294260Y-64601000D01*
X183205740Y-64601000D01*
X183139558Y-64594482D01*
X183073373Y-64587963D01*
X182960147Y-64553616D01*
X182903533Y-64536443D01*
X182747011Y-64452779D01*
X182747009Y-64452778D01*
X182677825Y-64396000D01*
X182609814Y-64340186D01*
X182526552Y-64238729D01*
X182497222Y-64202991D01*
X182487652Y-64185087D01*
X182413557Y-64046467D01*
X182396384Y-63989853D01*
X182362037Y-63876627D01*
X182344641Y-63700000D01*
X182362037Y-63523373D01*
X182413557Y-63353534D01*
X182413557Y-63353533D01*
X182497221Y-63197011D01*
X182497222Y-63197009D01*
X182526552Y-63161271D01*
X182609814Y-63059814D01*
X182711271Y-62976552D01*
X182747009Y-62947222D01*
X182764913Y-62937652D01*
X182903533Y-62863557D01*
X182960147Y-62846384D01*
X183073373Y-62812037D01*
X183139558Y-62805518D01*
X183205740Y-62799000D01*
X183294260Y-62799000D01*
X183360442Y-62805518D01*
X183360442Y-62805518D01*
G37*
G36*
X160951000Y-64396000D02*
X158649000Y-64396000D01*
X158649000Y-63094000D01*
X160951000Y-63094000D01*
X160951000Y-64396000D01*
X160951000Y-64396000D01*
G37*
G36*
X147276000Y-64396000D02*
X144974000Y-64396000D01*
X144974000Y-63094000D01*
X147276000Y-63094000D01*
X147276000Y-64396000D01*
X147276000Y-64396000D01*
G37*
G36*
X133451000Y-64371000D02*
X131149000Y-64371000D01*
X131149000Y-63069000D01*
X133451000Y-63069000D01*
X133451000Y-64371000D01*
X133451000Y-64371000D01*
G37*
G36*
X171351000Y-63411000D02*
X169249000Y-63411000D01*
X169249000Y-62709000D01*
X171351000Y-62709000D01*
X171351000Y-63411000D01*
X171351000Y-63411000D01*
G37*
G36*
X180751000Y-63411000D02*
X178649000Y-63411000D01*
X178649000Y-62709000D01*
X180751000Y-62709000D01*
X180751000Y-63411000D01*
X180751000Y-63411000D01*
G37*
G36*
X180751000Y-62141000D02*
X178649000Y-62141000D01*
X178649000Y-61439000D01*
X180751000Y-61439000D01*
X180751000Y-62141000D01*
X180751000Y-62141000D01*
G37*
G36*
X171351000Y-62141000D02*
X169249000Y-62141000D01*
X169249000Y-61439000D01*
X171351000Y-61439000D01*
X171351000Y-62141000D01*
X171351000Y-62141000D01*
G37*
G36*
X183360443Y-60265519D02*
X183426627Y-60272037D01*
X183539853Y-60306384D01*
X183596467Y-60323557D01*
X183735087Y-60397652D01*
X183752991Y-60407222D01*
X183788729Y-60436552D01*
X183890186Y-60519814D01*
X183973448Y-60621271D01*
X184002778Y-60657009D01*
X184002779Y-60657011D01*
X184086443Y-60813533D01*
X184086443Y-60813534D01*
X184137963Y-60983373D01*
X184155359Y-61160000D01*
X184137963Y-61336627D01*
X184103616Y-61449853D01*
X184086443Y-61506467D01*
X184012348Y-61645087D01*
X184002778Y-61662991D01*
X183973448Y-61698729D01*
X183890186Y-61800186D01*
X183788729Y-61883448D01*
X183752991Y-61912778D01*
X183752989Y-61912779D01*
X183596467Y-61996443D01*
X183539853Y-62013616D01*
X183426627Y-62047963D01*
X183360442Y-62054482D01*
X183294260Y-62061000D01*
X183205740Y-62061000D01*
X183139558Y-62054482D01*
X183073373Y-62047963D01*
X182960147Y-62013616D01*
X182903533Y-61996443D01*
X182747011Y-61912779D01*
X182747009Y-61912778D01*
X182711271Y-61883448D01*
X182609814Y-61800186D01*
X182526552Y-61698729D01*
X182497222Y-61662991D01*
X182487652Y-61645087D01*
X182413557Y-61506467D01*
X182396384Y-61449853D01*
X182362037Y-61336627D01*
X182344641Y-61160000D01*
X182362037Y-60983373D01*
X182413557Y-60813534D01*
X182413557Y-60813533D01*
X182497221Y-60657011D01*
X182497222Y-60657009D01*
X182526552Y-60621271D01*
X182609814Y-60519814D01*
X182711271Y-60436552D01*
X182747009Y-60407222D01*
X182764913Y-60397652D01*
X182903533Y-60323557D01*
X182960147Y-60306384D01*
X183073373Y-60272037D01*
X183139557Y-60265519D01*
X183205740Y-60259000D01*
X183294260Y-60259000D01*
X183360443Y-60265519D01*
X183360443Y-60265519D01*
G37*
G36*
X171351000Y-60871000D02*
X169249000Y-60871000D01*
X169249000Y-60169000D01*
X171351000Y-60169000D01*
X171351000Y-60871000D01*
X171351000Y-60871000D01*
G37*
G36*
X180751000Y-60871000D02*
X178649000Y-60871000D01*
X178649000Y-60169000D01*
X180751000Y-60169000D01*
X180751000Y-60871000D01*
X180751000Y-60871000D01*
G37*
G36*
X135676000Y-59976000D02*
X129174000Y-59976000D01*
X129174000Y-54074000D01*
X135676000Y-54074000D01*
X135676000Y-59976000D01*
X135676000Y-59976000D01*
G37*
G36*
X139876000Y-59956000D02*
X137574000Y-59956000D01*
X137574000Y-58654000D01*
X139876000Y-58654000D01*
X139876000Y-59956000D01*
X139876000Y-59956000D01*
G37*
G36*
X149251000Y-59951000D02*
X142749000Y-59951000D01*
X142749000Y-54049000D01*
X149251000Y-54049000D01*
X149251000Y-59951000D01*
X149251000Y-59951000D01*
G37*
G36*
X162751000Y-59951000D02*
X156249000Y-59951000D01*
X156249000Y-54049000D01*
X162751000Y-54049000D01*
X162751000Y-59951000D01*
X162751000Y-59951000D01*
G37*
G36*
X166951000Y-59931000D02*
X164649000Y-59931000D01*
X164649000Y-58629000D01*
X166951000Y-58629000D01*
X166951000Y-59931000D01*
X166951000Y-59931000D01*
G37*
G36*
X153451000Y-59931000D02*
X151149000Y-59931000D01*
X151149000Y-58629000D01*
X153451000Y-58629000D01*
X153451000Y-59931000D01*
X153451000Y-59931000D01*
G37*
G36*
X180751000Y-59601000D02*
X178649000Y-59601000D01*
X178649000Y-58899000D01*
X180751000Y-58899000D01*
X180751000Y-59601000D01*
X180751000Y-59601000D01*
G37*
G36*
X171351000Y-59601000D02*
X169249000Y-59601000D01*
X169249000Y-58899000D01*
X171351000Y-58899000D01*
X171351000Y-59601000D01*
X171351000Y-59601000D01*
G37*
G36*
X183360442Y-57725518D02*
X183426627Y-57732037D01*
X183539853Y-57766384D01*
X183596467Y-57783557D01*
X183735087Y-57857652D01*
X183752991Y-57867222D01*
X183788729Y-57896552D01*
X183890186Y-57979814D01*
X183973448Y-58081271D01*
X184002778Y-58117009D01*
X184002779Y-58117011D01*
X184086443Y-58273533D01*
X184086443Y-58273534D01*
X184137963Y-58443373D01*
X184155359Y-58620000D01*
X184137963Y-58796627D01*
X184103616Y-58909853D01*
X184086443Y-58966467D01*
X184012348Y-59105087D01*
X184002778Y-59122991D01*
X183973448Y-59158729D01*
X183890186Y-59260186D01*
X183788729Y-59343448D01*
X183752991Y-59372778D01*
X183752989Y-59372779D01*
X183596467Y-59456443D01*
X183539853Y-59473616D01*
X183426627Y-59507963D01*
X183360443Y-59514481D01*
X183294260Y-59521000D01*
X183205740Y-59521000D01*
X183139557Y-59514481D01*
X183073373Y-59507963D01*
X182960147Y-59473616D01*
X182903533Y-59456443D01*
X182747011Y-59372779D01*
X182747009Y-59372778D01*
X182711271Y-59343448D01*
X182609814Y-59260186D01*
X182526552Y-59158729D01*
X182497222Y-59122991D01*
X182487652Y-59105087D01*
X182413557Y-58966467D01*
X182396384Y-58909853D01*
X182362037Y-58796627D01*
X182344641Y-58620000D01*
X182362037Y-58443373D01*
X182413557Y-58273534D01*
X182413557Y-58273533D01*
X182497221Y-58117011D01*
X182497222Y-58117009D01*
X182526552Y-58081271D01*
X182609814Y-57979814D01*
X182711271Y-57896552D01*
X182747009Y-57867222D01*
X182764913Y-57857652D01*
X182903533Y-57783557D01*
X182960147Y-57766384D01*
X183073373Y-57732037D01*
X183139558Y-57725518D01*
X183205740Y-57719000D01*
X183294260Y-57719000D01*
X183360442Y-57725518D01*
X183360442Y-57725518D01*
G37*
G36*
X171351000Y-58331000D02*
X169249000Y-58331000D01*
X169249000Y-57629000D01*
X171351000Y-57629000D01*
X171351000Y-58331000D01*
X171351000Y-58331000D01*
G37*
G36*
X180751000Y-58331000D02*
X178649000Y-58331000D01*
X178649000Y-57629000D01*
X180751000Y-57629000D01*
X180751000Y-58331000D01*
X180751000Y-58331000D01*
G37*
G36*
X180751000Y-57061000D02*
X178649000Y-57061000D01*
X178649000Y-56359000D01*
X180751000Y-56359000D01*
X180751000Y-57061000D01*
X180751000Y-57061000D01*
G37*
G36*
X171351000Y-57061000D02*
X169249000Y-57061000D01*
X169249000Y-56359000D01*
X171351000Y-56359000D01*
X171351000Y-57061000D01*
X171351000Y-57061000D01*
G37*
G36*
X183360443Y-55185519D02*
X183426627Y-55192037D01*
X183539853Y-55226384D01*
X183596467Y-55243557D01*
X183735087Y-55317652D01*
X183752991Y-55327222D01*
X183788729Y-55356552D01*
X183890186Y-55439814D01*
X183973448Y-55541271D01*
X184002778Y-55577009D01*
X184002779Y-55577011D01*
X184086443Y-55733533D01*
X184086443Y-55733534D01*
X184137963Y-55903373D01*
X184155359Y-56080000D01*
X184137963Y-56256627D01*
X184103616Y-56369853D01*
X184086443Y-56426467D01*
X184012348Y-56565087D01*
X184002778Y-56582991D01*
X183973448Y-56618729D01*
X183890186Y-56720186D01*
X183788729Y-56803448D01*
X183752991Y-56832778D01*
X183752989Y-56832779D01*
X183596467Y-56916443D01*
X183539853Y-56933616D01*
X183426627Y-56967963D01*
X183360443Y-56974481D01*
X183294260Y-56981000D01*
X183205740Y-56981000D01*
X183139557Y-56974481D01*
X183073373Y-56967963D01*
X182960147Y-56933616D01*
X182903533Y-56916443D01*
X182747011Y-56832779D01*
X182747009Y-56832778D01*
X182711271Y-56803448D01*
X182609814Y-56720186D01*
X182526552Y-56618729D01*
X182497222Y-56582991D01*
X182487652Y-56565087D01*
X182413557Y-56426467D01*
X182396384Y-56369853D01*
X182362037Y-56256627D01*
X182344641Y-56080000D01*
X182362037Y-55903373D01*
X182413557Y-55733534D01*
X182413557Y-55733533D01*
X182497221Y-55577011D01*
X182497222Y-55577009D01*
X182526552Y-55541271D01*
X182609814Y-55439814D01*
X182711271Y-55356552D01*
X182747009Y-55327222D01*
X182764913Y-55317652D01*
X182903533Y-55243557D01*
X182960147Y-55226384D01*
X183073373Y-55192037D01*
X183139557Y-55185519D01*
X183205740Y-55179000D01*
X183294260Y-55179000D01*
X183360443Y-55185519D01*
X183360443Y-55185519D01*
G37*
G36*
X180751000Y-55791000D02*
X178649000Y-55791000D01*
X178649000Y-55089000D01*
X180751000Y-55089000D01*
X180751000Y-55791000D01*
X180751000Y-55791000D01*
G37*
G36*
X171351000Y-55791000D02*
X169249000Y-55791000D01*
X169249000Y-55089000D01*
X171351000Y-55089000D01*
X171351000Y-55791000D01*
X171351000Y-55791000D01*
G37*
G36*
X139876000Y-55396000D02*
X137574000Y-55396000D01*
X137574000Y-54094000D01*
X139876000Y-54094000D01*
X139876000Y-55396000D01*
X139876000Y-55396000D01*
G37*
G36*
X153451000Y-55371000D02*
X151149000Y-55371000D01*
X151149000Y-54069000D01*
X153451000Y-54069000D01*
X153451000Y-55371000D01*
X153451000Y-55371000D01*
G37*
G36*
X166951000Y-55371000D02*
X164649000Y-55371000D01*
X164649000Y-54069000D01*
X166951000Y-54069000D01*
X166951000Y-55371000D01*
X166951000Y-55371000D01*
G37*
G36*
X171351000Y-54521000D02*
X169249000Y-54521000D01*
X169249000Y-53819000D01*
X171351000Y-53819000D01*
X171351000Y-54521000D01*
X171351000Y-54521000D01*
G37*
G36*
X180751000Y-54521000D02*
X178649000Y-54521000D01*
X178649000Y-53819000D01*
X180751000Y-53819000D01*
X180751000Y-54521000D01*
X180751000Y-54521000D01*
G37*
G36*
X183360442Y-52645518D02*
X183426627Y-52652037D01*
X183539853Y-52686384D01*
X183596467Y-52703557D01*
X183735087Y-52777652D01*
X183752991Y-52787222D01*
X183788729Y-52816552D01*
X183890186Y-52899814D01*
X183973448Y-53001271D01*
X184002778Y-53037009D01*
X184002779Y-53037011D01*
X184086443Y-53193533D01*
X184086443Y-53193534D01*
X184137963Y-53363373D01*
X184155359Y-53540000D01*
X184137963Y-53716627D01*
X184103616Y-53829853D01*
X184086443Y-53886467D01*
X184012348Y-54025087D01*
X184002778Y-54042991D01*
X183981433Y-54069000D01*
X183890186Y-54180186D01*
X183788729Y-54263448D01*
X183752991Y-54292778D01*
X183752989Y-54292779D01*
X183596467Y-54376443D01*
X183539853Y-54393616D01*
X183426627Y-54427963D01*
X183360442Y-54434482D01*
X183294260Y-54441000D01*
X183205740Y-54441000D01*
X183139558Y-54434482D01*
X183073373Y-54427963D01*
X182960147Y-54393616D01*
X182903533Y-54376443D01*
X182747011Y-54292779D01*
X182747009Y-54292778D01*
X182711271Y-54263448D01*
X182609814Y-54180186D01*
X182518567Y-54069000D01*
X182497222Y-54042991D01*
X182487652Y-54025087D01*
X182413557Y-53886467D01*
X182396384Y-53829853D01*
X182362037Y-53716627D01*
X182344641Y-53540000D01*
X182362037Y-53363373D01*
X182413557Y-53193534D01*
X182413557Y-53193533D01*
X182497221Y-53037011D01*
X182497222Y-53037009D01*
X182526552Y-53001271D01*
X182609814Y-52899814D01*
X182711271Y-52816552D01*
X182747009Y-52787222D01*
X182764913Y-52777652D01*
X182903533Y-52703557D01*
X182960147Y-52686384D01*
X183073373Y-52652037D01*
X183139558Y-52645518D01*
X183205740Y-52639000D01*
X183294260Y-52639000D01*
X183360442Y-52645518D01*
X183360442Y-52645518D01*
G37*
G36*
X134051000Y-53051000D02*
X130949000Y-53051000D01*
X130949000Y-49949000D01*
X134051000Y-49949000D01*
X134051000Y-53051000D01*
X134051000Y-53051000D01*
G37*
G36*
X161051000Y-53051000D02*
X157949000Y-53051000D01*
X157949000Y-49949000D01*
X161051000Y-49949000D01*
X161051000Y-53051000D01*
X161051000Y-53051000D01*
G37*
G36*
X147551000Y-53051000D02*
X144449000Y-53051000D01*
X144449000Y-49949000D01*
X147551000Y-49949000D01*
X147551000Y-53051000D01*
X147551000Y-53051000D01*
G37*
G36*
X184151000Y-51901000D02*
X182349000Y-51901000D01*
X182349000Y-50099000D01*
X184151000Y-50099000D01*
X184151000Y-51901000D01*
X184151000Y-51901000D01*
G37*
M02*
