G04 #@! TF.GenerationSoftware,KiCad,Pcbnew,(5.1.5-0)*
G04 #@! TF.CreationDate,2021-08-12T18:14:52-04:00*
G04 #@! TF.ProjectId,ESC_V3,4553435f-5633-42e6-9b69-6361645f7063,rev?*
G04 #@! TF.SameCoordinates,Original*
G04 #@! TF.FileFunction,Copper,L2,Bot*
G04 #@! TF.FilePolarity,Positive*
%FSLAX46Y46*%
G04 Gerber Fmt 4.6, Leading zero omitted, Abs format (unit mm)*
G04 Created by KiCad (PCBNEW (5.1.5-0)) date 2021-08-12 18:14:52*
%MOMM*%
%LPD*%
G04 APERTURE LIST*
%ADD10R,1.700000X1.700000*%
%ADD11O,1.700000X1.700000*%
%ADD12R,5.516000X5.516000*%
%ADD13C,5.516000*%
%ADD14C,0.800000*%
%ADD15C,0.500000*%
%ADD16C,0.254000*%
G04 APERTURE END LIST*
D10*
X107000000Y-85500000D03*
D11*
X109540000Y-85500000D03*
X107000000Y-88040000D03*
X109540000Y-88040000D03*
X107000000Y-90580000D03*
X109540000Y-90580000D03*
X107000000Y-93120000D03*
X109540000Y-93120000D03*
D12*
X109000000Y-77100000D03*
D13*
X109000000Y-69900000D03*
D14*
X145500000Y-77000000D03*
X146500000Y-77000000D03*
X131500000Y-77000000D03*
X132500000Y-77000000D03*
X133500000Y-77000000D03*
X118000000Y-77000000D03*
X119000000Y-77000000D03*
X120000000Y-77000000D03*
X117000000Y-77000000D03*
X116000000Y-77000000D03*
X116000000Y-76000000D03*
X117000000Y-76000000D03*
X118000000Y-76000000D03*
X119000000Y-76000000D03*
X120000000Y-76000000D03*
X120000000Y-75000000D03*
X119000000Y-75000000D03*
X118000000Y-75000000D03*
X117000000Y-75000000D03*
X116000000Y-75000000D03*
X116000000Y-74000000D03*
X117000000Y-74000000D03*
X118000000Y-74000000D03*
X119000000Y-74000000D03*
X120000000Y-74000000D03*
X130500000Y-77000000D03*
X129500000Y-77000000D03*
X129500000Y-76000000D03*
X130500000Y-76000000D03*
X131500000Y-76000000D03*
X132500000Y-76000000D03*
X133500000Y-76000000D03*
X133500000Y-75000000D03*
X132500000Y-75000000D03*
X131500000Y-75000000D03*
X130500000Y-75000000D03*
X129500000Y-75000000D03*
X129500000Y-74000000D03*
X130500000Y-74000000D03*
X131500000Y-74000000D03*
X132500000Y-74000000D03*
X133500000Y-74000000D03*
X147500000Y-77000000D03*
X144500000Y-77000000D03*
X143500000Y-77000000D03*
X143500000Y-76000000D03*
X144500000Y-76000000D03*
X145500000Y-76000000D03*
X146500000Y-76000000D03*
X147500000Y-76000000D03*
X147500000Y-75000000D03*
X146500000Y-75000000D03*
X145500000Y-75000000D03*
X144500000Y-75000000D03*
X143500000Y-75000000D03*
X143500000Y-74000000D03*
X144500000Y-74000000D03*
X145500000Y-74000000D03*
X146500000Y-74000000D03*
X147500000Y-74000000D03*
X150000000Y-84000000D03*
X149000000Y-84000000D03*
X148000000Y-84000000D03*
X147000000Y-84000000D03*
X146000000Y-84000000D03*
X146000000Y-83000000D03*
X147000000Y-83000000D03*
X148000000Y-83000000D03*
X149000000Y-83000000D03*
X150000000Y-83000000D03*
X150000000Y-82000000D03*
X149000000Y-82000000D03*
X148000000Y-82000000D03*
X147000000Y-82000000D03*
X146000000Y-82000000D03*
X146000000Y-81000000D03*
X147000000Y-81000000D03*
X148000000Y-81000000D03*
X149000000Y-81000000D03*
X150000000Y-81000000D03*
X150000000Y-80000000D03*
X149000000Y-80000000D03*
X148000000Y-80000000D03*
X147000000Y-80000000D03*
X146000000Y-80000000D03*
X136500000Y-84000000D03*
X135500000Y-84000000D03*
X134500000Y-84000000D03*
X133500000Y-84000000D03*
X132500000Y-84000000D03*
X132500000Y-83000000D03*
X133500000Y-83000000D03*
X134500000Y-83000000D03*
X135500000Y-83000000D03*
X136500000Y-83000000D03*
X136500000Y-82000000D03*
X135500000Y-82000000D03*
X134500000Y-82000000D03*
X133500000Y-82000000D03*
X132500000Y-82000000D03*
X132500000Y-81000000D03*
X133500000Y-81000000D03*
X134500000Y-81000000D03*
X135500000Y-81000000D03*
X136500000Y-81000000D03*
X136500000Y-80000000D03*
X135500000Y-80000000D03*
X134500000Y-80000000D03*
X133500000Y-80000000D03*
X132500000Y-80000000D03*
X122500000Y-84000000D03*
X121500000Y-84000000D03*
X120500000Y-84000000D03*
X119500000Y-84000000D03*
X118500000Y-84000000D03*
X118500000Y-83000000D03*
X119500000Y-83000000D03*
X120500000Y-83000000D03*
X121500000Y-83000000D03*
X122500000Y-83000000D03*
X122500000Y-82000000D03*
X121500000Y-82000000D03*
X120500000Y-82000000D03*
X119500000Y-82000000D03*
X118500000Y-82000000D03*
X118500000Y-81000000D03*
X119500000Y-81000000D03*
X120500000Y-81000000D03*
X121500000Y-81000000D03*
X122500000Y-81000000D03*
X122500000Y-80000000D03*
X121500000Y-80000000D03*
X120500000Y-80000000D03*
X119500000Y-80000000D03*
X118500000Y-80000000D03*
X115000000Y-86000000D03*
X130500000Y-93500000D03*
X129500000Y-86000000D03*
X146000000Y-93500000D03*
X145000000Y-86500000D03*
X117001041Y-88501041D03*
X124700000Y-91500000D03*
X116500000Y-91500000D03*
X139900000Y-91500000D03*
X131700000Y-91500000D03*
X154500000Y-92500000D03*
X147000000Y-91600000D03*
X111143042Y-94643042D03*
X126500000Y-92500000D03*
X126600021Y-91000000D03*
X112000000Y-90000000D03*
D15*
X124700000Y-91500000D02*
X116500000Y-91500000D01*
X139900000Y-91500000D02*
X131700000Y-91500000D01*
X147900000Y-92500000D02*
X147000000Y-91600000D01*
X154500000Y-92500000D02*
X147900000Y-92500000D01*
X111143042Y-89643042D02*
X109540000Y-88040000D01*
X111143042Y-94643042D02*
X111143042Y-89643042D01*
X104500000Y-93080000D02*
X107000000Y-90580000D01*
X104500000Y-95500000D02*
X104500000Y-93080000D01*
X111710055Y-95500000D02*
X104500000Y-95500000D01*
X126100001Y-92899999D02*
X114310056Y-92899999D01*
X114310056Y-92899999D02*
X111710055Y-95500000D01*
X126500000Y-92500000D02*
X126100001Y-92899999D01*
X125600021Y-90000000D02*
X112000000Y-90000000D01*
X126600021Y-91000000D02*
X125600021Y-90000000D01*
D16*
G36*
X155340000Y-77873000D02*
G01*
X115127000Y-77873000D01*
X115127000Y-73000000D01*
X115124560Y-72975224D01*
X115117333Y-72951399D01*
X115105597Y-72929443D01*
X115089803Y-72910197D01*
X115070557Y-72894403D01*
X115048601Y-72882667D01*
X115024776Y-72875440D01*
X115000000Y-72873000D01*
X104660000Y-72873000D01*
X104660000Y-65660000D01*
X155340000Y-65660000D01*
X155340000Y-77873000D01*
G37*
X155340000Y-77873000D02*
X115127000Y-77873000D01*
X115127000Y-73000000D01*
X115124560Y-72975224D01*
X115117333Y-72951399D01*
X115105597Y-72929443D01*
X115089803Y-72910197D01*
X115070557Y-72894403D01*
X115048601Y-72882667D01*
X115024776Y-72875440D01*
X115000000Y-72873000D01*
X104660000Y-72873000D01*
X104660000Y-65660000D01*
X155340000Y-65660000D01*
X155340000Y-77873000D01*
G36*
X113873000Y-79000000D02*
G01*
X113875440Y-79024776D01*
X113882667Y-79048601D01*
X113894403Y-79070557D01*
X113910197Y-79089803D01*
X113929443Y-79105597D01*
X113951399Y-79117333D01*
X113975224Y-79124560D01*
X114000000Y-79127000D01*
X155340001Y-79127000D01*
X155340001Y-91894200D01*
X155303937Y-91840226D01*
X155159774Y-91696063D01*
X154990256Y-91582795D01*
X154801898Y-91504774D01*
X154601939Y-91465000D01*
X154398061Y-91465000D01*
X154198102Y-91504774D01*
X154009744Y-91582795D01*
X153961546Y-91615000D01*
X148266579Y-91615000D01*
X148006535Y-91354957D01*
X147995226Y-91298102D01*
X147917205Y-91109744D01*
X147803937Y-90940226D01*
X147659774Y-90796063D01*
X147490256Y-90682795D01*
X147301898Y-90604774D01*
X147101939Y-90565000D01*
X146898061Y-90565000D01*
X146698102Y-90604774D01*
X146509744Y-90682795D01*
X146340226Y-90796063D01*
X146196063Y-90940226D01*
X146082795Y-91109744D01*
X146004774Y-91298102D01*
X145965000Y-91498061D01*
X145965000Y-91701939D01*
X146004774Y-91901898D01*
X146082795Y-92090256D01*
X146196063Y-92259774D01*
X146340226Y-92403937D01*
X146509744Y-92517205D01*
X146698102Y-92595226D01*
X146754957Y-92606535D01*
X147243470Y-93095049D01*
X147271183Y-93128817D01*
X147304951Y-93156530D01*
X147304953Y-93156532D01*
X147376452Y-93215210D01*
X147405941Y-93239411D01*
X147559687Y-93321589D01*
X147726510Y-93372195D01*
X147856523Y-93385000D01*
X147856533Y-93385000D01*
X147899999Y-93389281D01*
X147943465Y-93385000D01*
X153961546Y-93385000D01*
X154009744Y-93417205D01*
X154198102Y-93495226D01*
X154398061Y-93535000D01*
X154601939Y-93535000D01*
X154801898Y-93495226D01*
X154990256Y-93417205D01*
X155159774Y-93303937D01*
X155303937Y-93159774D01*
X155340001Y-93105800D01*
X155340001Y-95340000D01*
X113121633Y-95340000D01*
X114676635Y-93784999D01*
X126056532Y-93784999D01*
X126100001Y-93789280D01*
X126143470Y-93784999D01*
X126143478Y-93784999D01*
X126273491Y-93772194D01*
X126440314Y-93721588D01*
X126594060Y-93639410D01*
X126728818Y-93528816D01*
X126747506Y-93506045D01*
X126801898Y-93495226D01*
X126990256Y-93417205D01*
X127159774Y-93303937D01*
X127303937Y-93159774D01*
X127417205Y-92990256D01*
X127495226Y-92801898D01*
X127535000Y-92601939D01*
X127535000Y-92398061D01*
X127495226Y-92198102D01*
X127417205Y-92009744D01*
X127303937Y-91840226D01*
X127263722Y-91800011D01*
X127403958Y-91659774D01*
X127517226Y-91490256D01*
X127555414Y-91398061D01*
X130665000Y-91398061D01*
X130665000Y-91601939D01*
X130704774Y-91801898D01*
X130782795Y-91990256D01*
X130896063Y-92159774D01*
X131040226Y-92303937D01*
X131209744Y-92417205D01*
X131398102Y-92495226D01*
X131598061Y-92535000D01*
X131801939Y-92535000D01*
X132001898Y-92495226D01*
X132190256Y-92417205D01*
X132238454Y-92385000D01*
X139361546Y-92385000D01*
X139409744Y-92417205D01*
X139598102Y-92495226D01*
X139798061Y-92535000D01*
X140001939Y-92535000D01*
X140201898Y-92495226D01*
X140390256Y-92417205D01*
X140559774Y-92303937D01*
X140703937Y-92159774D01*
X140817205Y-91990256D01*
X140895226Y-91801898D01*
X140935000Y-91601939D01*
X140935000Y-91398061D01*
X140895226Y-91198102D01*
X140817205Y-91009744D01*
X140703937Y-90840226D01*
X140559774Y-90696063D01*
X140390256Y-90582795D01*
X140201898Y-90504774D01*
X140001939Y-90465000D01*
X139798061Y-90465000D01*
X139598102Y-90504774D01*
X139409744Y-90582795D01*
X139361546Y-90615000D01*
X132238454Y-90615000D01*
X132190256Y-90582795D01*
X132001898Y-90504774D01*
X131801939Y-90465000D01*
X131598061Y-90465000D01*
X131398102Y-90504774D01*
X131209744Y-90582795D01*
X131040226Y-90696063D01*
X130896063Y-90840226D01*
X130782795Y-91009744D01*
X130704774Y-91198102D01*
X130665000Y-91398061D01*
X127555414Y-91398061D01*
X127595247Y-91301898D01*
X127635021Y-91101939D01*
X127635021Y-90898061D01*
X127595247Y-90698102D01*
X127517226Y-90509744D01*
X127403958Y-90340226D01*
X127259795Y-90196063D01*
X127090277Y-90082795D01*
X126901919Y-90004774D01*
X126845065Y-89993465D01*
X126256555Y-89404956D01*
X126228838Y-89371183D01*
X126094080Y-89260589D01*
X125940334Y-89178411D01*
X125773511Y-89127805D01*
X125643498Y-89115000D01*
X125643490Y-89115000D01*
X125600021Y-89110719D01*
X125556552Y-89115000D01*
X112538454Y-89115000D01*
X112490256Y-89082795D01*
X112301898Y-89004774D01*
X112101939Y-88965000D01*
X111898061Y-88965000D01*
X111748201Y-88994809D01*
X111738091Y-88986512D01*
X111010539Y-88258960D01*
X111025000Y-88186260D01*
X111025000Y-87893740D01*
X110967932Y-87606842D01*
X110855990Y-87336589D01*
X110693475Y-87093368D01*
X110486632Y-86886525D01*
X110243411Y-86724010D01*
X109973158Y-86612068D01*
X109686260Y-86555000D01*
X109393740Y-86555000D01*
X109106842Y-86612068D01*
X108836589Y-86724010D01*
X108593368Y-86886525D01*
X108386525Y-87093368D01*
X108270000Y-87267760D01*
X108153475Y-87093368D01*
X107946632Y-86886525D01*
X107703411Y-86724010D01*
X107433158Y-86612068D01*
X107146260Y-86555000D01*
X106853740Y-86555000D01*
X106566842Y-86612068D01*
X106296589Y-86724010D01*
X106053368Y-86886525D01*
X105846525Y-87093368D01*
X105684010Y-87336589D01*
X105572068Y-87606842D01*
X105515000Y-87893740D01*
X105515000Y-88186260D01*
X105572068Y-88473158D01*
X105684010Y-88743411D01*
X105846525Y-88986632D01*
X106053368Y-89193475D01*
X106227760Y-89310000D01*
X106053368Y-89426525D01*
X105846525Y-89633368D01*
X105684010Y-89876589D01*
X105572068Y-90146842D01*
X105515000Y-90433740D01*
X105515000Y-90726260D01*
X105529461Y-90798960D01*
X104660000Y-91668422D01*
X104660000Y-74127000D01*
X113873000Y-74127000D01*
X113873000Y-79000000D01*
G37*
X113873000Y-79000000D02*
X113875440Y-79024776D01*
X113882667Y-79048601D01*
X113894403Y-79070557D01*
X113910197Y-79089803D01*
X113929443Y-79105597D01*
X113951399Y-79117333D01*
X113975224Y-79124560D01*
X114000000Y-79127000D01*
X155340001Y-79127000D01*
X155340001Y-91894200D01*
X155303937Y-91840226D01*
X155159774Y-91696063D01*
X154990256Y-91582795D01*
X154801898Y-91504774D01*
X154601939Y-91465000D01*
X154398061Y-91465000D01*
X154198102Y-91504774D01*
X154009744Y-91582795D01*
X153961546Y-91615000D01*
X148266579Y-91615000D01*
X148006535Y-91354957D01*
X147995226Y-91298102D01*
X147917205Y-91109744D01*
X147803937Y-90940226D01*
X147659774Y-90796063D01*
X147490256Y-90682795D01*
X147301898Y-90604774D01*
X147101939Y-90565000D01*
X146898061Y-90565000D01*
X146698102Y-90604774D01*
X146509744Y-90682795D01*
X146340226Y-90796063D01*
X146196063Y-90940226D01*
X146082795Y-91109744D01*
X146004774Y-91298102D01*
X145965000Y-91498061D01*
X145965000Y-91701939D01*
X146004774Y-91901898D01*
X146082795Y-92090256D01*
X146196063Y-92259774D01*
X146340226Y-92403937D01*
X146509744Y-92517205D01*
X146698102Y-92595226D01*
X146754957Y-92606535D01*
X147243470Y-93095049D01*
X147271183Y-93128817D01*
X147304951Y-93156530D01*
X147304953Y-93156532D01*
X147376452Y-93215210D01*
X147405941Y-93239411D01*
X147559687Y-93321589D01*
X147726510Y-93372195D01*
X147856523Y-93385000D01*
X147856533Y-93385000D01*
X147899999Y-93389281D01*
X147943465Y-93385000D01*
X153961546Y-93385000D01*
X154009744Y-93417205D01*
X154198102Y-93495226D01*
X154398061Y-93535000D01*
X154601939Y-93535000D01*
X154801898Y-93495226D01*
X154990256Y-93417205D01*
X155159774Y-93303937D01*
X155303937Y-93159774D01*
X155340001Y-93105800D01*
X155340001Y-95340000D01*
X113121633Y-95340000D01*
X114676635Y-93784999D01*
X126056532Y-93784999D01*
X126100001Y-93789280D01*
X126143470Y-93784999D01*
X126143478Y-93784999D01*
X126273491Y-93772194D01*
X126440314Y-93721588D01*
X126594060Y-93639410D01*
X126728818Y-93528816D01*
X126747506Y-93506045D01*
X126801898Y-93495226D01*
X126990256Y-93417205D01*
X127159774Y-93303937D01*
X127303937Y-93159774D01*
X127417205Y-92990256D01*
X127495226Y-92801898D01*
X127535000Y-92601939D01*
X127535000Y-92398061D01*
X127495226Y-92198102D01*
X127417205Y-92009744D01*
X127303937Y-91840226D01*
X127263722Y-91800011D01*
X127403958Y-91659774D01*
X127517226Y-91490256D01*
X127555414Y-91398061D01*
X130665000Y-91398061D01*
X130665000Y-91601939D01*
X130704774Y-91801898D01*
X130782795Y-91990256D01*
X130896063Y-92159774D01*
X131040226Y-92303937D01*
X131209744Y-92417205D01*
X131398102Y-92495226D01*
X131598061Y-92535000D01*
X131801939Y-92535000D01*
X132001898Y-92495226D01*
X132190256Y-92417205D01*
X132238454Y-92385000D01*
X139361546Y-92385000D01*
X139409744Y-92417205D01*
X139598102Y-92495226D01*
X139798061Y-92535000D01*
X140001939Y-92535000D01*
X140201898Y-92495226D01*
X140390256Y-92417205D01*
X140559774Y-92303937D01*
X140703937Y-92159774D01*
X140817205Y-91990256D01*
X140895226Y-91801898D01*
X140935000Y-91601939D01*
X140935000Y-91398061D01*
X140895226Y-91198102D01*
X140817205Y-91009744D01*
X140703937Y-90840226D01*
X140559774Y-90696063D01*
X140390256Y-90582795D01*
X140201898Y-90504774D01*
X140001939Y-90465000D01*
X139798061Y-90465000D01*
X139598102Y-90504774D01*
X139409744Y-90582795D01*
X139361546Y-90615000D01*
X132238454Y-90615000D01*
X132190256Y-90582795D01*
X132001898Y-90504774D01*
X131801939Y-90465000D01*
X131598061Y-90465000D01*
X131398102Y-90504774D01*
X131209744Y-90582795D01*
X131040226Y-90696063D01*
X130896063Y-90840226D01*
X130782795Y-91009744D01*
X130704774Y-91198102D01*
X130665000Y-91398061D01*
X127555414Y-91398061D01*
X127595247Y-91301898D01*
X127635021Y-91101939D01*
X127635021Y-90898061D01*
X127595247Y-90698102D01*
X127517226Y-90509744D01*
X127403958Y-90340226D01*
X127259795Y-90196063D01*
X127090277Y-90082795D01*
X126901919Y-90004774D01*
X126845065Y-89993465D01*
X126256555Y-89404956D01*
X126228838Y-89371183D01*
X126094080Y-89260589D01*
X125940334Y-89178411D01*
X125773511Y-89127805D01*
X125643498Y-89115000D01*
X125643490Y-89115000D01*
X125600021Y-89110719D01*
X125556552Y-89115000D01*
X112538454Y-89115000D01*
X112490256Y-89082795D01*
X112301898Y-89004774D01*
X112101939Y-88965000D01*
X111898061Y-88965000D01*
X111748201Y-88994809D01*
X111738091Y-88986512D01*
X111010539Y-88258960D01*
X111025000Y-88186260D01*
X111025000Y-87893740D01*
X110967932Y-87606842D01*
X110855990Y-87336589D01*
X110693475Y-87093368D01*
X110486632Y-86886525D01*
X110243411Y-86724010D01*
X109973158Y-86612068D01*
X109686260Y-86555000D01*
X109393740Y-86555000D01*
X109106842Y-86612068D01*
X108836589Y-86724010D01*
X108593368Y-86886525D01*
X108386525Y-87093368D01*
X108270000Y-87267760D01*
X108153475Y-87093368D01*
X107946632Y-86886525D01*
X107703411Y-86724010D01*
X107433158Y-86612068D01*
X107146260Y-86555000D01*
X106853740Y-86555000D01*
X106566842Y-86612068D01*
X106296589Y-86724010D01*
X106053368Y-86886525D01*
X105846525Y-87093368D01*
X105684010Y-87336589D01*
X105572068Y-87606842D01*
X105515000Y-87893740D01*
X105515000Y-88186260D01*
X105572068Y-88473158D01*
X105684010Y-88743411D01*
X105846525Y-88986632D01*
X106053368Y-89193475D01*
X106227760Y-89310000D01*
X106053368Y-89426525D01*
X105846525Y-89633368D01*
X105684010Y-89876589D01*
X105572068Y-90146842D01*
X105515000Y-90433740D01*
X105515000Y-90726260D01*
X105529461Y-90798960D01*
X104660000Y-91668422D01*
X104660000Y-74127000D01*
X113873000Y-74127000D01*
X113873000Y-79000000D01*
M02*
