M48
; DRILL file {KiCad (5.1.5-0)} date Thursday, August 12, 2021 at 06:14:55 PM
; FORMAT={-:-/ absolute / metric / decimal}
; #@! TF.CreationDate,2021-08-12T18:14:55-04:00
; #@! TF.GenerationSoftware,Kicad,Pcbnew,(5.1.5-0)
; #@! TF.FileFunction,Plated,1,2,PTH
FMAT,2
METRIC
T1C0.400
T2C1.000
T3C4.500
%
G90
G05
T1
X111.143Y-94.643
X112.0Y-90.0
X115.0Y-86.0
X116.0Y-74.0
X116.0Y-75.0
X116.0Y-76.0
X116.0Y-77.0
X116.5Y-91.5
X117.0Y-74.0
X117.0Y-75.0
X117.0Y-76.0
X117.0Y-77.0
X117.001Y-88.501
X118.0Y-74.0
X118.0Y-75.0
X118.0Y-76.0
X118.0Y-77.0
X118.5Y-80.0
X118.5Y-81.0
X118.5Y-82.0
X118.5Y-83.0
X118.5Y-84.0
X119.0Y-74.0
X119.0Y-75.0
X119.0Y-76.0
X119.0Y-77.0
X119.5Y-80.0
X119.5Y-81.0
X119.5Y-82.0
X119.5Y-83.0
X119.5Y-84.0
X120.0Y-74.0
X120.0Y-75.0
X120.0Y-76.0
X120.0Y-77.0
X120.5Y-80.0
X120.5Y-81.0
X120.5Y-82.0
X120.5Y-83.0
X120.5Y-84.0
X121.5Y-80.0
X121.5Y-81.0
X121.5Y-82.0
X121.5Y-83.0
X121.5Y-84.0
X122.5Y-80.0
X122.5Y-81.0
X122.5Y-82.0
X122.5Y-83.0
X122.5Y-84.0
X124.7Y-91.5
X126.5Y-92.5
X126.6Y-91.0
X129.5Y-74.0
X129.5Y-75.0
X129.5Y-76.0
X129.5Y-77.0
X129.5Y-86.0
X130.5Y-74.0
X130.5Y-75.0
X130.5Y-76.0
X130.5Y-77.0
X130.5Y-93.5
X131.5Y-74.0
X131.5Y-75.0
X131.5Y-76.0
X131.5Y-77.0
X131.7Y-91.5
X132.5Y-74.0
X132.5Y-75.0
X132.5Y-76.0
X132.5Y-77.0
X132.5Y-80.0
X132.5Y-81.0
X132.5Y-82.0
X132.5Y-83.0
X132.5Y-84.0
X133.5Y-74.0
X133.5Y-75.0
X133.5Y-76.0
X133.5Y-77.0
X133.5Y-80.0
X133.5Y-81.0
X133.5Y-82.0
X133.5Y-83.0
X133.5Y-84.0
X134.5Y-80.0
X134.5Y-81.0
X134.5Y-82.0
X134.5Y-83.0
X134.5Y-84.0
X135.5Y-80.0
X135.5Y-81.0
X135.5Y-82.0
X135.5Y-83.0
X135.5Y-84.0
X136.5Y-80.0
X136.5Y-81.0
X136.5Y-82.0
X136.5Y-83.0
X136.5Y-84.0
X139.9Y-91.5
X143.5Y-74.0
X143.5Y-75.0
X143.5Y-76.0
X143.5Y-77.0
X144.5Y-74.0
X144.5Y-75.0
X144.5Y-76.0
X144.5Y-77.0
X145.0Y-86.5
X145.5Y-74.0
X145.5Y-75.0
X145.5Y-76.0
X145.5Y-77.0
X146.0Y-80.0
X146.0Y-81.0
X146.0Y-82.0
X146.0Y-83.0
X146.0Y-84.0
X146.0Y-93.5
X146.5Y-74.0
X146.5Y-75.0
X146.5Y-76.0
X146.5Y-77.0
X147.0Y-80.0
X147.0Y-81.0
X147.0Y-82.0
X147.0Y-83.0
X147.0Y-84.0
X147.0Y-91.6
X147.5Y-74.0
X147.5Y-75.0
X147.5Y-76.0
X147.5Y-77.0
X148.0Y-80.0
X148.0Y-81.0
X148.0Y-82.0
X148.0Y-83.0
X148.0Y-84.0
X149.0Y-80.0
X149.0Y-81.0
X149.0Y-82.0
X149.0Y-83.0
X149.0Y-84.0
X150.0Y-80.0
X150.0Y-81.0
X150.0Y-82.0
X150.0Y-83.0
X150.0Y-84.0
X154.5Y-92.5
T2
X107.0Y-85.5
X107.0Y-88.04
X107.0Y-90.58
X107.0Y-93.12
X109.54Y-85.5
X109.54Y-88.04
X109.54Y-90.58
X109.54Y-93.12
T3
X109.0Y-69.9
X109.0Y-77.1
T0
M30
