G04 #@! TF.GenerationSoftware,KiCad,Pcbnew,(5.1.5-0)*
G04 #@! TF.CreationDate,2021-08-12T18:14:52-04:00*
G04 #@! TF.ProjectId,ESC_V3,4553435f-5633-42e6-9b69-6361645f7063,rev?*
G04 #@! TF.SameCoordinates,Original*
G04 #@! TF.FileFunction,Soldermask,Bot*
G04 #@! TF.FilePolarity,Negative*
%FSLAX46Y46*%
G04 Gerber Fmt 4.6, Leading zero omitted, Abs format (unit mm)*
G04 Created by KiCad (PCBNEW (5.1.5-0)) date 2021-08-12 18:14:52*
%MOMM*%
%LPD*%
G04 APERTURE LIST*
%ADD10C,0.100000*%
G04 APERTURE END LIST*
D10*
G36*
X109653512Y-92223927D02*
G01*
X109802812Y-92253624D01*
X109966784Y-92321544D01*
X110114354Y-92420147D01*
X110239853Y-92545646D01*
X110338456Y-92693216D01*
X110406376Y-92857188D01*
X110441000Y-93031259D01*
X110441000Y-93208741D01*
X110406376Y-93382812D01*
X110338456Y-93546784D01*
X110239853Y-93694354D01*
X110114354Y-93819853D01*
X109966784Y-93918456D01*
X109802812Y-93986376D01*
X109653512Y-94016073D01*
X109628742Y-94021000D01*
X109451258Y-94021000D01*
X109426488Y-94016073D01*
X109277188Y-93986376D01*
X109113216Y-93918456D01*
X108965646Y-93819853D01*
X108840147Y-93694354D01*
X108741544Y-93546784D01*
X108673624Y-93382812D01*
X108639000Y-93208741D01*
X108639000Y-93031259D01*
X108673624Y-92857188D01*
X108741544Y-92693216D01*
X108840147Y-92545646D01*
X108965646Y-92420147D01*
X109113216Y-92321544D01*
X109277188Y-92253624D01*
X109426488Y-92223927D01*
X109451258Y-92219000D01*
X109628742Y-92219000D01*
X109653512Y-92223927D01*
G37*
G36*
X107113512Y-92223927D02*
G01*
X107262812Y-92253624D01*
X107426784Y-92321544D01*
X107574354Y-92420147D01*
X107699853Y-92545646D01*
X107798456Y-92693216D01*
X107866376Y-92857188D01*
X107901000Y-93031259D01*
X107901000Y-93208741D01*
X107866376Y-93382812D01*
X107798456Y-93546784D01*
X107699853Y-93694354D01*
X107574354Y-93819853D01*
X107426784Y-93918456D01*
X107262812Y-93986376D01*
X107113512Y-94016073D01*
X107088742Y-94021000D01*
X106911258Y-94021000D01*
X106886488Y-94016073D01*
X106737188Y-93986376D01*
X106573216Y-93918456D01*
X106425646Y-93819853D01*
X106300147Y-93694354D01*
X106201544Y-93546784D01*
X106133624Y-93382812D01*
X106099000Y-93208741D01*
X106099000Y-93031259D01*
X106133624Y-92857188D01*
X106201544Y-92693216D01*
X106300147Y-92545646D01*
X106425646Y-92420147D01*
X106573216Y-92321544D01*
X106737188Y-92253624D01*
X106886488Y-92223927D01*
X106911258Y-92219000D01*
X107088742Y-92219000D01*
X107113512Y-92223927D01*
G37*
G36*
X109653512Y-89683927D02*
G01*
X109802812Y-89713624D01*
X109966784Y-89781544D01*
X110114354Y-89880147D01*
X110239853Y-90005646D01*
X110338456Y-90153216D01*
X110406376Y-90317188D01*
X110441000Y-90491259D01*
X110441000Y-90668741D01*
X110406376Y-90842812D01*
X110338456Y-91006784D01*
X110239853Y-91154354D01*
X110114354Y-91279853D01*
X109966784Y-91378456D01*
X109802812Y-91446376D01*
X109653512Y-91476073D01*
X109628742Y-91481000D01*
X109451258Y-91481000D01*
X109426488Y-91476073D01*
X109277188Y-91446376D01*
X109113216Y-91378456D01*
X108965646Y-91279853D01*
X108840147Y-91154354D01*
X108741544Y-91006784D01*
X108673624Y-90842812D01*
X108639000Y-90668741D01*
X108639000Y-90491259D01*
X108673624Y-90317188D01*
X108741544Y-90153216D01*
X108840147Y-90005646D01*
X108965646Y-89880147D01*
X109113216Y-89781544D01*
X109277188Y-89713624D01*
X109426488Y-89683927D01*
X109451258Y-89679000D01*
X109628742Y-89679000D01*
X109653512Y-89683927D01*
G37*
G36*
X107113512Y-89683927D02*
G01*
X107262812Y-89713624D01*
X107426784Y-89781544D01*
X107574354Y-89880147D01*
X107699853Y-90005646D01*
X107798456Y-90153216D01*
X107866376Y-90317188D01*
X107901000Y-90491259D01*
X107901000Y-90668741D01*
X107866376Y-90842812D01*
X107798456Y-91006784D01*
X107699853Y-91154354D01*
X107574354Y-91279853D01*
X107426784Y-91378456D01*
X107262812Y-91446376D01*
X107113512Y-91476073D01*
X107088742Y-91481000D01*
X106911258Y-91481000D01*
X106886488Y-91476073D01*
X106737188Y-91446376D01*
X106573216Y-91378456D01*
X106425646Y-91279853D01*
X106300147Y-91154354D01*
X106201544Y-91006784D01*
X106133624Y-90842812D01*
X106099000Y-90668741D01*
X106099000Y-90491259D01*
X106133624Y-90317188D01*
X106201544Y-90153216D01*
X106300147Y-90005646D01*
X106425646Y-89880147D01*
X106573216Y-89781544D01*
X106737188Y-89713624D01*
X106886488Y-89683927D01*
X106911258Y-89679000D01*
X107088742Y-89679000D01*
X107113512Y-89683927D01*
G37*
G36*
X109653512Y-87143927D02*
G01*
X109802812Y-87173624D01*
X109966784Y-87241544D01*
X110114354Y-87340147D01*
X110239853Y-87465646D01*
X110338456Y-87613216D01*
X110406376Y-87777188D01*
X110441000Y-87951259D01*
X110441000Y-88128741D01*
X110406376Y-88302812D01*
X110338456Y-88466784D01*
X110239853Y-88614354D01*
X110114354Y-88739853D01*
X109966784Y-88838456D01*
X109802812Y-88906376D01*
X109653512Y-88936073D01*
X109628742Y-88941000D01*
X109451258Y-88941000D01*
X109426488Y-88936073D01*
X109277188Y-88906376D01*
X109113216Y-88838456D01*
X108965646Y-88739853D01*
X108840147Y-88614354D01*
X108741544Y-88466784D01*
X108673624Y-88302812D01*
X108639000Y-88128741D01*
X108639000Y-87951259D01*
X108673624Y-87777188D01*
X108741544Y-87613216D01*
X108840147Y-87465646D01*
X108965646Y-87340147D01*
X109113216Y-87241544D01*
X109277188Y-87173624D01*
X109426488Y-87143927D01*
X109451258Y-87139000D01*
X109628742Y-87139000D01*
X109653512Y-87143927D01*
G37*
G36*
X107113512Y-87143927D02*
G01*
X107262812Y-87173624D01*
X107426784Y-87241544D01*
X107574354Y-87340147D01*
X107699853Y-87465646D01*
X107798456Y-87613216D01*
X107866376Y-87777188D01*
X107901000Y-87951259D01*
X107901000Y-88128741D01*
X107866376Y-88302812D01*
X107798456Y-88466784D01*
X107699853Y-88614354D01*
X107574354Y-88739853D01*
X107426784Y-88838456D01*
X107262812Y-88906376D01*
X107113512Y-88936073D01*
X107088742Y-88941000D01*
X106911258Y-88941000D01*
X106886488Y-88936073D01*
X106737188Y-88906376D01*
X106573216Y-88838456D01*
X106425646Y-88739853D01*
X106300147Y-88614354D01*
X106201544Y-88466784D01*
X106133624Y-88302812D01*
X106099000Y-88128741D01*
X106099000Y-87951259D01*
X106133624Y-87777188D01*
X106201544Y-87613216D01*
X106300147Y-87465646D01*
X106425646Y-87340147D01*
X106573216Y-87241544D01*
X106737188Y-87173624D01*
X106886488Y-87143927D01*
X106911258Y-87139000D01*
X107088742Y-87139000D01*
X107113512Y-87143927D01*
G37*
G36*
X109653512Y-84603927D02*
G01*
X109802812Y-84633624D01*
X109966784Y-84701544D01*
X110114354Y-84800147D01*
X110239853Y-84925646D01*
X110338456Y-85073216D01*
X110406376Y-85237188D01*
X110441000Y-85411259D01*
X110441000Y-85588741D01*
X110406376Y-85762812D01*
X110338456Y-85926784D01*
X110239853Y-86074354D01*
X110114354Y-86199853D01*
X109966784Y-86298456D01*
X109802812Y-86366376D01*
X109653512Y-86396073D01*
X109628742Y-86401000D01*
X109451258Y-86401000D01*
X109426488Y-86396073D01*
X109277188Y-86366376D01*
X109113216Y-86298456D01*
X108965646Y-86199853D01*
X108840147Y-86074354D01*
X108741544Y-85926784D01*
X108673624Y-85762812D01*
X108639000Y-85588741D01*
X108639000Y-85411259D01*
X108673624Y-85237188D01*
X108741544Y-85073216D01*
X108840147Y-84925646D01*
X108965646Y-84800147D01*
X109113216Y-84701544D01*
X109277188Y-84633624D01*
X109426488Y-84603927D01*
X109451258Y-84599000D01*
X109628742Y-84599000D01*
X109653512Y-84603927D01*
G37*
G36*
X107901000Y-86401000D02*
G01*
X106099000Y-86401000D01*
X106099000Y-84599000D01*
X107901000Y-84599000D01*
X107901000Y-86401000D01*
G37*
G36*
X111809000Y-79909000D02*
G01*
X106191000Y-79909000D01*
X106191000Y-74291000D01*
X111809000Y-74291000D01*
X111809000Y-79909000D01*
G37*
G36*
X109638457Y-67162965D02*
G01*
X109819355Y-67198948D01*
X110330561Y-67410696D01*
X110790633Y-67718107D01*
X111181893Y-68109367D01*
X111489304Y-68569439D01*
X111701052Y-69080645D01*
X111809000Y-69623338D01*
X111809000Y-70176662D01*
X111701052Y-70719355D01*
X111489304Y-71230561D01*
X111181893Y-71690633D01*
X110790633Y-72081893D01*
X110330561Y-72389304D01*
X109819355Y-72601052D01*
X109638457Y-72637035D01*
X109276664Y-72709000D01*
X108723336Y-72709000D01*
X108361543Y-72637035D01*
X108180645Y-72601052D01*
X107669439Y-72389304D01*
X107209367Y-72081893D01*
X106818107Y-71690633D01*
X106510696Y-71230561D01*
X106298948Y-70719355D01*
X106191000Y-70176662D01*
X106191000Y-69623338D01*
X106298948Y-69080645D01*
X106510696Y-68569439D01*
X106818107Y-68109367D01*
X107209367Y-67718107D01*
X107669439Y-67410696D01*
X108180645Y-67198948D01*
X108361543Y-67162965D01*
X108723336Y-67091000D01*
X109276664Y-67091000D01*
X109638457Y-67162965D01*
G37*
M02*
