G04 #@! TF.GenerationSoftware,KiCad,Pcbnew,(5.1.5-0)*
G04 #@! TF.CreationDate,2021-08-12T18:14:52-04:00*
G04 #@! TF.ProjectId,ESC_V3,4553435f-5633-42e6-9b69-6361645f7063,rev?*
G04 #@! TF.SameCoordinates,Original*
G04 #@! TF.FileFunction,Copper,L1,Top*
G04 #@! TF.FilePolarity,Positive*
%FSLAX46Y46*%
G04 Gerber Fmt 4.6, Leading zero omitted, Abs format (unit mm)*
G04 Created by KiCad (PCBNEW (5.1.5-0)) date 2021-08-12 18:14:52*
%MOMM*%
%LPD*%
G04 APERTURE LIST*
%ADD10R,1.099820X0.998220*%
%ADD11R,0.600000X0.450000*%
%ADD12R,1.700000X1.700000*%
%ADD13O,1.700000X1.700000*%
%ADD14R,2.200000X1.200000*%
%ADD15R,6.400000X5.800000*%
%ADD16C,0.100000*%
%ADD17R,3.000000X5.000000*%
%ADD18R,5.516000X5.516000*%
%ADD19C,5.516000*%
%ADD20C,0.800000*%
%ADD21C,0.500000*%
%ADD22C,0.254000*%
G04 APERTURE END LIST*
D10*
X113203280Y-87500000D03*
X114900000Y-87500000D03*
X128151640Y-87500000D03*
X129848360Y-87500000D03*
X143403280Y-87600000D03*
X145100000Y-87600000D03*
X121651640Y-91495000D03*
X123348360Y-91495000D03*
X136751640Y-91500000D03*
X138448360Y-91500000D03*
X151903280Y-91600000D03*
X153600000Y-91600000D03*
D11*
X119700000Y-87500000D03*
X117600000Y-87500000D03*
X132650000Y-87600000D03*
X134750000Y-87600000D03*
X149700000Y-87500000D03*
X147600000Y-87500000D03*
D12*
X107000000Y-85500000D03*
D13*
X109540000Y-85500000D03*
X107000000Y-88040000D03*
X109540000Y-88040000D03*
X107000000Y-90580000D03*
X109540000Y-90580000D03*
X107000000Y-93120000D03*
X109540000Y-93120000D03*
D14*
X118600000Y-72220000D03*
X118600000Y-76780000D03*
D15*
X124900000Y-74500000D03*
X120700000Y-82200000D03*
D14*
X127000000Y-79920000D03*
X127000000Y-84480000D03*
X132535000Y-72220000D03*
X132535000Y-76780000D03*
D15*
X138835000Y-74500000D03*
X134600000Y-82200000D03*
D14*
X140900000Y-79920000D03*
X140900000Y-84480000D03*
X145900000Y-72220000D03*
X145900000Y-76780000D03*
D15*
X152200000Y-74500000D03*
X147900000Y-82300000D03*
D14*
X154200000Y-80020000D03*
X154200000Y-84580000D03*
G04 #@! TA.AperFunction,SMDPad,CuDef*
D16*
G36*
X123440191Y-89116053D02*
G01*
X123461426Y-89119203D01*
X123482250Y-89124419D01*
X123502462Y-89131651D01*
X123521868Y-89140830D01*
X123540281Y-89151866D01*
X123557524Y-89164654D01*
X123573430Y-89179070D01*
X123587846Y-89194976D01*
X123600634Y-89212219D01*
X123611670Y-89230632D01*
X123620849Y-89250038D01*
X123628081Y-89270250D01*
X123633297Y-89291074D01*
X123636447Y-89312309D01*
X123637500Y-89333750D01*
X123637500Y-89846250D01*
X123636447Y-89867691D01*
X123633297Y-89888926D01*
X123628081Y-89909750D01*
X123620849Y-89929962D01*
X123611670Y-89949368D01*
X123600634Y-89967781D01*
X123587846Y-89985024D01*
X123573430Y-90000930D01*
X123557524Y-90015346D01*
X123540281Y-90028134D01*
X123521868Y-90039170D01*
X123502462Y-90048349D01*
X123482250Y-90055581D01*
X123461426Y-90060797D01*
X123440191Y-90063947D01*
X123418750Y-90065000D01*
X122981250Y-90065000D01*
X122959809Y-90063947D01*
X122938574Y-90060797D01*
X122917750Y-90055581D01*
X122897538Y-90048349D01*
X122878132Y-90039170D01*
X122859719Y-90028134D01*
X122842476Y-90015346D01*
X122826570Y-90000930D01*
X122812154Y-89985024D01*
X122799366Y-89967781D01*
X122788330Y-89949368D01*
X122779151Y-89929962D01*
X122771919Y-89909750D01*
X122766703Y-89888926D01*
X122763553Y-89867691D01*
X122762500Y-89846250D01*
X122762500Y-89333750D01*
X122763553Y-89312309D01*
X122766703Y-89291074D01*
X122771919Y-89270250D01*
X122779151Y-89250038D01*
X122788330Y-89230632D01*
X122799366Y-89212219D01*
X122812154Y-89194976D01*
X122826570Y-89179070D01*
X122842476Y-89164654D01*
X122859719Y-89151866D01*
X122878132Y-89140830D01*
X122897538Y-89131651D01*
X122917750Y-89124419D01*
X122938574Y-89119203D01*
X122959809Y-89116053D01*
X122981250Y-89115000D01*
X123418750Y-89115000D01*
X123440191Y-89116053D01*
G37*
G04 #@! TD.AperFunction*
G04 #@! TA.AperFunction,SMDPad,CuDef*
G36*
X121865191Y-89116053D02*
G01*
X121886426Y-89119203D01*
X121907250Y-89124419D01*
X121927462Y-89131651D01*
X121946868Y-89140830D01*
X121965281Y-89151866D01*
X121982524Y-89164654D01*
X121998430Y-89179070D01*
X122012846Y-89194976D01*
X122025634Y-89212219D01*
X122036670Y-89230632D01*
X122045849Y-89250038D01*
X122053081Y-89270250D01*
X122058297Y-89291074D01*
X122061447Y-89312309D01*
X122062500Y-89333750D01*
X122062500Y-89846250D01*
X122061447Y-89867691D01*
X122058297Y-89888926D01*
X122053081Y-89909750D01*
X122045849Y-89929962D01*
X122036670Y-89949368D01*
X122025634Y-89967781D01*
X122012846Y-89985024D01*
X121998430Y-90000930D01*
X121982524Y-90015346D01*
X121965281Y-90028134D01*
X121946868Y-90039170D01*
X121927462Y-90048349D01*
X121907250Y-90055581D01*
X121886426Y-90060797D01*
X121865191Y-90063947D01*
X121843750Y-90065000D01*
X121406250Y-90065000D01*
X121384809Y-90063947D01*
X121363574Y-90060797D01*
X121342750Y-90055581D01*
X121322538Y-90048349D01*
X121303132Y-90039170D01*
X121284719Y-90028134D01*
X121267476Y-90015346D01*
X121251570Y-90000930D01*
X121237154Y-89985024D01*
X121224366Y-89967781D01*
X121213330Y-89949368D01*
X121204151Y-89929962D01*
X121196919Y-89909750D01*
X121191703Y-89888926D01*
X121188553Y-89867691D01*
X121187500Y-89846250D01*
X121187500Y-89333750D01*
X121188553Y-89312309D01*
X121191703Y-89291074D01*
X121196919Y-89270250D01*
X121204151Y-89250038D01*
X121213330Y-89230632D01*
X121224366Y-89212219D01*
X121237154Y-89194976D01*
X121251570Y-89179070D01*
X121267476Y-89164654D01*
X121284719Y-89151866D01*
X121303132Y-89140830D01*
X121322538Y-89131651D01*
X121342750Y-89124419D01*
X121363574Y-89119203D01*
X121384809Y-89116053D01*
X121406250Y-89115000D01*
X121843750Y-89115000D01*
X121865191Y-89116053D01*
G37*
G04 #@! TD.AperFunction*
G04 #@! TA.AperFunction,SMDPad,CuDef*
G36*
X121952691Y-92926053D02*
G01*
X121973926Y-92929203D01*
X121994750Y-92934419D01*
X122014962Y-92941651D01*
X122034368Y-92950830D01*
X122052781Y-92961866D01*
X122070024Y-92974654D01*
X122085930Y-92989070D01*
X122100346Y-93004976D01*
X122113134Y-93022219D01*
X122124170Y-93040632D01*
X122133349Y-93060038D01*
X122140581Y-93080250D01*
X122145797Y-93101074D01*
X122148947Y-93122309D01*
X122150000Y-93143750D01*
X122150000Y-93656250D01*
X122148947Y-93677691D01*
X122145797Y-93698926D01*
X122140581Y-93719750D01*
X122133349Y-93739962D01*
X122124170Y-93759368D01*
X122113134Y-93777781D01*
X122100346Y-93795024D01*
X122085930Y-93810930D01*
X122070024Y-93825346D01*
X122052781Y-93838134D01*
X122034368Y-93849170D01*
X122014962Y-93858349D01*
X121994750Y-93865581D01*
X121973926Y-93870797D01*
X121952691Y-93873947D01*
X121931250Y-93875000D01*
X121493750Y-93875000D01*
X121472309Y-93873947D01*
X121451074Y-93870797D01*
X121430250Y-93865581D01*
X121410038Y-93858349D01*
X121390632Y-93849170D01*
X121372219Y-93838134D01*
X121354976Y-93825346D01*
X121339070Y-93810930D01*
X121324654Y-93795024D01*
X121311866Y-93777781D01*
X121300830Y-93759368D01*
X121291651Y-93739962D01*
X121284419Y-93719750D01*
X121279203Y-93698926D01*
X121276053Y-93677691D01*
X121275000Y-93656250D01*
X121275000Y-93143750D01*
X121276053Y-93122309D01*
X121279203Y-93101074D01*
X121284419Y-93080250D01*
X121291651Y-93060038D01*
X121300830Y-93040632D01*
X121311866Y-93022219D01*
X121324654Y-93004976D01*
X121339070Y-92989070D01*
X121354976Y-92974654D01*
X121372219Y-92961866D01*
X121390632Y-92950830D01*
X121410038Y-92941651D01*
X121430250Y-92934419D01*
X121451074Y-92929203D01*
X121472309Y-92926053D01*
X121493750Y-92925000D01*
X121931250Y-92925000D01*
X121952691Y-92926053D01*
G37*
G04 #@! TD.AperFunction*
G04 #@! TA.AperFunction,SMDPad,CuDef*
G36*
X123527691Y-92926053D02*
G01*
X123548926Y-92929203D01*
X123569750Y-92934419D01*
X123589962Y-92941651D01*
X123609368Y-92950830D01*
X123627781Y-92961866D01*
X123645024Y-92974654D01*
X123660930Y-92989070D01*
X123675346Y-93004976D01*
X123688134Y-93022219D01*
X123699170Y-93040632D01*
X123708349Y-93060038D01*
X123715581Y-93080250D01*
X123720797Y-93101074D01*
X123723947Y-93122309D01*
X123725000Y-93143750D01*
X123725000Y-93656250D01*
X123723947Y-93677691D01*
X123720797Y-93698926D01*
X123715581Y-93719750D01*
X123708349Y-93739962D01*
X123699170Y-93759368D01*
X123688134Y-93777781D01*
X123675346Y-93795024D01*
X123660930Y-93810930D01*
X123645024Y-93825346D01*
X123627781Y-93838134D01*
X123609368Y-93849170D01*
X123589962Y-93858349D01*
X123569750Y-93865581D01*
X123548926Y-93870797D01*
X123527691Y-93873947D01*
X123506250Y-93875000D01*
X123068750Y-93875000D01*
X123047309Y-93873947D01*
X123026074Y-93870797D01*
X123005250Y-93865581D01*
X122985038Y-93858349D01*
X122965632Y-93849170D01*
X122947219Y-93838134D01*
X122929976Y-93825346D01*
X122914070Y-93810930D01*
X122899654Y-93795024D01*
X122886866Y-93777781D01*
X122875830Y-93759368D01*
X122866651Y-93739962D01*
X122859419Y-93719750D01*
X122854203Y-93698926D01*
X122851053Y-93677691D01*
X122850000Y-93656250D01*
X122850000Y-93143750D01*
X122851053Y-93122309D01*
X122854203Y-93101074D01*
X122859419Y-93080250D01*
X122866651Y-93060038D01*
X122875830Y-93040632D01*
X122886866Y-93022219D01*
X122899654Y-93004976D01*
X122914070Y-92989070D01*
X122929976Y-92974654D01*
X122947219Y-92961866D01*
X122965632Y-92950830D01*
X122985038Y-92941651D01*
X123005250Y-92934419D01*
X123026074Y-92929203D01*
X123047309Y-92926053D01*
X123068750Y-92925000D01*
X123506250Y-92925000D01*
X123527691Y-92926053D01*
G37*
G04 #@! TD.AperFunction*
G04 #@! TA.AperFunction,SMDPad,CuDef*
G36*
X138440191Y-88926053D02*
G01*
X138461426Y-88929203D01*
X138482250Y-88934419D01*
X138502462Y-88941651D01*
X138521868Y-88950830D01*
X138540281Y-88961866D01*
X138557524Y-88974654D01*
X138573430Y-88989070D01*
X138587846Y-89004976D01*
X138600634Y-89022219D01*
X138611670Y-89040632D01*
X138620849Y-89060038D01*
X138628081Y-89080250D01*
X138633297Y-89101074D01*
X138636447Y-89122309D01*
X138637500Y-89143750D01*
X138637500Y-89656250D01*
X138636447Y-89677691D01*
X138633297Y-89698926D01*
X138628081Y-89719750D01*
X138620849Y-89739962D01*
X138611670Y-89759368D01*
X138600634Y-89777781D01*
X138587846Y-89795024D01*
X138573430Y-89810930D01*
X138557524Y-89825346D01*
X138540281Y-89838134D01*
X138521868Y-89849170D01*
X138502462Y-89858349D01*
X138482250Y-89865581D01*
X138461426Y-89870797D01*
X138440191Y-89873947D01*
X138418750Y-89875000D01*
X137981250Y-89875000D01*
X137959809Y-89873947D01*
X137938574Y-89870797D01*
X137917750Y-89865581D01*
X137897538Y-89858349D01*
X137878132Y-89849170D01*
X137859719Y-89838134D01*
X137842476Y-89825346D01*
X137826570Y-89810930D01*
X137812154Y-89795024D01*
X137799366Y-89777781D01*
X137788330Y-89759368D01*
X137779151Y-89739962D01*
X137771919Y-89719750D01*
X137766703Y-89698926D01*
X137763553Y-89677691D01*
X137762500Y-89656250D01*
X137762500Y-89143750D01*
X137763553Y-89122309D01*
X137766703Y-89101074D01*
X137771919Y-89080250D01*
X137779151Y-89060038D01*
X137788330Y-89040632D01*
X137799366Y-89022219D01*
X137812154Y-89004976D01*
X137826570Y-88989070D01*
X137842476Y-88974654D01*
X137859719Y-88961866D01*
X137878132Y-88950830D01*
X137897538Y-88941651D01*
X137917750Y-88934419D01*
X137938574Y-88929203D01*
X137959809Y-88926053D01*
X137981250Y-88925000D01*
X138418750Y-88925000D01*
X138440191Y-88926053D01*
G37*
G04 #@! TD.AperFunction*
G04 #@! TA.AperFunction,SMDPad,CuDef*
G36*
X136865191Y-88926053D02*
G01*
X136886426Y-88929203D01*
X136907250Y-88934419D01*
X136927462Y-88941651D01*
X136946868Y-88950830D01*
X136965281Y-88961866D01*
X136982524Y-88974654D01*
X136998430Y-88989070D01*
X137012846Y-89004976D01*
X137025634Y-89022219D01*
X137036670Y-89040632D01*
X137045849Y-89060038D01*
X137053081Y-89080250D01*
X137058297Y-89101074D01*
X137061447Y-89122309D01*
X137062500Y-89143750D01*
X137062500Y-89656250D01*
X137061447Y-89677691D01*
X137058297Y-89698926D01*
X137053081Y-89719750D01*
X137045849Y-89739962D01*
X137036670Y-89759368D01*
X137025634Y-89777781D01*
X137012846Y-89795024D01*
X136998430Y-89810930D01*
X136982524Y-89825346D01*
X136965281Y-89838134D01*
X136946868Y-89849170D01*
X136927462Y-89858349D01*
X136907250Y-89865581D01*
X136886426Y-89870797D01*
X136865191Y-89873947D01*
X136843750Y-89875000D01*
X136406250Y-89875000D01*
X136384809Y-89873947D01*
X136363574Y-89870797D01*
X136342750Y-89865581D01*
X136322538Y-89858349D01*
X136303132Y-89849170D01*
X136284719Y-89838134D01*
X136267476Y-89825346D01*
X136251570Y-89810930D01*
X136237154Y-89795024D01*
X136224366Y-89777781D01*
X136213330Y-89759368D01*
X136204151Y-89739962D01*
X136196919Y-89719750D01*
X136191703Y-89698926D01*
X136188553Y-89677691D01*
X136187500Y-89656250D01*
X136187500Y-89143750D01*
X136188553Y-89122309D01*
X136191703Y-89101074D01*
X136196919Y-89080250D01*
X136204151Y-89060038D01*
X136213330Y-89040632D01*
X136224366Y-89022219D01*
X136237154Y-89004976D01*
X136251570Y-88989070D01*
X136267476Y-88974654D01*
X136284719Y-88961866D01*
X136303132Y-88950830D01*
X136322538Y-88941651D01*
X136342750Y-88934419D01*
X136363574Y-88929203D01*
X136384809Y-88926053D01*
X136406250Y-88925000D01*
X136843750Y-88925000D01*
X136865191Y-88926053D01*
G37*
G04 #@! TD.AperFunction*
G04 #@! TA.AperFunction,SMDPad,CuDef*
G36*
X136940191Y-93026053D02*
G01*
X136961426Y-93029203D01*
X136982250Y-93034419D01*
X137002462Y-93041651D01*
X137021868Y-93050830D01*
X137040281Y-93061866D01*
X137057524Y-93074654D01*
X137073430Y-93089070D01*
X137087846Y-93104976D01*
X137100634Y-93122219D01*
X137111670Y-93140632D01*
X137120849Y-93160038D01*
X137128081Y-93180250D01*
X137133297Y-93201074D01*
X137136447Y-93222309D01*
X137137500Y-93243750D01*
X137137500Y-93756250D01*
X137136447Y-93777691D01*
X137133297Y-93798926D01*
X137128081Y-93819750D01*
X137120849Y-93839962D01*
X137111670Y-93859368D01*
X137100634Y-93877781D01*
X137087846Y-93895024D01*
X137073430Y-93910930D01*
X137057524Y-93925346D01*
X137040281Y-93938134D01*
X137021868Y-93949170D01*
X137002462Y-93958349D01*
X136982250Y-93965581D01*
X136961426Y-93970797D01*
X136940191Y-93973947D01*
X136918750Y-93975000D01*
X136481250Y-93975000D01*
X136459809Y-93973947D01*
X136438574Y-93970797D01*
X136417750Y-93965581D01*
X136397538Y-93958349D01*
X136378132Y-93949170D01*
X136359719Y-93938134D01*
X136342476Y-93925346D01*
X136326570Y-93910930D01*
X136312154Y-93895024D01*
X136299366Y-93877781D01*
X136288330Y-93859368D01*
X136279151Y-93839962D01*
X136271919Y-93819750D01*
X136266703Y-93798926D01*
X136263553Y-93777691D01*
X136262500Y-93756250D01*
X136262500Y-93243750D01*
X136263553Y-93222309D01*
X136266703Y-93201074D01*
X136271919Y-93180250D01*
X136279151Y-93160038D01*
X136288330Y-93140632D01*
X136299366Y-93122219D01*
X136312154Y-93104976D01*
X136326570Y-93089070D01*
X136342476Y-93074654D01*
X136359719Y-93061866D01*
X136378132Y-93050830D01*
X136397538Y-93041651D01*
X136417750Y-93034419D01*
X136438574Y-93029203D01*
X136459809Y-93026053D01*
X136481250Y-93025000D01*
X136918750Y-93025000D01*
X136940191Y-93026053D01*
G37*
G04 #@! TD.AperFunction*
G04 #@! TA.AperFunction,SMDPad,CuDef*
G36*
X138515191Y-93026053D02*
G01*
X138536426Y-93029203D01*
X138557250Y-93034419D01*
X138577462Y-93041651D01*
X138596868Y-93050830D01*
X138615281Y-93061866D01*
X138632524Y-93074654D01*
X138648430Y-93089070D01*
X138662846Y-93104976D01*
X138675634Y-93122219D01*
X138686670Y-93140632D01*
X138695849Y-93160038D01*
X138703081Y-93180250D01*
X138708297Y-93201074D01*
X138711447Y-93222309D01*
X138712500Y-93243750D01*
X138712500Y-93756250D01*
X138711447Y-93777691D01*
X138708297Y-93798926D01*
X138703081Y-93819750D01*
X138695849Y-93839962D01*
X138686670Y-93859368D01*
X138675634Y-93877781D01*
X138662846Y-93895024D01*
X138648430Y-93910930D01*
X138632524Y-93925346D01*
X138615281Y-93938134D01*
X138596868Y-93949170D01*
X138577462Y-93958349D01*
X138557250Y-93965581D01*
X138536426Y-93970797D01*
X138515191Y-93973947D01*
X138493750Y-93975000D01*
X138056250Y-93975000D01*
X138034809Y-93973947D01*
X138013574Y-93970797D01*
X137992750Y-93965581D01*
X137972538Y-93958349D01*
X137953132Y-93949170D01*
X137934719Y-93938134D01*
X137917476Y-93925346D01*
X137901570Y-93910930D01*
X137887154Y-93895024D01*
X137874366Y-93877781D01*
X137863330Y-93859368D01*
X137854151Y-93839962D01*
X137846919Y-93819750D01*
X137841703Y-93798926D01*
X137838553Y-93777691D01*
X137837500Y-93756250D01*
X137837500Y-93243750D01*
X137838553Y-93222309D01*
X137841703Y-93201074D01*
X137846919Y-93180250D01*
X137854151Y-93160038D01*
X137863330Y-93140632D01*
X137874366Y-93122219D01*
X137887154Y-93104976D01*
X137901570Y-93089070D01*
X137917476Y-93074654D01*
X137934719Y-93061866D01*
X137953132Y-93050830D01*
X137972538Y-93041651D01*
X137992750Y-93034419D01*
X138013574Y-93029203D01*
X138034809Y-93026053D01*
X138056250Y-93025000D01*
X138493750Y-93025000D01*
X138515191Y-93026053D01*
G37*
G04 #@! TD.AperFunction*
G04 #@! TA.AperFunction,SMDPad,CuDef*
G36*
X153727691Y-89126053D02*
G01*
X153748926Y-89129203D01*
X153769750Y-89134419D01*
X153789962Y-89141651D01*
X153809368Y-89150830D01*
X153827781Y-89161866D01*
X153845024Y-89174654D01*
X153860930Y-89189070D01*
X153875346Y-89204976D01*
X153888134Y-89222219D01*
X153899170Y-89240632D01*
X153908349Y-89260038D01*
X153915581Y-89280250D01*
X153920797Y-89301074D01*
X153923947Y-89322309D01*
X153925000Y-89343750D01*
X153925000Y-89856250D01*
X153923947Y-89877691D01*
X153920797Y-89898926D01*
X153915581Y-89919750D01*
X153908349Y-89939962D01*
X153899170Y-89959368D01*
X153888134Y-89977781D01*
X153875346Y-89995024D01*
X153860930Y-90010930D01*
X153845024Y-90025346D01*
X153827781Y-90038134D01*
X153809368Y-90049170D01*
X153789962Y-90058349D01*
X153769750Y-90065581D01*
X153748926Y-90070797D01*
X153727691Y-90073947D01*
X153706250Y-90075000D01*
X153268750Y-90075000D01*
X153247309Y-90073947D01*
X153226074Y-90070797D01*
X153205250Y-90065581D01*
X153185038Y-90058349D01*
X153165632Y-90049170D01*
X153147219Y-90038134D01*
X153129976Y-90025346D01*
X153114070Y-90010930D01*
X153099654Y-89995024D01*
X153086866Y-89977781D01*
X153075830Y-89959368D01*
X153066651Y-89939962D01*
X153059419Y-89919750D01*
X153054203Y-89898926D01*
X153051053Y-89877691D01*
X153050000Y-89856250D01*
X153050000Y-89343750D01*
X153051053Y-89322309D01*
X153054203Y-89301074D01*
X153059419Y-89280250D01*
X153066651Y-89260038D01*
X153075830Y-89240632D01*
X153086866Y-89222219D01*
X153099654Y-89204976D01*
X153114070Y-89189070D01*
X153129976Y-89174654D01*
X153147219Y-89161866D01*
X153165632Y-89150830D01*
X153185038Y-89141651D01*
X153205250Y-89134419D01*
X153226074Y-89129203D01*
X153247309Y-89126053D01*
X153268750Y-89125000D01*
X153706250Y-89125000D01*
X153727691Y-89126053D01*
G37*
G04 #@! TD.AperFunction*
G04 #@! TA.AperFunction,SMDPad,CuDef*
G36*
X152152691Y-89126053D02*
G01*
X152173926Y-89129203D01*
X152194750Y-89134419D01*
X152214962Y-89141651D01*
X152234368Y-89150830D01*
X152252781Y-89161866D01*
X152270024Y-89174654D01*
X152285930Y-89189070D01*
X152300346Y-89204976D01*
X152313134Y-89222219D01*
X152324170Y-89240632D01*
X152333349Y-89260038D01*
X152340581Y-89280250D01*
X152345797Y-89301074D01*
X152348947Y-89322309D01*
X152350000Y-89343750D01*
X152350000Y-89856250D01*
X152348947Y-89877691D01*
X152345797Y-89898926D01*
X152340581Y-89919750D01*
X152333349Y-89939962D01*
X152324170Y-89959368D01*
X152313134Y-89977781D01*
X152300346Y-89995024D01*
X152285930Y-90010930D01*
X152270024Y-90025346D01*
X152252781Y-90038134D01*
X152234368Y-90049170D01*
X152214962Y-90058349D01*
X152194750Y-90065581D01*
X152173926Y-90070797D01*
X152152691Y-90073947D01*
X152131250Y-90075000D01*
X151693750Y-90075000D01*
X151672309Y-90073947D01*
X151651074Y-90070797D01*
X151630250Y-90065581D01*
X151610038Y-90058349D01*
X151590632Y-90049170D01*
X151572219Y-90038134D01*
X151554976Y-90025346D01*
X151539070Y-90010930D01*
X151524654Y-89995024D01*
X151511866Y-89977781D01*
X151500830Y-89959368D01*
X151491651Y-89939962D01*
X151484419Y-89919750D01*
X151479203Y-89898926D01*
X151476053Y-89877691D01*
X151475000Y-89856250D01*
X151475000Y-89343750D01*
X151476053Y-89322309D01*
X151479203Y-89301074D01*
X151484419Y-89280250D01*
X151491651Y-89260038D01*
X151500830Y-89240632D01*
X151511866Y-89222219D01*
X151524654Y-89204976D01*
X151539070Y-89189070D01*
X151554976Y-89174654D01*
X151572219Y-89161866D01*
X151590632Y-89150830D01*
X151610038Y-89141651D01*
X151630250Y-89134419D01*
X151651074Y-89129203D01*
X151672309Y-89126053D01*
X151693750Y-89125000D01*
X152131250Y-89125000D01*
X152152691Y-89126053D01*
G37*
G04 #@! TD.AperFunction*
G04 #@! TA.AperFunction,SMDPad,CuDef*
G36*
X152152691Y-93126053D02*
G01*
X152173926Y-93129203D01*
X152194750Y-93134419D01*
X152214962Y-93141651D01*
X152234368Y-93150830D01*
X152252781Y-93161866D01*
X152270024Y-93174654D01*
X152285930Y-93189070D01*
X152300346Y-93204976D01*
X152313134Y-93222219D01*
X152324170Y-93240632D01*
X152333349Y-93260038D01*
X152340581Y-93280250D01*
X152345797Y-93301074D01*
X152348947Y-93322309D01*
X152350000Y-93343750D01*
X152350000Y-93856250D01*
X152348947Y-93877691D01*
X152345797Y-93898926D01*
X152340581Y-93919750D01*
X152333349Y-93939962D01*
X152324170Y-93959368D01*
X152313134Y-93977781D01*
X152300346Y-93995024D01*
X152285930Y-94010930D01*
X152270024Y-94025346D01*
X152252781Y-94038134D01*
X152234368Y-94049170D01*
X152214962Y-94058349D01*
X152194750Y-94065581D01*
X152173926Y-94070797D01*
X152152691Y-94073947D01*
X152131250Y-94075000D01*
X151693750Y-94075000D01*
X151672309Y-94073947D01*
X151651074Y-94070797D01*
X151630250Y-94065581D01*
X151610038Y-94058349D01*
X151590632Y-94049170D01*
X151572219Y-94038134D01*
X151554976Y-94025346D01*
X151539070Y-94010930D01*
X151524654Y-93995024D01*
X151511866Y-93977781D01*
X151500830Y-93959368D01*
X151491651Y-93939962D01*
X151484419Y-93919750D01*
X151479203Y-93898926D01*
X151476053Y-93877691D01*
X151475000Y-93856250D01*
X151475000Y-93343750D01*
X151476053Y-93322309D01*
X151479203Y-93301074D01*
X151484419Y-93280250D01*
X151491651Y-93260038D01*
X151500830Y-93240632D01*
X151511866Y-93222219D01*
X151524654Y-93204976D01*
X151539070Y-93189070D01*
X151554976Y-93174654D01*
X151572219Y-93161866D01*
X151590632Y-93150830D01*
X151610038Y-93141651D01*
X151630250Y-93134419D01*
X151651074Y-93129203D01*
X151672309Y-93126053D01*
X151693750Y-93125000D01*
X152131250Y-93125000D01*
X152152691Y-93126053D01*
G37*
G04 #@! TD.AperFunction*
G04 #@! TA.AperFunction,SMDPad,CuDef*
G36*
X153727691Y-93126053D02*
G01*
X153748926Y-93129203D01*
X153769750Y-93134419D01*
X153789962Y-93141651D01*
X153809368Y-93150830D01*
X153827781Y-93161866D01*
X153845024Y-93174654D01*
X153860930Y-93189070D01*
X153875346Y-93204976D01*
X153888134Y-93222219D01*
X153899170Y-93240632D01*
X153908349Y-93260038D01*
X153915581Y-93280250D01*
X153920797Y-93301074D01*
X153923947Y-93322309D01*
X153925000Y-93343750D01*
X153925000Y-93856250D01*
X153923947Y-93877691D01*
X153920797Y-93898926D01*
X153915581Y-93919750D01*
X153908349Y-93939962D01*
X153899170Y-93959368D01*
X153888134Y-93977781D01*
X153875346Y-93995024D01*
X153860930Y-94010930D01*
X153845024Y-94025346D01*
X153827781Y-94038134D01*
X153809368Y-94049170D01*
X153789962Y-94058349D01*
X153769750Y-94065581D01*
X153748926Y-94070797D01*
X153727691Y-94073947D01*
X153706250Y-94075000D01*
X153268750Y-94075000D01*
X153247309Y-94073947D01*
X153226074Y-94070797D01*
X153205250Y-94065581D01*
X153185038Y-94058349D01*
X153165632Y-94049170D01*
X153147219Y-94038134D01*
X153129976Y-94025346D01*
X153114070Y-94010930D01*
X153099654Y-93995024D01*
X153086866Y-93977781D01*
X153075830Y-93959368D01*
X153066651Y-93939962D01*
X153059419Y-93919750D01*
X153054203Y-93898926D01*
X153051053Y-93877691D01*
X153050000Y-93856250D01*
X153050000Y-93343750D01*
X153051053Y-93322309D01*
X153054203Y-93301074D01*
X153059419Y-93280250D01*
X153066651Y-93260038D01*
X153075830Y-93240632D01*
X153086866Y-93222219D01*
X153099654Y-93204976D01*
X153114070Y-93189070D01*
X153129976Y-93174654D01*
X153147219Y-93161866D01*
X153165632Y-93150830D01*
X153185038Y-93141651D01*
X153205250Y-93134419D01*
X153226074Y-93129203D01*
X153247309Y-93126053D01*
X153268750Y-93125000D01*
X153706250Y-93125000D01*
X153727691Y-93126053D01*
G37*
G04 #@! TD.AperFunction*
G04 #@! TA.AperFunction,SMDPad,CuDef*
G36*
X114514703Y-89290722D02*
G01*
X114529264Y-89292882D01*
X114543543Y-89296459D01*
X114557403Y-89301418D01*
X114570710Y-89307712D01*
X114583336Y-89315280D01*
X114595159Y-89324048D01*
X114606066Y-89333934D01*
X114615952Y-89344841D01*
X114624720Y-89356664D01*
X114632288Y-89369290D01*
X114638582Y-89382597D01*
X114643541Y-89396457D01*
X114647118Y-89410736D01*
X114649278Y-89425297D01*
X114650000Y-89440000D01*
X114650000Y-89740000D01*
X114649278Y-89754703D01*
X114647118Y-89769264D01*
X114643541Y-89783543D01*
X114638582Y-89797403D01*
X114632288Y-89810710D01*
X114624720Y-89823336D01*
X114615952Y-89835159D01*
X114606066Y-89846066D01*
X114595159Y-89855952D01*
X114583336Y-89864720D01*
X114570710Y-89872288D01*
X114557403Y-89878582D01*
X114543543Y-89883541D01*
X114529264Y-89887118D01*
X114514703Y-89889278D01*
X114500000Y-89890000D01*
X112850000Y-89890000D01*
X112835297Y-89889278D01*
X112820736Y-89887118D01*
X112806457Y-89883541D01*
X112792597Y-89878582D01*
X112779290Y-89872288D01*
X112766664Y-89864720D01*
X112754841Y-89855952D01*
X112743934Y-89846066D01*
X112734048Y-89835159D01*
X112725280Y-89823336D01*
X112717712Y-89810710D01*
X112711418Y-89797403D01*
X112706459Y-89783543D01*
X112702882Y-89769264D01*
X112700722Y-89754703D01*
X112700000Y-89740000D01*
X112700000Y-89440000D01*
X112700722Y-89425297D01*
X112702882Y-89410736D01*
X112706459Y-89396457D01*
X112711418Y-89382597D01*
X112717712Y-89369290D01*
X112725280Y-89356664D01*
X112734048Y-89344841D01*
X112743934Y-89333934D01*
X112754841Y-89324048D01*
X112766664Y-89315280D01*
X112779290Y-89307712D01*
X112792597Y-89301418D01*
X112806457Y-89296459D01*
X112820736Y-89292882D01*
X112835297Y-89290722D01*
X112850000Y-89290000D01*
X114500000Y-89290000D01*
X114514703Y-89290722D01*
G37*
G04 #@! TD.AperFunction*
G04 #@! TA.AperFunction,SMDPad,CuDef*
G36*
X114514703Y-90560722D02*
G01*
X114529264Y-90562882D01*
X114543543Y-90566459D01*
X114557403Y-90571418D01*
X114570710Y-90577712D01*
X114583336Y-90585280D01*
X114595159Y-90594048D01*
X114606066Y-90603934D01*
X114615952Y-90614841D01*
X114624720Y-90626664D01*
X114632288Y-90639290D01*
X114638582Y-90652597D01*
X114643541Y-90666457D01*
X114647118Y-90680736D01*
X114649278Y-90695297D01*
X114650000Y-90710000D01*
X114650000Y-91010000D01*
X114649278Y-91024703D01*
X114647118Y-91039264D01*
X114643541Y-91053543D01*
X114638582Y-91067403D01*
X114632288Y-91080710D01*
X114624720Y-91093336D01*
X114615952Y-91105159D01*
X114606066Y-91116066D01*
X114595159Y-91125952D01*
X114583336Y-91134720D01*
X114570710Y-91142288D01*
X114557403Y-91148582D01*
X114543543Y-91153541D01*
X114529264Y-91157118D01*
X114514703Y-91159278D01*
X114500000Y-91160000D01*
X112850000Y-91160000D01*
X112835297Y-91159278D01*
X112820736Y-91157118D01*
X112806457Y-91153541D01*
X112792597Y-91148582D01*
X112779290Y-91142288D01*
X112766664Y-91134720D01*
X112754841Y-91125952D01*
X112743934Y-91116066D01*
X112734048Y-91105159D01*
X112725280Y-91093336D01*
X112717712Y-91080710D01*
X112711418Y-91067403D01*
X112706459Y-91053543D01*
X112702882Y-91039264D01*
X112700722Y-91024703D01*
X112700000Y-91010000D01*
X112700000Y-90710000D01*
X112700722Y-90695297D01*
X112702882Y-90680736D01*
X112706459Y-90666457D01*
X112711418Y-90652597D01*
X112717712Y-90639290D01*
X112725280Y-90626664D01*
X112734048Y-90614841D01*
X112743934Y-90603934D01*
X112754841Y-90594048D01*
X112766664Y-90585280D01*
X112779290Y-90577712D01*
X112792597Y-90571418D01*
X112806457Y-90566459D01*
X112820736Y-90562882D01*
X112835297Y-90560722D01*
X112850000Y-90560000D01*
X114500000Y-90560000D01*
X114514703Y-90560722D01*
G37*
G04 #@! TD.AperFunction*
G04 #@! TA.AperFunction,SMDPad,CuDef*
G36*
X114514703Y-91830722D02*
G01*
X114529264Y-91832882D01*
X114543543Y-91836459D01*
X114557403Y-91841418D01*
X114570710Y-91847712D01*
X114583336Y-91855280D01*
X114595159Y-91864048D01*
X114606066Y-91873934D01*
X114615952Y-91884841D01*
X114624720Y-91896664D01*
X114632288Y-91909290D01*
X114638582Y-91922597D01*
X114643541Y-91936457D01*
X114647118Y-91950736D01*
X114649278Y-91965297D01*
X114650000Y-91980000D01*
X114650000Y-92280000D01*
X114649278Y-92294703D01*
X114647118Y-92309264D01*
X114643541Y-92323543D01*
X114638582Y-92337403D01*
X114632288Y-92350710D01*
X114624720Y-92363336D01*
X114615952Y-92375159D01*
X114606066Y-92386066D01*
X114595159Y-92395952D01*
X114583336Y-92404720D01*
X114570710Y-92412288D01*
X114557403Y-92418582D01*
X114543543Y-92423541D01*
X114529264Y-92427118D01*
X114514703Y-92429278D01*
X114500000Y-92430000D01*
X112850000Y-92430000D01*
X112835297Y-92429278D01*
X112820736Y-92427118D01*
X112806457Y-92423541D01*
X112792597Y-92418582D01*
X112779290Y-92412288D01*
X112766664Y-92404720D01*
X112754841Y-92395952D01*
X112743934Y-92386066D01*
X112734048Y-92375159D01*
X112725280Y-92363336D01*
X112717712Y-92350710D01*
X112711418Y-92337403D01*
X112706459Y-92323543D01*
X112702882Y-92309264D01*
X112700722Y-92294703D01*
X112700000Y-92280000D01*
X112700000Y-91980000D01*
X112700722Y-91965297D01*
X112702882Y-91950736D01*
X112706459Y-91936457D01*
X112711418Y-91922597D01*
X112717712Y-91909290D01*
X112725280Y-91896664D01*
X112734048Y-91884841D01*
X112743934Y-91873934D01*
X112754841Y-91864048D01*
X112766664Y-91855280D01*
X112779290Y-91847712D01*
X112792597Y-91841418D01*
X112806457Y-91836459D01*
X112820736Y-91832882D01*
X112835297Y-91830722D01*
X112850000Y-91830000D01*
X114500000Y-91830000D01*
X114514703Y-91830722D01*
G37*
G04 #@! TD.AperFunction*
G04 #@! TA.AperFunction,SMDPad,CuDef*
G36*
X114514703Y-93100722D02*
G01*
X114529264Y-93102882D01*
X114543543Y-93106459D01*
X114557403Y-93111418D01*
X114570710Y-93117712D01*
X114583336Y-93125280D01*
X114595159Y-93134048D01*
X114606066Y-93143934D01*
X114615952Y-93154841D01*
X114624720Y-93166664D01*
X114632288Y-93179290D01*
X114638582Y-93192597D01*
X114643541Y-93206457D01*
X114647118Y-93220736D01*
X114649278Y-93235297D01*
X114650000Y-93250000D01*
X114650000Y-93550000D01*
X114649278Y-93564703D01*
X114647118Y-93579264D01*
X114643541Y-93593543D01*
X114638582Y-93607403D01*
X114632288Y-93620710D01*
X114624720Y-93633336D01*
X114615952Y-93645159D01*
X114606066Y-93656066D01*
X114595159Y-93665952D01*
X114583336Y-93674720D01*
X114570710Y-93682288D01*
X114557403Y-93688582D01*
X114543543Y-93693541D01*
X114529264Y-93697118D01*
X114514703Y-93699278D01*
X114500000Y-93700000D01*
X112850000Y-93700000D01*
X112835297Y-93699278D01*
X112820736Y-93697118D01*
X112806457Y-93693541D01*
X112792597Y-93688582D01*
X112779290Y-93682288D01*
X112766664Y-93674720D01*
X112754841Y-93665952D01*
X112743934Y-93656066D01*
X112734048Y-93645159D01*
X112725280Y-93633336D01*
X112717712Y-93620710D01*
X112711418Y-93607403D01*
X112706459Y-93593543D01*
X112702882Y-93579264D01*
X112700722Y-93564703D01*
X112700000Y-93550000D01*
X112700000Y-93250000D01*
X112700722Y-93235297D01*
X112702882Y-93220736D01*
X112706459Y-93206457D01*
X112711418Y-93192597D01*
X112717712Y-93179290D01*
X112725280Y-93166664D01*
X112734048Y-93154841D01*
X112743934Y-93143934D01*
X112754841Y-93134048D01*
X112766664Y-93125280D01*
X112779290Y-93117712D01*
X112792597Y-93111418D01*
X112806457Y-93106459D01*
X112820736Y-93102882D01*
X112835297Y-93100722D01*
X112850000Y-93100000D01*
X114500000Y-93100000D01*
X114514703Y-93100722D01*
G37*
G04 #@! TD.AperFunction*
G04 #@! TA.AperFunction,SMDPad,CuDef*
G36*
X119464703Y-93100722D02*
G01*
X119479264Y-93102882D01*
X119493543Y-93106459D01*
X119507403Y-93111418D01*
X119520710Y-93117712D01*
X119533336Y-93125280D01*
X119545159Y-93134048D01*
X119556066Y-93143934D01*
X119565952Y-93154841D01*
X119574720Y-93166664D01*
X119582288Y-93179290D01*
X119588582Y-93192597D01*
X119593541Y-93206457D01*
X119597118Y-93220736D01*
X119599278Y-93235297D01*
X119600000Y-93250000D01*
X119600000Y-93550000D01*
X119599278Y-93564703D01*
X119597118Y-93579264D01*
X119593541Y-93593543D01*
X119588582Y-93607403D01*
X119582288Y-93620710D01*
X119574720Y-93633336D01*
X119565952Y-93645159D01*
X119556066Y-93656066D01*
X119545159Y-93665952D01*
X119533336Y-93674720D01*
X119520710Y-93682288D01*
X119507403Y-93688582D01*
X119493543Y-93693541D01*
X119479264Y-93697118D01*
X119464703Y-93699278D01*
X119450000Y-93700000D01*
X117800000Y-93700000D01*
X117785297Y-93699278D01*
X117770736Y-93697118D01*
X117756457Y-93693541D01*
X117742597Y-93688582D01*
X117729290Y-93682288D01*
X117716664Y-93674720D01*
X117704841Y-93665952D01*
X117693934Y-93656066D01*
X117684048Y-93645159D01*
X117675280Y-93633336D01*
X117667712Y-93620710D01*
X117661418Y-93607403D01*
X117656459Y-93593543D01*
X117652882Y-93579264D01*
X117650722Y-93564703D01*
X117650000Y-93550000D01*
X117650000Y-93250000D01*
X117650722Y-93235297D01*
X117652882Y-93220736D01*
X117656459Y-93206457D01*
X117661418Y-93192597D01*
X117667712Y-93179290D01*
X117675280Y-93166664D01*
X117684048Y-93154841D01*
X117693934Y-93143934D01*
X117704841Y-93134048D01*
X117716664Y-93125280D01*
X117729290Y-93117712D01*
X117742597Y-93111418D01*
X117756457Y-93106459D01*
X117770736Y-93102882D01*
X117785297Y-93100722D01*
X117800000Y-93100000D01*
X119450000Y-93100000D01*
X119464703Y-93100722D01*
G37*
G04 #@! TD.AperFunction*
G04 #@! TA.AperFunction,SMDPad,CuDef*
G36*
X119464703Y-91830722D02*
G01*
X119479264Y-91832882D01*
X119493543Y-91836459D01*
X119507403Y-91841418D01*
X119520710Y-91847712D01*
X119533336Y-91855280D01*
X119545159Y-91864048D01*
X119556066Y-91873934D01*
X119565952Y-91884841D01*
X119574720Y-91896664D01*
X119582288Y-91909290D01*
X119588582Y-91922597D01*
X119593541Y-91936457D01*
X119597118Y-91950736D01*
X119599278Y-91965297D01*
X119600000Y-91980000D01*
X119600000Y-92280000D01*
X119599278Y-92294703D01*
X119597118Y-92309264D01*
X119593541Y-92323543D01*
X119588582Y-92337403D01*
X119582288Y-92350710D01*
X119574720Y-92363336D01*
X119565952Y-92375159D01*
X119556066Y-92386066D01*
X119545159Y-92395952D01*
X119533336Y-92404720D01*
X119520710Y-92412288D01*
X119507403Y-92418582D01*
X119493543Y-92423541D01*
X119479264Y-92427118D01*
X119464703Y-92429278D01*
X119450000Y-92430000D01*
X117800000Y-92430000D01*
X117785297Y-92429278D01*
X117770736Y-92427118D01*
X117756457Y-92423541D01*
X117742597Y-92418582D01*
X117729290Y-92412288D01*
X117716664Y-92404720D01*
X117704841Y-92395952D01*
X117693934Y-92386066D01*
X117684048Y-92375159D01*
X117675280Y-92363336D01*
X117667712Y-92350710D01*
X117661418Y-92337403D01*
X117656459Y-92323543D01*
X117652882Y-92309264D01*
X117650722Y-92294703D01*
X117650000Y-92280000D01*
X117650000Y-91980000D01*
X117650722Y-91965297D01*
X117652882Y-91950736D01*
X117656459Y-91936457D01*
X117661418Y-91922597D01*
X117667712Y-91909290D01*
X117675280Y-91896664D01*
X117684048Y-91884841D01*
X117693934Y-91873934D01*
X117704841Y-91864048D01*
X117716664Y-91855280D01*
X117729290Y-91847712D01*
X117742597Y-91841418D01*
X117756457Y-91836459D01*
X117770736Y-91832882D01*
X117785297Y-91830722D01*
X117800000Y-91830000D01*
X119450000Y-91830000D01*
X119464703Y-91830722D01*
G37*
G04 #@! TD.AperFunction*
G04 #@! TA.AperFunction,SMDPad,CuDef*
G36*
X119464703Y-90560722D02*
G01*
X119479264Y-90562882D01*
X119493543Y-90566459D01*
X119507403Y-90571418D01*
X119520710Y-90577712D01*
X119533336Y-90585280D01*
X119545159Y-90594048D01*
X119556066Y-90603934D01*
X119565952Y-90614841D01*
X119574720Y-90626664D01*
X119582288Y-90639290D01*
X119588582Y-90652597D01*
X119593541Y-90666457D01*
X119597118Y-90680736D01*
X119599278Y-90695297D01*
X119600000Y-90710000D01*
X119600000Y-91010000D01*
X119599278Y-91024703D01*
X119597118Y-91039264D01*
X119593541Y-91053543D01*
X119588582Y-91067403D01*
X119582288Y-91080710D01*
X119574720Y-91093336D01*
X119565952Y-91105159D01*
X119556066Y-91116066D01*
X119545159Y-91125952D01*
X119533336Y-91134720D01*
X119520710Y-91142288D01*
X119507403Y-91148582D01*
X119493543Y-91153541D01*
X119479264Y-91157118D01*
X119464703Y-91159278D01*
X119450000Y-91160000D01*
X117800000Y-91160000D01*
X117785297Y-91159278D01*
X117770736Y-91157118D01*
X117756457Y-91153541D01*
X117742597Y-91148582D01*
X117729290Y-91142288D01*
X117716664Y-91134720D01*
X117704841Y-91125952D01*
X117693934Y-91116066D01*
X117684048Y-91105159D01*
X117675280Y-91093336D01*
X117667712Y-91080710D01*
X117661418Y-91067403D01*
X117656459Y-91053543D01*
X117652882Y-91039264D01*
X117650722Y-91024703D01*
X117650000Y-91010000D01*
X117650000Y-90710000D01*
X117650722Y-90695297D01*
X117652882Y-90680736D01*
X117656459Y-90666457D01*
X117661418Y-90652597D01*
X117667712Y-90639290D01*
X117675280Y-90626664D01*
X117684048Y-90614841D01*
X117693934Y-90603934D01*
X117704841Y-90594048D01*
X117716664Y-90585280D01*
X117729290Y-90577712D01*
X117742597Y-90571418D01*
X117756457Y-90566459D01*
X117770736Y-90562882D01*
X117785297Y-90560722D01*
X117800000Y-90560000D01*
X119450000Y-90560000D01*
X119464703Y-90560722D01*
G37*
G04 #@! TD.AperFunction*
G04 #@! TA.AperFunction,SMDPad,CuDef*
G36*
X119464703Y-89290722D02*
G01*
X119479264Y-89292882D01*
X119493543Y-89296459D01*
X119507403Y-89301418D01*
X119520710Y-89307712D01*
X119533336Y-89315280D01*
X119545159Y-89324048D01*
X119556066Y-89333934D01*
X119565952Y-89344841D01*
X119574720Y-89356664D01*
X119582288Y-89369290D01*
X119588582Y-89382597D01*
X119593541Y-89396457D01*
X119597118Y-89410736D01*
X119599278Y-89425297D01*
X119600000Y-89440000D01*
X119600000Y-89740000D01*
X119599278Y-89754703D01*
X119597118Y-89769264D01*
X119593541Y-89783543D01*
X119588582Y-89797403D01*
X119582288Y-89810710D01*
X119574720Y-89823336D01*
X119565952Y-89835159D01*
X119556066Y-89846066D01*
X119545159Y-89855952D01*
X119533336Y-89864720D01*
X119520710Y-89872288D01*
X119507403Y-89878582D01*
X119493543Y-89883541D01*
X119479264Y-89887118D01*
X119464703Y-89889278D01*
X119450000Y-89890000D01*
X117800000Y-89890000D01*
X117785297Y-89889278D01*
X117770736Y-89887118D01*
X117756457Y-89883541D01*
X117742597Y-89878582D01*
X117729290Y-89872288D01*
X117716664Y-89864720D01*
X117704841Y-89855952D01*
X117693934Y-89846066D01*
X117684048Y-89835159D01*
X117675280Y-89823336D01*
X117667712Y-89810710D01*
X117661418Y-89797403D01*
X117656459Y-89783543D01*
X117652882Y-89769264D01*
X117650722Y-89754703D01*
X117650000Y-89740000D01*
X117650000Y-89440000D01*
X117650722Y-89425297D01*
X117652882Y-89410736D01*
X117656459Y-89396457D01*
X117661418Y-89382597D01*
X117667712Y-89369290D01*
X117675280Y-89356664D01*
X117684048Y-89344841D01*
X117693934Y-89333934D01*
X117704841Y-89324048D01*
X117716664Y-89315280D01*
X117729290Y-89307712D01*
X117742597Y-89301418D01*
X117756457Y-89296459D01*
X117770736Y-89292882D01*
X117785297Y-89290722D01*
X117800000Y-89290000D01*
X119450000Y-89290000D01*
X119464703Y-89290722D01*
G37*
G04 #@! TD.AperFunction*
G04 #@! TA.AperFunction,SMDPad,CuDef*
G36*
X134414703Y-89395722D02*
G01*
X134429264Y-89397882D01*
X134443543Y-89401459D01*
X134457403Y-89406418D01*
X134470710Y-89412712D01*
X134483336Y-89420280D01*
X134495159Y-89429048D01*
X134506066Y-89438934D01*
X134515952Y-89449841D01*
X134524720Y-89461664D01*
X134532288Y-89474290D01*
X134538582Y-89487597D01*
X134543541Y-89501457D01*
X134547118Y-89515736D01*
X134549278Y-89530297D01*
X134550000Y-89545000D01*
X134550000Y-89845000D01*
X134549278Y-89859703D01*
X134547118Y-89874264D01*
X134543541Y-89888543D01*
X134538582Y-89902403D01*
X134532288Y-89915710D01*
X134524720Y-89928336D01*
X134515952Y-89940159D01*
X134506066Y-89951066D01*
X134495159Y-89960952D01*
X134483336Y-89969720D01*
X134470710Y-89977288D01*
X134457403Y-89983582D01*
X134443543Y-89988541D01*
X134429264Y-89992118D01*
X134414703Y-89994278D01*
X134400000Y-89995000D01*
X132750000Y-89995000D01*
X132735297Y-89994278D01*
X132720736Y-89992118D01*
X132706457Y-89988541D01*
X132692597Y-89983582D01*
X132679290Y-89977288D01*
X132666664Y-89969720D01*
X132654841Y-89960952D01*
X132643934Y-89951066D01*
X132634048Y-89940159D01*
X132625280Y-89928336D01*
X132617712Y-89915710D01*
X132611418Y-89902403D01*
X132606459Y-89888543D01*
X132602882Y-89874264D01*
X132600722Y-89859703D01*
X132600000Y-89845000D01*
X132600000Y-89545000D01*
X132600722Y-89530297D01*
X132602882Y-89515736D01*
X132606459Y-89501457D01*
X132611418Y-89487597D01*
X132617712Y-89474290D01*
X132625280Y-89461664D01*
X132634048Y-89449841D01*
X132643934Y-89438934D01*
X132654841Y-89429048D01*
X132666664Y-89420280D01*
X132679290Y-89412712D01*
X132692597Y-89406418D01*
X132706457Y-89401459D01*
X132720736Y-89397882D01*
X132735297Y-89395722D01*
X132750000Y-89395000D01*
X134400000Y-89395000D01*
X134414703Y-89395722D01*
G37*
G04 #@! TD.AperFunction*
G04 #@! TA.AperFunction,SMDPad,CuDef*
G36*
X134414703Y-90665722D02*
G01*
X134429264Y-90667882D01*
X134443543Y-90671459D01*
X134457403Y-90676418D01*
X134470710Y-90682712D01*
X134483336Y-90690280D01*
X134495159Y-90699048D01*
X134506066Y-90708934D01*
X134515952Y-90719841D01*
X134524720Y-90731664D01*
X134532288Y-90744290D01*
X134538582Y-90757597D01*
X134543541Y-90771457D01*
X134547118Y-90785736D01*
X134549278Y-90800297D01*
X134550000Y-90815000D01*
X134550000Y-91115000D01*
X134549278Y-91129703D01*
X134547118Y-91144264D01*
X134543541Y-91158543D01*
X134538582Y-91172403D01*
X134532288Y-91185710D01*
X134524720Y-91198336D01*
X134515952Y-91210159D01*
X134506066Y-91221066D01*
X134495159Y-91230952D01*
X134483336Y-91239720D01*
X134470710Y-91247288D01*
X134457403Y-91253582D01*
X134443543Y-91258541D01*
X134429264Y-91262118D01*
X134414703Y-91264278D01*
X134400000Y-91265000D01*
X132750000Y-91265000D01*
X132735297Y-91264278D01*
X132720736Y-91262118D01*
X132706457Y-91258541D01*
X132692597Y-91253582D01*
X132679290Y-91247288D01*
X132666664Y-91239720D01*
X132654841Y-91230952D01*
X132643934Y-91221066D01*
X132634048Y-91210159D01*
X132625280Y-91198336D01*
X132617712Y-91185710D01*
X132611418Y-91172403D01*
X132606459Y-91158543D01*
X132602882Y-91144264D01*
X132600722Y-91129703D01*
X132600000Y-91115000D01*
X132600000Y-90815000D01*
X132600722Y-90800297D01*
X132602882Y-90785736D01*
X132606459Y-90771457D01*
X132611418Y-90757597D01*
X132617712Y-90744290D01*
X132625280Y-90731664D01*
X132634048Y-90719841D01*
X132643934Y-90708934D01*
X132654841Y-90699048D01*
X132666664Y-90690280D01*
X132679290Y-90682712D01*
X132692597Y-90676418D01*
X132706457Y-90671459D01*
X132720736Y-90667882D01*
X132735297Y-90665722D01*
X132750000Y-90665000D01*
X134400000Y-90665000D01*
X134414703Y-90665722D01*
G37*
G04 #@! TD.AperFunction*
G04 #@! TA.AperFunction,SMDPad,CuDef*
G36*
X134414703Y-91935722D02*
G01*
X134429264Y-91937882D01*
X134443543Y-91941459D01*
X134457403Y-91946418D01*
X134470710Y-91952712D01*
X134483336Y-91960280D01*
X134495159Y-91969048D01*
X134506066Y-91978934D01*
X134515952Y-91989841D01*
X134524720Y-92001664D01*
X134532288Y-92014290D01*
X134538582Y-92027597D01*
X134543541Y-92041457D01*
X134547118Y-92055736D01*
X134549278Y-92070297D01*
X134550000Y-92085000D01*
X134550000Y-92385000D01*
X134549278Y-92399703D01*
X134547118Y-92414264D01*
X134543541Y-92428543D01*
X134538582Y-92442403D01*
X134532288Y-92455710D01*
X134524720Y-92468336D01*
X134515952Y-92480159D01*
X134506066Y-92491066D01*
X134495159Y-92500952D01*
X134483336Y-92509720D01*
X134470710Y-92517288D01*
X134457403Y-92523582D01*
X134443543Y-92528541D01*
X134429264Y-92532118D01*
X134414703Y-92534278D01*
X134400000Y-92535000D01*
X132750000Y-92535000D01*
X132735297Y-92534278D01*
X132720736Y-92532118D01*
X132706457Y-92528541D01*
X132692597Y-92523582D01*
X132679290Y-92517288D01*
X132666664Y-92509720D01*
X132654841Y-92500952D01*
X132643934Y-92491066D01*
X132634048Y-92480159D01*
X132625280Y-92468336D01*
X132617712Y-92455710D01*
X132611418Y-92442403D01*
X132606459Y-92428543D01*
X132602882Y-92414264D01*
X132600722Y-92399703D01*
X132600000Y-92385000D01*
X132600000Y-92085000D01*
X132600722Y-92070297D01*
X132602882Y-92055736D01*
X132606459Y-92041457D01*
X132611418Y-92027597D01*
X132617712Y-92014290D01*
X132625280Y-92001664D01*
X132634048Y-91989841D01*
X132643934Y-91978934D01*
X132654841Y-91969048D01*
X132666664Y-91960280D01*
X132679290Y-91952712D01*
X132692597Y-91946418D01*
X132706457Y-91941459D01*
X132720736Y-91937882D01*
X132735297Y-91935722D01*
X132750000Y-91935000D01*
X134400000Y-91935000D01*
X134414703Y-91935722D01*
G37*
G04 #@! TD.AperFunction*
G04 #@! TA.AperFunction,SMDPad,CuDef*
G36*
X134414703Y-93205722D02*
G01*
X134429264Y-93207882D01*
X134443543Y-93211459D01*
X134457403Y-93216418D01*
X134470710Y-93222712D01*
X134483336Y-93230280D01*
X134495159Y-93239048D01*
X134506066Y-93248934D01*
X134515952Y-93259841D01*
X134524720Y-93271664D01*
X134532288Y-93284290D01*
X134538582Y-93297597D01*
X134543541Y-93311457D01*
X134547118Y-93325736D01*
X134549278Y-93340297D01*
X134550000Y-93355000D01*
X134550000Y-93655000D01*
X134549278Y-93669703D01*
X134547118Y-93684264D01*
X134543541Y-93698543D01*
X134538582Y-93712403D01*
X134532288Y-93725710D01*
X134524720Y-93738336D01*
X134515952Y-93750159D01*
X134506066Y-93761066D01*
X134495159Y-93770952D01*
X134483336Y-93779720D01*
X134470710Y-93787288D01*
X134457403Y-93793582D01*
X134443543Y-93798541D01*
X134429264Y-93802118D01*
X134414703Y-93804278D01*
X134400000Y-93805000D01*
X132750000Y-93805000D01*
X132735297Y-93804278D01*
X132720736Y-93802118D01*
X132706457Y-93798541D01*
X132692597Y-93793582D01*
X132679290Y-93787288D01*
X132666664Y-93779720D01*
X132654841Y-93770952D01*
X132643934Y-93761066D01*
X132634048Y-93750159D01*
X132625280Y-93738336D01*
X132617712Y-93725710D01*
X132611418Y-93712403D01*
X132606459Y-93698543D01*
X132602882Y-93684264D01*
X132600722Y-93669703D01*
X132600000Y-93655000D01*
X132600000Y-93355000D01*
X132600722Y-93340297D01*
X132602882Y-93325736D01*
X132606459Y-93311457D01*
X132611418Y-93297597D01*
X132617712Y-93284290D01*
X132625280Y-93271664D01*
X132634048Y-93259841D01*
X132643934Y-93248934D01*
X132654841Y-93239048D01*
X132666664Y-93230280D01*
X132679290Y-93222712D01*
X132692597Y-93216418D01*
X132706457Y-93211459D01*
X132720736Y-93207882D01*
X132735297Y-93205722D01*
X132750000Y-93205000D01*
X134400000Y-93205000D01*
X134414703Y-93205722D01*
G37*
G04 #@! TD.AperFunction*
G04 #@! TA.AperFunction,SMDPad,CuDef*
G36*
X129464703Y-93205722D02*
G01*
X129479264Y-93207882D01*
X129493543Y-93211459D01*
X129507403Y-93216418D01*
X129520710Y-93222712D01*
X129533336Y-93230280D01*
X129545159Y-93239048D01*
X129556066Y-93248934D01*
X129565952Y-93259841D01*
X129574720Y-93271664D01*
X129582288Y-93284290D01*
X129588582Y-93297597D01*
X129593541Y-93311457D01*
X129597118Y-93325736D01*
X129599278Y-93340297D01*
X129600000Y-93355000D01*
X129600000Y-93655000D01*
X129599278Y-93669703D01*
X129597118Y-93684264D01*
X129593541Y-93698543D01*
X129588582Y-93712403D01*
X129582288Y-93725710D01*
X129574720Y-93738336D01*
X129565952Y-93750159D01*
X129556066Y-93761066D01*
X129545159Y-93770952D01*
X129533336Y-93779720D01*
X129520710Y-93787288D01*
X129507403Y-93793582D01*
X129493543Y-93798541D01*
X129479264Y-93802118D01*
X129464703Y-93804278D01*
X129450000Y-93805000D01*
X127800000Y-93805000D01*
X127785297Y-93804278D01*
X127770736Y-93802118D01*
X127756457Y-93798541D01*
X127742597Y-93793582D01*
X127729290Y-93787288D01*
X127716664Y-93779720D01*
X127704841Y-93770952D01*
X127693934Y-93761066D01*
X127684048Y-93750159D01*
X127675280Y-93738336D01*
X127667712Y-93725710D01*
X127661418Y-93712403D01*
X127656459Y-93698543D01*
X127652882Y-93684264D01*
X127650722Y-93669703D01*
X127650000Y-93655000D01*
X127650000Y-93355000D01*
X127650722Y-93340297D01*
X127652882Y-93325736D01*
X127656459Y-93311457D01*
X127661418Y-93297597D01*
X127667712Y-93284290D01*
X127675280Y-93271664D01*
X127684048Y-93259841D01*
X127693934Y-93248934D01*
X127704841Y-93239048D01*
X127716664Y-93230280D01*
X127729290Y-93222712D01*
X127742597Y-93216418D01*
X127756457Y-93211459D01*
X127770736Y-93207882D01*
X127785297Y-93205722D01*
X127800000Y-93205000D01*
X129450000Y-93205000D01*
X129464703Y-93205722D01*
G37*
G04 #@! TD.AperFunction*
G04 #@! TA.AperFunction,SMDPad,CuDef*
G36*
X129464703Y-91935722D02*
G01*
X129479264Y-91937882D01*
X129493543Y-91941459D01*
X129507403Y-91946418D01*
X129520710Y-91952712D01*
X129533336Y-91960280D01*
X129545159Y-91969048D01*
X129556066Y-91978934D01*
X129565952Y-91989841D01*
X129574720Y-92001664D01*
X129582288Y-92014290D01*
X129588582Y-92027597D01*
X129593541Y-92041457D01*
X129597118Y-92055736D01*
X129599278Y-92070297D01*
X129600000Y-92085000D01*
X129600000Y-92385000D01*
X129599278Y-92399703D01*
X129597118Y-92414264D01*
X129593541Y-92428543D01*
X129588582Y-92442403D01*
X129582288Y-92455710D01*
X129574720Y-92468336D01*
X129565952Y-92480159D01*
X129556066Y-92491066D01*
X129545159Y-92500952D01*
X129533336Y-92509720D01*
X129520710Y-92517288D01*
X129507403Y-92523582D01*
X129493543Y-92528541D01*
X129479264Y-92532118D01*
X129464703Y-92534278D01*
X129450000Y-92535000D01*
X127800000Y-92535000D01*
X127785297Y-92534278D01*
X127770736Y-92532118D01*
X127756457Y-92528541D01*
X127742597Y-92523582D01*
X127729290Y-92517288D01*
X127716664Y-92509720D01*
X127704841Y-92500952D01*
X127693934Y-92491066D01*
X127684048Y-92480159D01*
X127675280Y-92468336D01*
X127667712Y-92455710D01*
X127661418Y-92442403D01*
X127656459Y-92428543D01*
X127652882Y-92414264D01*
X127650722Y-92399703D01*
X127650000Y-92385000D01*
X127650000Y-92085000D01*
X127650722Y-92070297D01*
X127652882Y-92055736D01*
X127656459Y-92041457D01*
X127661418Y-92027597D01*
X127667712Y-92014290D01*
X127675280Y-92001664D01*
X127684048Y-91989841D01*
X127693934Y-91978934D01*
X127704841Y-91969048D01*
X127716664Y-91960280D01*
X127729290Y-91952712D01*
X127742597Y-91946418D01*
X127756457Y-91941459D01*
X127770736Y-91937882D01*
X127785297Y-91935722D01*
X127800000Y-91935000D01*
X129450000Y-91935000D01*
X129464703Y-91935722D01*
G37*
G04 #@! TD.AperFunction*
G04 #@! TA.AperFunction,SMDPad,CuDef*
G36*
X129464703Y-90665722D02*
G01*
X129479264Y-90667882D01*
X129493543Y-90671459D01*
X129507403Y-90676418D01*
X129520710Y-90682712D01*
X129533336Y-90690280D01*
X129545159Y-90699048D01*
X129556066Y-90708934D01*
X129565952Y-90719841D01*
X129574720Y-90731664D01*
X129582288Y-90744290D01*
X129588582Y-90757597D01*
X129593541Y-90771457D01*
X129597118Y-90785736D01*
X129599278Y-90800297D01*
X129600000Y-90815000D01*
X129600000Y-91115000D01*
X129599278Y-91129703D01*
X129597118Y-91144264D01*
X129593541Y-91158543D01*
X129588582Y-91172403D01*
X129582288Y-91185710D01*
X129574720Y-91198336D01*
X129565952Y-91210159D01*
X129556066Y-91221066D01*
X129545159Y-91230952D01*
X129533336Y-91239720D01*
X129520710Y-91247288D01*
X129507403Y-91253582D01*
X129493543Y-91258541D01*
X129479264Y-91262118D01*
X129464703Y-91264278D01*
X129450000Y-91265000D01*
X127800000Y-91265000D01*
X127785297Y-91264278D01*
X127770736Y-91262118D01*
X127756457Y-91258541D01*
X127742597Y-91253582D01*
X127729290Y-91247288D01*
X127716664Y-91239720D01*
X127704841Y-91230952D01*
X127693934Y-91221066D01*
X127684048Y-91210159D01*
X127675280Y-91198336D01*
X127667712Y-91185710D01*
X127661418Y-91172403D01*
X127656459Y-91158543D01*
X127652882Y-91144264D01*
X127650722Y-91129703D01*
X127650000Y-91115000D01*
X127650000Y-90815000D01*
X127650722Y-90800297D01*
X127652882Y-90785736D01*
X127656459Y-90771457D01*
X127661418Y-90757597D01*
X127667712Y-90744290D01*
X127675280Y-90731664D01*
X127684048Y-90719841D01*
X127693934Y-90708934D01*
X127704841Y-90699048D01*
X127716664Y-90690280D01*
X127729290Y-90682712D01*
X127742597Y-90676418D01*
X127756457Y-90671459D01*
X127770736Y-90667882D01*
X127785297Y-90665722D01*
X127800000Y-90665000D01*
X129450000Y-90665000D01*
X129464703Y-90665722D01*
G37*
G04 #@! TD.AperFunction*
G04 #@! TA.AperFunction,SMDPad,CuDef*
G36*
X129464703Y-89395722D02*
G01*
X129479264Y-89397882D01*
X129493543Y-89401459D01*
X129507403Y-89406418D01*
X129520710Y-89412712D01*
X129533336Y-89420280D01*
X129545159Y-89429048D01*
X129556066Y-89438934D01*
X129565952Y-89449841D01*
X129574720Y-89461664D01*
X129582288Y-89474290D01*
X129588582Y-89487597D01*
X129593541Y-89501457D01*
X129597118Y-89515736D01*
X129599278Y-89530297D01*
X129600000Y-89545000D01*
X129600000Y-89845000D01*
X129599278Y-89859703D01*
X129597118Y-89874264D01*
X129593541Y-89888543D01*
X129588582Y-89902403D01*
X129582288Y-89915710D01*
X129574720Y-89928336D01*
X129565952Y-89940159D01*
X129556066Y-89951066D01*
X129545159Y-89960952D01*
X129533336Y-89969720D01*
X129520710Y-89977288D01*
X129507403Y-89983582D01*
X129493543Y-89988541D01*
X129479264Y-89992118D01*
X129464703Y-89994278D01*
X129450000Y-89995000D01*
X127800000Y-89995000D01*
X127785297Y-89994278D01*
X127770736Y-89992118D01*
X127756457Y-89988541D01*
X127742597Y-89983582D01*
X127729290Y-89977288D01*
X127716664Y-89969720D01*
X127704841Y-89960952D01*
X127693934Y-89951066D01*
X127684048Y-89940159D01*
X127675280Y-89928336D01*
X127667712Y-89915710D01*
X127661418Y-89902403D01*
X127656459Y-89888543D01*
X127652882Y-89874264D01*
X127650722Y-89859703D01*
X127650000Y-89845000D01*
X127650000Y-89545000D01*
X127650722Y-89530297D01*
X127652882Y-89515736D01*
X127656459Y-89501457D01*
X127661418Y-89487597D01*
X127667712Y-89474290D01*
X127675280Y-89461664D01*
X127684048Y-89449841D01*
X127693934Y-89438934D01*
X127704841Y-89429048D01*
X127716664Y-89420280D01*
X127729290Y-89412712D01*
X127742597Y-89406418D01*
X127756457Y-89401459D01*
X127770736Y-89397882D01*
X127785297Y-89395722D01*
X127800000Y-89395000D01*
X129450000Y-89395000D01*
X129464703Y-89395722D01*
G37*
G04 #@! TD.AperFunction*
G04 #@! TA.AperFunction,SMDPad,CuDef*
G36*
X144864703Y-89395722D02*
G01*
X144879264Y-89397882D01*
X144893543Y-89401459D01*
X144907403Y-89406418D01*
X144920710Y-89412712D01*
X144933336Y-89420280D01*
X144945159Y-89429048D01*
X144956066Y-89438934D01*
X144965952Y-89449841D01*
X144974720Y-89461664D01*
X144982288Y-89474290D01*
X144988582Y-89487597D01*
X144993541Y-89501457D01*
X144997118Y-89515736D01*
X144999278Y-89530297D01*
X145000000Y-89545000D01*
X145000000Y-89845000D01*
X144999278Y-89859703D01*
X144997118Y-89874264D01*
X144993541Y-89888543D01*
X144988582Y-89902403D01*
X144982288Y-89915710D01*
X144974720Y-89928336D01*
X144965952Y-89940159D01*
X144956066Y-89951066D01*
X144945159Y-89960952D01*
X144933336Y-89969720D01*
X144920710Y-89977288D01*
X144907403Y-89983582D01*
X144893543Y-89988541D01*
X144879264Y-89992118D01*
X144864703Y-89994278D01*
X144850000Y-89995000D01*
X143200000Y-89995000D01*
X143185297Y-89994278D01*
X143170736Y-89992118D01*
X143156457Y-89988541D01*
X143142597Y-89983582D01*
X143129290Y-89977288D01*
X143116664Y-89969720D01*
X143104841Y-89960952D01*
X143093934Y-89951066D01*
X143084048Y-89940159D01*
X143075280Y-89928336D01*
X143067712Y-89915710D01*
X143061418Y-89902403D01*
X143056459Y-89888543D01*
X143052882Y-89874264D01*
X143050722Y-89859703D01*
X143050000Y-89845000D01*
X143050000Y-89545000D01*
X143050722Y-89530297D01*
X143052882Y-89515736D01*
X143056459Y-89501457D01*
X143061418Y-89487597D01*
X143067712Y-89474290D01*
X143075280Y-89461664D01*
X143084048Y-89449841D01*
X143093934Y-89438934D01*
X143104841Y-89429048D01*
X143116664Y-89420280D01*
X143129290Y-89412712D01*
X143142597Y-89406418D01*
X143156457Y-89401459D01*
X143170736Y-89397882D01*
X143185297Y-89395722D01*
X143200000Y-89395000D01*
X144850000Y-89395000D01*
X144864703Y-89395722D01*
G37*
G04 #@! TD.AperFunction*
G04 #@! TA.AperFunction,SMDPad,CuDef*
G36*
X144864703Y-90665722D02*
G01*
X144879264Y-90667882D01*
X144893543Y-90671459D01*
X144907403Y-90676418D01*
X144920710Y-90682712D01*
X144933336Y-90690280D01*
X144945159Y-90699048D01*
X144956066Y-90708934D01*
X144965952Y-90719841D01*
X144974720Y-90731664D01*
X144982288Y-90744290D01*
X144988582Y-90757597D01*
X144993541Y-90771457D01*
X144997118Y-90785736D01*
X144999278Y-90800297D01*
X145000000Y-90815000D01*
X145000000Y-91115000D01*
X144999278Y-91129703D01*
X144997118Y-91144264D01*
X144993541Y-91158543D01*
X144988582Y-91172403D01*
X144982288Y-91185710D01*
X144974720Y-91198336D01*
X144965952Y-91210159D01*
X144956066Y-91221066D01*
X144945159Y-91230952D01*
X144933336Y-91239720D01*
X144920710Y-91247288D01*
X144907403Y-91253582D01*
X144893543Y-91258541D01*
X144879264Y-91262118D01*
X144864703Y-91264278D01*
X144850000Y-91265000D01*
X143200000Y-91265000D01*
X143185297Y-91264278D01*
X143170736Y-91262118D01*
X143156457Y-91258541D01*
X143142597Y-91253582D01*
X143129290Y-91247288D01*
X143116664Y-91239720D01*
X143104841Y-91230952D01*
X143093934Y-91221066D01*
X143084048Y-91210159D01*
X143075280Y-91198336D01*
X143067712Y-91185710D01*
X143061418Y-91172403D01*
X143056459Y-91158543D01*
X143052882Y-91144264D01*
X143050722Y-91129703D01*
X143050000Y-91115000D01*
X143050000Y-90815000D01*
X143050722Y-90800297D01*
X143052882Y-90785736D01*
X143056459Y-90771457D01*
X143061418Y-90757597D01*
X143067712Y-90744290D01*
X143075280Y-90731664D01*
X143084048Y-90719841D01*
X143093934Y-90708934D01*
X143104841Y-90699048D01*
X143116664Y-90690280D01*
X143129290Y-90682712D01*
X143142597Y-90676418D01*
X143156457Y-90671459D01*
X143170736Y-90667882D01*
X143185297Y-90665722D01*
X143200000Y-90665000D01*
X144850000Y-90665000D01*
X144864703Y-90665722D01*
G37*
G04 #@! TD.AperFunction*
G04 #@! TA.AperFunction,SMDPad,CuDef*
G36*
X144864703Y-91935722D02*
G01*
X144879264Y-91937882D01*
X144893543Y-91941459D01*
X144907403Y-91946418D01*
X144920710Y-91952712D01*
X144933336Y-91960280D01*
X144945159Y-91969048D01*
X144956066Y-91978934D01*
X144965952Y-91989841D01*
X144974720Y-92001664D01*
X144982288Y-92014290D01*
X144988582Y-92027597D01*
X144993541Y-92041457D01*
X144997118Y-92055736D01*
X144999278Y-92070297D01*
X145000000Y-92085000D01*
X145000000Y-92385000D01*
X144999278Y-92399703D01*
X144997118Y-92414264D01*
X144993541Y-92428543D01*
X144988582Y-92442403D01*
X144982288Y-92455710D01*
X144974720Y-92468336D01*
X144965952Y-92480159D01*
X144956066Y-92491066D01*
X144945159Y-92500952D01*
X144933336Y-92509720D01*
X144920710Y-92517288D01*
X144907403Y-92523582D01*
X144893543Y-92528541D01*
X144879264Y-92532118D01*
X144864703Y-92534278D01*
X144850000Y-92535000D01*
X143200000Y-92535000D01*
X143185297Y-92534278D01*
X143170736Y-92532118D01*
X143156457Y-92528541D01*
X143142597Y-92523582D01*
X143129290Y-92517288D01*
X143116664Y-92509720D01*
X143104841Y-92500952D01*
X143093934Y-92491066D01*
X143084048Y-92480159D01*
X143075280Y-92468336D01*
X143067712Y-92455710D01*
X143061418Y-92442403D01*
X143056459Y-92428543D01*
X143052882Y-92414264D01*
X143050722Y-92399703D01*
X143050000Y-92385000D01*
X143050000Y-92085000D01*
X143050722Y-92070297D01*
X143052882Y-92055736D01*
X143056459Y-92041457D01*
X143061418Y-92027597D01*
X143067712Y-92014290D01*
X143075280Y-92001664D01*
X143084048Y-91989841D01*
X143093934Y-91978934D01*
X143104841Y-91969048D01*
X143116664Y-91960280D01*
X143129290Y-91952712D01*
X143142597Y-91946418D01*
X143156457Y-91941459D01*
X143170736Y-91937882D01*
X143185297Y-91935722D01*
X143200000Y-91935000D01*
X144850000Y-91935000D01*
X144864703Y-91935722D01*
G37*
G04 #@! TD.AperFunction*
G04 #@! TA.AperFunction,SMDPad,CuDef*
G36*
X144864703Y-93205722D02*
G01*
X144879264Y-93207882D01*
X144893543Y-93211459D01*
X144907403Y-93216418D01*
X144920710Y-93222712D01*
X144933336Y-93230280D01*
X144945159Y-93239048D01*
X144956066Y-93248934D01*
X144965952Y-93259841D01*
X144974720Y-93271664D01*
X144982288Y-93284290D01*
X144988582Y-93297597D01*
X144993541Y-93311457D01*
X144997118Y-93325736D01*
X144999278Y-93340297D01*
X145000000Y-93355000D01*
X145000000Y-93655000D01*
X144999278Y-93669703D01*
X144997118Y-93684264D01*
X144993541Y-93698543D01*
X144988582Y-93712403D01*
X144982288Y-93725710D01*
X144974720Y-93738336D01*
X144965952Y-93750159D01*
X144956066Y-93761066D01*
X144945159Y-93770952D01*
X144933336Y-93779720D01*
X144920710Y-93787288D01*
X144907403Y-93793582D01*
X144893543Y-93798541D01*
X144879264Y-93802118D01*
X144864703Y-93804278D01*
X144850000Y-93805000D01*
X143200000Y-93805000D01*
X143185297Y-93804278D01*
X143170736Y-93802118D01*
X143156457Y-93798541D01*
X143142597Y-93793582D01*
X143129290Y-93787288D01*
X143116664Y-93779720D01*
X143104841Y-93770952D01*
X143093934Y-93761066D01*
X143084048Y-93750159D01*
X143075280Y-93738336D01*
X143067712Y-93725710D01*
X143061418Y-93712403D01*
X143056459Y-93698543D01*
X143052882Y-93684264D01*
X143050722Y-93669703D01*
X143050000Y-93655000D01*
X143050000Y-93355000D01*
X143050722Y-93340297D01*
X143052882Y-93325736D01*
X143056459Y-93311457D01*
X143061418Y-93297597D01*
X143067712Y-93284290D01*
X143075280Y-93271664D01*
X143084048Y-93259841D01*
X143093934Y-93248934D01*
X143104841Y-93239048D01*
X143116664Y-93230280D01*
X143129290Y-93222712D01*
X143142597Y-93216418D01*
X143156457Y-93211459D01*
X143170736Y-93207882D01*
X143185297Y-93205722D01*
X143200000Y-93205000D01*
X144850000Y-93205000D01*
X144864703Y-93205722D01*
G37*
G04 #@! TD.AperFunction*
G04 #@! TA.AperFunction,SMDPad,CuDef*
G36*
X149814703Y-93205722D02*
G01*
X149829264Y-93207882D01*
X149843543Y-93211459D01*
X149857403Y-93216418D01*
X149870710Y-93222712D01*
X149883336Y-93230280D01*
X149895159Y-93239048D01*
X149906066Y-93248934D01*
X149915952Y-93259841D01*
X149924720Y-93271664D01*
X149932288Y-93284290D01*
X149938582Y-93297597D01*
X149943541Y-93311457D01*
X149947118Y-93325736D01*
X149949278Y-93340297D01*
X149950000Y-93355000D01*
X149950000Y-93655000D01*
X149949278Y-93669703D01*
X149947118Y-93684264D01*
X149943541Y-93698543D01*
X149938582Y-93712403D01*
X149932288Y-93725710D01*
X149924720Y-93738336D01*
X149915952Y-93750159D01*
X149906066Y-93761066D01*
X149895159Y-93770952D01*
X149883336Y-93779720D01*
X149870710Y-93787288D01*
X149857403Y-93793582D01*
X149843543Y-93798541D01*
X149829264Y-93802118D01*
X149814703Y-93804278D01*
X149800000Y-93805000D01*
X148150000Y-93805000D01*
X148135297Y-93804278D01*
X148120736Y-93802118D01*
X148106457Y-93798541D01*
X148092597Y-93793582D01*
X148079290Y-93787288D01*
X148066664Y-93779720D01*
X148054841Y-93770952D01*
X148043934Y-93761066D01*
X148034048Y-93750159D01*
X148025280Y-93738336D01*
X148017712Y-93725710D01*
X148011418Y-93712403D01*
X148006459Y-93698543D01*
X148002882Y-93684264D01*
X148000722Y-93669703D01*
X148000000Y-93655000D01*
X148000000Y-93355000D01*
X148000722Y-93340297D01*
X148002882Y-93325736D01*
X148006459Y-93311457D01*
X148011418Y-93297597D01*
X148017712Y-93284290D01*
X148025280Y-93271664D01*
X148034048Y-93259841D01*
X148043934Y-93248934D01*
X148054841Y-93239048D01*
X148066664Y-93230280D01*
X148079290Y-93222712D01*
X148092597Y-93216418D01*
X148106457Y-93211459D01*
X148120736Y-93207882D01*
X148135297Y-93205722D01*
X148150000Y-93205000D01*
X149800000Y-93205000D01*
X149814703Y-93205722D01*
G37*
G04 #@! TD.AperFunction*
G04 #@! TA.AperFunction,SMDPad,CuDef*
G36*
X149814703Y-91935722D02*
G01*
X149829264Y-91937882D01*
X149843543Y-91941459D01*
X149857403Y-91946418D01*
X149870710Y-91952712D01*
X149883336Y-91960280D01*
X149895159Y-91969048D01*
X149906066Y-91978934D01*
X149915952Y-91989841D01*
X149924720Y-92001664D01*
X149932288Y-92014290D01*
X149938582Y-92027597D01*
X149943541Y-92041457D01*
X149947118Y-92055736D01*
X149949278Y-92070297D01*
X149950000Y-92085000D01*
X149950000Y-92385000D01*
X149949278Y-92399703D01*
X149947118Y-92414264D01*
X149943541Y-92428543D01*
X149938582Y-92442403D01*
X149932288Y-92455710D01*
X149924720Y-92468336D01*
X149915952Y-92480159D01*
X149906066Y-92491066D01*
X149895159Y-92500952D01*
X149883336Y-92509720D01*
X149870710Y-92517288D01*
X149857403Y-92523582D01*
X149843543Y-92528541D01*
X149829264Y-92532118D01*
X149814703Y-92534278D01*
X149800000Y-92535000D01*
X148150000Y-92535000D01*
X148135297Y-92534278D01*
X148120736Y-92532118D01*
X148106457Y-92528541D01*
X148092597Y-92523582D01*
X148079290Y-92517288D01*
X148066664Y-92509720D01*
X148054841Y-92500952D01*
X148043934Y-92491066D01*
X148034048Y-92480159D01*
X148025280Y-92468336D01*
X148017712Y-92455710D01*
X148011418Y-92442403D01*
X148006459Y-92428543D01*
X148002882Y-92414264D01*
X148000722Y-92399703D01*
X148000000Y-92385000D01*
X148000000Y-92085000D01*
X148000722Y-92070297D01*
X148002882Y-92055736D01*
X148006459Y-92041457D01*
X148011418Y-92027597D01*
X148017712Y-92014290D01*
X148025280Y-92001664D01*
X148034048Y-91989841D01*
X148043934Y-91978934D01*
X148054841Y-91969048D01*
X148066664Y-91960280D01*
X148079290Y-91952712D01*
X148092597Y-91946418D01*
X148106457Y-91941459D01*
X148120736Y-91937882D01*
X148135297Y-91935722D01*
X148150000Y-91935000D01*
X149800000Y-91935000D01*
X149814703Y-91935722D01*
G37*
G04 #@! TD.AperFunction*
G04 #@! TA.AperFunction,SMDPad,CuDef*
G36*
X149814703Y-90665722D02*
G01*
X149829264Y-90667882D01*
X149843543Y-90671459D01*
X149857403Y-90676418D01*
X149870710Y-90682712D01*
X149883336Y-90690280D01*
X149895159Y-90699048D01*
X149906066Y-90708934D01*
X149915952Y-90719841D01*
X149924720Y-90731664D01*
X149932288Y-90744290D01*
X149938582Y-90757597D01*
X149943541Y-90771457D01*
X149947118Y-90785736D01*
X149949278Y-90800297D01*
X149950000Y-90815000D01*
X149950000Y-91115000D01*
X149949278Y-91129703D01*
X149947118Y-91144264D01*
X149943541Y-91158543D01*
X149938582Y-91172403D01*
X149932288Y-91185710D01*
X149924720Y-91198336D01*
X149915952Y-91210159D01*
X149906066Y-91221066D01*
X149895159Y-91230952D01*
X149883336Y-91239720D01*
X149870710Y-91247288D01*
X149857403Y-91253582D01*
X149843543Y-91258541D01*
X149829264Y-91262118D01*
X149814703Y-91264278D01*
X149800000Y-91265000D01*
X148150000Y-91265000D01*
X148135297Y-91264278D01*
X148120736Y-91262118D01*
X148106457Y-91258541D01*
X148092597Y-91253582D01*
X148079290Y-91247288D01*
X148066664Y-91239720D01*
X148054841Y-91230952D01*
X148043934Y-91221066D01*
X148034048Y-91210159D01*
X148025280Y-91198336D01*
X148017712Y-91185710D01*
X148011418Y-91172403D01*
X148006459Y-91158543D01*
X148002882Y-91144264D01*
X148000722Y-91129703D01*
X148000000Y-91115000D01*
X148000000Y-90815000D01*
X148000722Y-90800297D01*
X148002882Y-90785736D01*
X148006459Y-90771457D01*
X148011418Y-90757597D01*
X148017712Y-90744290D01*
X148025280Y-90731664D01*
X148034048Y-90719841D01*
X148043934Y-90708934D01*
X148054841Y-90699048D01*
X148066664Y-90690280D01*
X148079290Y-90682712D01*
X148092597Y-90676418D01*
X148106457Y-90671459D01*
X148120736Y-90667882D01*
X148135297Y-90665722D01*
X148150000Y-90665000D01*
X149800000Y-90665000D01*
X149814703Y-90665722D01*
G37*
G04 #@! TD.AperFunction*
G04 #@! TA.AperFunction,SMDPad,CuDef*
G36*
X149814703Y-89395722D02*
G01*
X149829264Y-89397882D01*
X149843543Y-89401459D01*
X149857403Y-89406418D01*
X149870710Y-89412712D01*
X149883336Y-89420280D01*
X149895159Y-89429048D01*
X149906066Y-89438934D01*
X149915952Y-89449841D01*
X149924720Y-89461664D01*
X149932288Y-89474290D01*
X149938582Y-89487597D01*
X149943541Y-89501457D01*
X149947118Y-89515736D01*
X149949278Y-89530297D01*
X149950000Y-89545000D01*
X149950000Y-89845000D01*
X149949278Y-89859703D01*
X149947118Y-89874264D01*
X149943541Y-89888543D01*
X149938582Y-89902403D01*
X149932288Y-89915710D01*
X149924720Y-89928336D01*
X149915952Y-89940159D01*
X149906066Y-89951066D01*
X149895159Y-89960952D01*
X149883336Y-89969720D01*
X149870710Y-89977288D01*
X149857403Y-89983582D01*
X149843543Y-89988541D01*
X149829264Y-89992118D01*
X149814703Y-89994278D01*
X149800000Y-89995000D01*
X148150000Y-89995000D01*
X148135297Y-89994278D01*
X148120736Y-89992118D01*
X148106457Y-89988541D01*
X148092597Y-89983582D01*
X148079290Y-89977288D01*
X148066664Y-89969720D01*
X148054841Y-89960952D01*
X148043934Y-89951066D01*
X148034048Y-89940159D01*
X148025280Y-89928336D01*
X148017712Y-89915710D01*
X148011418Y-89902403D01*
X148006459Y-89888543D01*
X148002882Y-89874264D01*
X148000722Y-89859703D01*
X148000000Y-89845000D01*
X148000000Y-89545000D01*
X148000722Y-89530297D01*
X148002882Y-89515736D01*
X148006459Y-89501457D01*
X148011418Y-89487597D01*
X148017712Y-89474290D01*
X148025280Y-89461664D01*
X148034048Y-89449841D01*
X148043934Y-89438934D01*
X148054841Y-89429048D01*
X148066664Y-89420280D01*
X148079290Y-89412712D01*
X148092597Y-89406418D01*
X148106457Y-89401459D01*
X148120736Y-89397882D01*
X148135297Y-89395722D01*
X148150000Y-89395000D01*
X149800000Y-89395000D01*
X149814703Y-89395722D01*
G37*
G04 #@! TD.AperFunction*
D17*
X124880000Y-67745000D03*
D18*
X109000000Y-77100000D03*
D19*
X109000000Y-69900000D03*
D17*
X138800000Y-67900000D03*
X152250000Y-67945000D03*
D20*
X145500000Y-77000000D03*
X146500000Y-77000000D03*
X131500000Y-77000000D03*
X132500000Y-77000000D03*
X133500000Y-77000000D03*
X118000000Y-77000000D03*
X119000000Y-77000000D03*
X120000000Y-77000000D03*
X117000000Y-77000000D03*
X116000000Y-77000000D03*
X116000000Y-76000000D03*
X117000000Y-76000000D03*
X118000000Y-76000000D03*
X119000000Y-76000000D03*
X120000000Y-76000000D03*
X120000000Y-75000000D03*
X119000000Y-75000000D03*
X118000000Y-75000000D03*
X117000000Y-75000000D03*
X116000000Y-75000000D03*
X116000000Y-74000000D03*
X117000000Y-74000000D03*
X118000000Y-74000000D03*
X119000000Y-74000000D03*
X120000000Y-74000000D03*
X130500000Y-77000000D03*
X129500000Y-77000000D03*
X129500000Y-76000000D03*
X130500000Y-76000000D03*
X131500000Y-76000000D03*
X132500000Y-76000000D03*
X133500000Y-76000000D03*
X133500000Y-75000000D03*
X132500000Y-75000000D03*
X131500000Y-75000000D03*
X130500000Y-75000000D03*
X129500000Y-75000000D03*
X129500000Y-74000000D03*
X130500000Y-74000000D03*
X131500000Y-74000000D03*
X132500000Y-74000000D03*
X133500000Y-74000000D03*
X147500000Y-77000000D03*
X144500000Y-77000000D03*
X143500000Y-77000000D03*
X143500000Y-76000000D03*
X144500000Y-76000000D03*
X145500000Y-76000000D03*
X146500000Y-76000000D03*
X147500000Y-76000000D03*
X147500000Y-75000000D03*
X146500000Y-75000000D03*
X145500000Y-75000000D03*
X144500000Y-75000000D03*
X143500000Y-75000000D03*
X143500000Y-74000000D03*
X144500000Y-74000000D03*
X145500000Y-74000000D03*
X146500000Y-74000000D03*
X147500000Y-74000000D03*
X150000000Y-84000000D03*
X149000000Y-84000000D03*
X148000000Y-84000000D03*
X147000000Y-84000000D03*
X146000000Y-84000000D03*
X146000000Y-83000000D03*
X147000000Y-83000000D03*
X148000000Y-83000000D03*
X149000000Y-83000000D03*
X150000000Y-83000000D03*
X150000000Y-82000000D03*
X149000000Y-82000000D03*
X148000000Y-82000000D03*
X147000000Y-82000000D03*
X146000000Y-82000000D03*
X146000000Y-81000000D03*
X147000000Y-81000000D03*
X148000000Y-81000000D03*
X149000000Y-81000000D03*
X150000000Y-81000000D03*
X150000000Y-80000000D03*
X149000000Y-80000000D03*
X148000000Y-80000000D03*
X147000000Y-80000000D03*
X146000000Y-80000000D03*
X136500000Y-84000000D03*
X135500000Y-84000000D03*
X134500000Y-84000000D03*
X133500000Y-84000000D03*
X132500000Y-84000000D03*
X132500000Y-83000000D03*
X133500000Y-83000000D03*
X134500000Y-83000000D03*
X135500000Y-83000000D03*
X136500000Y-83000000D03*
X136500000Y-82000000D03*
X135500000Y-82000000D03*
X134500000Y-82000000D03*
X133500000Y-82000000D03*
X132500000Y-82000000D03*
X132500000Y-81000000D03*
X133500000Y-81000000D03*
X134500000Y-81000000D03*
X135500000Y-81000000D03*
X136500000Y-81000000D03*
X136500000Y-80000000D03*
X135500000Y-80000000D03*
X134500000Y-80000000D03*
X133500000Y-80000000D03*
X132500000Y-80000000D03*
X122500000Y-84000000D03*
X121500000Y-84000000D03*
X120500000Y-84000000D03*
X119500000Y-84000000D03*
X118500000Y-84000000D03*
X118500000Y-83000000D03*
X119500000Y-83000000D03*
X120500000Y-83000000D03*
X121500000Y-83000000D03*
X122500000Y-83000000D03*
X122500000Y-82000000D03*
X121500000Y-82000000D03*
X120500000Y-82000000D03*
X119500000Y-82000000D03*
X118500000Y-82000000D03*
X118500000Y-81000000D03*
X119500000Y-81000000D03*
X120500000Y-81000000D03*
X121500000Y-81000000D03*
X122500000Y-81000000D03*
X122500000Y-80000000D03*
X121500000Y-80000000D03*
X120500000Y-80000000D03*
X119500000Y-80000000D03*
X118500000Y-80000000D03*
X115000000Y-86000000D03*
X130500000Y-93500000D03*
X129500000Y-86000000D03*
X146000000Y-93500000D03*
X145000000Y-86500000D03*
X117001041Y-88501041D03*
X124700000Y-91500000D03*
X116500000Y-91500000D03*
X139900000Y-91500000D03*
X131700000Y-91500000D03*
X154500000Y-92500000D03*
X147000000Y-91600000D03*
X111143042Y-94643042D03*
X126500000Y-92500000D03*
X126600021Y-91000000D03*
X112000000Y-90000000D03*
D21*
X113203280Y-89118280D02*
X113675000Y-89590000D01*
X113203280Y-87500000D02*
X113203280Y-89118280D01*
X116800000Y-87500000D02*
X117600000Y-87500000D01*
X116010000Y-88290000D02*
X116800000Y-87500000D01*
X116010000Y-89290000D02*
X116010000Y-88290000D01*
X113975000Y-89290000D02*
X116010000Y-89290000D01*
X113675000Y-89590000D02*
X113975000Y-89290000D01*
X128151640Y-89221640D02*
X128625000Y-89695000D01*
X128151640Y-87500000D02*
X128151640Y-89221640D01*
X128925000Y-89395000D02*
X131305000Y-89395000D01*
X128625000Y-89695000D02*
X128925000Y-89395000D01*
X131850000Y-87600000D02*
X132650000Y-87600000D01*
X131305000Y-88145000D02*
X131850000Y-87600000D01*
X131305000Y-89395000D02*
X131305000Y-88145000D01*
X145405000Y-89695000D02*
X147600000Y-87500000D01*
X144025000Y-89695000D02*
X145405000Y-89695000D01*
X143403280Y-89073280D02*
X144025000Y-89695000D01*
X143403280Y-87600000D02*
X143403280Y-89073280D01*
X117000000Y-86175000D02*
X117000000Y-77565685D01*
X117000000Y-77565685D02*
X117000000Y-77000000D01*
X117600000Y-86775000D02*
X117000000Y-86175000D01*
X117600000Y-87500000D02*
X117600000Y-86775000D01*
X130500000Y-85010002D02*
X130500000Y-77565685D01*
X131850000Y-86360002D02*
X130500000Y-85010002D01*
X131850000Y-86875000D02*
X131850000Y-86360002D01*
X130500000Y-77565685D02*
X130500000Y-77000000D01*
X132575000Y-87600000D02*
X131850000Y-86875000D01*
X132650000Y-87600000D02*
X132575000Y-87600000D01*
X143403280Y-77096720D02*
X143500000Y-77000000D01*
X143403280Y-87600000D02*
X143403280Y-77096720D01*
X114900000Y-86500890D02*
X115000000Y-86400890D01*
X114900000Y-87500000D02*
X114900000Y-86500890D01*
X115000000Y-86400890D02*
X115000000Y-86000000D01*
X128625000Y-93505000D02*
X128995000Y-93505000D01*
X128995000Y-93505000D02*
X129000000Y-93500000D01*
X129000000Y-93500000D02*
X130500000Y-93500000D01*
X129848360Y-86348360D02*
X129500000Y-86000000D01*
X129848360Y-87500000D02*
X129848360Y-86348360D01*
X144025000Y-93505000D02*
X144495000Y-93505000D01*
X144495000Y-93505000D02*
X144500000Y-93500000D01*
X144500000Y-93500000D02*
X146000000Y-93500000D01*
X145100000Y-86600000D02*
X145000000Y-86500000D01*
X145100000Y-87600000D02*
X145100000Y-86600000D01*
X117001041Y-89288922D02*
X117001041Y-88501041D01*
X113675000Y-93400000D02*
X114650000Y-93400000D01*
X115100010Y-92949990D02*
X115100010Y-91189953D01*
X115100010Y-91189953D02*
X117001041Y-89288922D01*
X114650000Y-93400000D02*
X115100010Y-92949990D01*
X121016640Y-92130000D02*
X121651640Y-91495000D01*
X118625000Y-92130000D02*
X121016640Y-92130000D01*
X122631630Y-90515010D02*
X121651640Y-91495000D01*
X123702452Y-90515010D02*
X122631630Y-90515010D01*
X125050011Y-89167451D02*
X123702452Y-90515010D01*
X125050011Y-82969989D02*
X125050011Y-89167451D01*
X127000000Y-81020000D02*
X125050011Y-82969989D01*
X127000000Y-79920000D02*
X127000000Y-81020000D01*
X124695000Y-91495000D02*
X124700000Y-91500000D01*
X123348360Y-91495000D02*
X124695000Y-91495000D01*
X117434315Y-90000000D02*
X118215000Y-90000000D01*
X118215000Y-90000000D02*
X118625000Y-89590000D01*
X116500000Y-90934315D02*
X117434315Y-90000000D01*
X116500000Y-91500000D02*
X116500000Y-90934315D01*
X119700000Y-88515000D02*
X118625000Y-89590000D01*
X119700000Y-87500000D02*
X119700000Y-88515000D01*
X136016640Y-92235000D02*
X136751640Y-91500000D01*
X133575000Y-92235000D02*
X136016640Y-92235000D01*
X139087510Y-89933262D02*
X138695762Y-90325010D01*
X139087510Y-82832490D02*
X139087510Y-89933262D01*
X136751640Y-90500890D02*
X136751640Y-91500000D01*
X136927520Y-90325010D02*
X136751640Y-90500890D01*
X140900000Y-81020000D02*
X139087510Y-82832490D01*
X138695762Y-90325010D02*
X136927520Y-90325010D01*
X140900000Y-79920000D02*
X140900000Y-81020000D01*
X134750000Y-88520000D02*
X133575000Y-89695000D01*
X134750000Y-87600000D02*
X134750000Y-88520000D01*
X138448360Y-91500000D02*
X139900000Y-91500000D01*
X131700000Y-91500000D02*
X131700000Y-90800000D01*
X131700000Y-90800000D02*
X131800000Y-90800000D01*
X131800000Y-90800000D02*
X132500000Y-90100000D01*
X133170000Y-90100000D02*
X133575000Y-89695000D01*
X132500000Y-90100000D02*
X133170000Y-90100000D01*
X151268280Y-92235000D02*
X151903280Y-91600000D01*
X148975000Y-92235000D02*
X151268280Y-92235000D01*
X153983262Y-90525010D02*
X151979160Y-90525010D01*
X154375010Y-90133262D02*
X153983262Y-90525010D01*
X152649999Y-82670001D02*
X152649999Y-87060035D01*
X154200000Y-81120000D02*
X152649999Y-82670001D01*
X151903280Y-90600890D02*
X151903280Y-91600000D01*
X151979160Y-90525010D02*
X151903280Y-90600890D01*
X154375010Y-88785046D02*
X154375010Y-90133262D01*
X152649999Y-87060035D02*
X154375010Y-88785046D01*
X154200000Y-80020000D02*
X154200000Y-81120000D01*
X149700000Y-88970000D02*
X148975000Y-89695000D01*
X149700000Y-87500000D02*
X149700000Y-88970000D01*
X147000000Y-91600000D02*
X147000000Y-90300000D01*
X147605000Y-89695000D02*
X148975000Y-89695000D01*
X147000000Y-90300000D02*
X147605000Y-89695000D01*
X153600000Y-91600000D02*
X154500000Y-92500000D01*
X104540000Y-88040000D02*
X107000000Y-88040000D01*
X104500000Y-88000000D02*
X104540000Y-88040000D01*
X141500000Y-94000000D02*
X140000000Y-95500000D01*
X140000000Y-95500000D02*
X104500000Y-95500000D01*
X104500000Y-95500000D02*
X104500000Y-88000000D01*
X143050000Y-92235000D02*
X141500000Y-93785000D01*
X141500000Y-93785000D02*
X141500000Y-94000000D01*
X144025000Y-92235000D02*
X143050000Y-92235000D01*
X139495048Y-94799990D02*
X111000000Y-94799990D01*
X143630038Y-90665000D02*
X139495048Y-94799990D01*
X144025000Y-90965000D02*
X143725000Y-90665000D01*
X143725000Y-90665000D02*
X143630038Y-90665000D01*
X111000000Y-94786084D02*
X111143042Y-94643042D01*
X111000000Y-94799990D02*
X111000000Y-94786084D01*
X126765000Y-92235000D02*
X126500000Y-92500000D01*
X128625000Y-92235000D02*
X126765000Y-92235000D01*
X126635021Y-90965000D02*
X126600021Y-91000000D01*
X128625000Y-90965000D02*
X126635021Y-90965000D01*
X110120000Y-90000000D02*
X109540000Y-90580000D01*
X112000000Y-90000000D02*
X110120000Y-90000000D01*
X107849999Y-93969999D02*
X107000000Y-93120000D01*
X108300001Y-94420001D02*
X107849999Y-93969999D01*
X112454002Y-92130000D02*
X110164001Y-94420001D01*
X110164001Y-94420001D02*
X108300001Y-94420001D01*
X113675000Y-92130000D02*
X112454002Y-92130000D01*
X111500000Y-91160000D02*
X110389999Y-92270001D01*
X113375000Y-91160000D02*
X111500000Y-91160000D01*
X110389999Y-92270001D02*
X109540000Y-93120000D01*
X113675000Y-90860000D02*
X113375000Y-91160000D01*
X123637500Y-89590000D02*
X123200000Y-89590000D01*
X124350001Y-88877499D02*
X123637500Y-89590000D01*
X124350001Y-78939999D02*
X124350001Y-88877499D01*
X122339997Y-78849999D02*
X124260001Y-78849999D01*
X121249999Y-73991997D02*
X121249999Y-77760001D01*
X121249999Y-77760001D02*
X122339997Y-78849999D01*
X119478002Y-72220000D02*
X121249999Y-73991997D01*
X124260001Y-78849999D02*
X124350001Y-78939999D01*
X118600000Y-72220000D02*
X119478002Y-72220000D01*
X125980000Y-85500000D02*
X127000000Y-84480000D01*
X125750021Y-85500000D02*
X125980000Y-85500000D01*
X124058002Y-93400000D02*
X125750021Y-91707981D01*
X125750021Y-91707981D02*
X125750021Y-85500000D01*
X123287500Y-93400000D02*
X124058002Y-93400000D01*
X138250001Y-78939999D02*
X138250001Y-88874999D01*
X138160001Y-78849999D02*
X138250001Y-78939999D01*
X138200000Y-88925000D02*
X138200000Y-89400000D01*
X136274997Y-78849999D02*
X138160001Y-78849999D01*
X135184999Y-77760001D02*
X136274997Y-78849999D01*
X138250001Y-88874999D02*
X138200000Y-88925000D01*
X135184999Y-73269999D02*
X135184999Y-77760001D01*
X134135000Y-72220000D02*
X135184999Y-73269999D01*
X132535000Y-72220000D02*
X134135000Y-72220000D01*
X139158002Y-93500000D02*
X138712500Y-93500000D01*
X140900000Y-91758002D02*
X139158002Y-93500000D01*
X138712500Y-93500000D02*
X138275000Y-93500000D01*
X140900000Y-84480000D02*
X140900000Y-91758002D01*
X148549999Y-77760001D02*
X149289998Y-78500000D01*
X147720000Y-72220000D02*
X148549999Y-73049999D01*
X148549999Y-73049999D02*
X148549999Y-77760001D01*
X145900000Y-72220000D02*
X147720000Y-72220000D01*
X149289998Y-78500000D02*
X151500000Y-78500000D01*
X151550001Y-79039999D02*
X151550001Y-86949999D01*
X151500000Y-78989998D02*
X151550001Y-79039999D01*
X151500000Y-78500000D02*
X151500000Y-78989998D01*
X153487500Y-88887498D02*
X153487500Y-89600000D01*
X151550001Y-86949999D02*
X153487500Y-88887498D01*
X153925000Y-93600000D02*
X153487500Y-93600000D01*
X154658002Y-93600000D02*
X153925000Y-93600000D01*
X155350001Y-92908001D02*
X154658002Y-93600000D01*
X154200000Y-85680000D02*
X155350001Y-86830001D01*
X155350001Y-86830001D02*
X155350001Y-92908001D01*
X154200000Y-84580000D02*
X154200000Y-85680000D01*
X118625000Y-90860000D02*
X119940000Y-90860000D01*
X121187500Y-89590000D02*
X121625000Y-89590000D01*
X119940000Y-90837500D02*
X121187500Y-89590000D01*
X119940000Y-90860000D02*
X119940000Y-90837500D01*
X118625000Y-93400000D02*
X121712500Y-93400000D01*
X136115000Y-89400000D02*
X136625000Y-89400000D01*
X134550000Y-90965000D02*
X136115000Y-89400000D01*
X133575000Y-90965000D02*
X134550000Y-90965000D01*
X136695000Y-93505000D02*
X136700000Y-93500000D01*
X133575000Y-93505000D02*
X136695000Y-93505000D01*
X151315000Y-89600000D02*
X151912500Y-89600000D01*
X149950000Y-90965000D02*
X151315000Y-89600000D01*
X148975000Y-90965000D02*
X149950000Y-90965000D01*
X151817500Y-93505000D02*
X151912500Y-93600000D01*
X148975000Y-93505000D02*
X151817500Y-93505000D01*
D22*
G36*
X128373000Y-77873000D02*
G01*
X122614577Y-77873000D01*
X122134999Y-77393423D01*
X122134999Y-74035462D01*
X122139280Y-73991996D01*
X122134999Y-73948530D01*
X122134999Y-73948520D01*
X122122194Y-73818507D01*
X122071588Y-73651684D01*
X121989410Y-73497938D01*
X121878816Y-73363180D01*
X121845049Y-73335468D01*
X121627000Y-73117419D01*
X121627000Y-65660000D01*
X128373000Y-65660000D01*
X128373000Y-77873000D01*
G37*
X128373000Y-77873000D02*
X122614577Y-77873000D01*
X122134999Y-77393423D01*
X122134999Y-74035462D01*
X122139280Y-73991996D01*
X122134999Y-73948530D01*
X122134999Y-73948520D01*
X122122194Y-73818507D01*
X122071588Y-73651684D01*
X121989410Y-73497938D01*
X121878816Y-73363180D01*
X121845049Y-73335468D01*
X121627000Y-73117419D01*
X121627000Y-65660000D01*
X128373000Y-65660000D01*
X128373000Y-77873000D01*
G36*
X142373000Y-77873000D02*
G01*
X136549577Y-77873000D01*
X136069999Y-77393423D01*
X136069999Y-73313468D01*
X136074280Y-73269999D01*
X136069999Y-73226530D01*
X136069999Y-73226522D01*
X136057194Y-73096509D01*
X136006588Y-72929686D01*
X135924410Y-72775940D01*
X135813816Y-72641182D01*
X135780049Y-72613470D01*
X135627000Y-72460421D01*
X135627000Y-65660000D01*
X142373000Y-65660000D01*
X142373000Y-77873000D01*
G37*
X142373000Y-77873000D02*
X136549577Y-77873000D01*
X136069999Y-77393423D01*
X136069999Y-73313468D01*
X136074280Y-73269999D01*
X136069999Y-73226530D01*
X136069999Y-73226522D01*
X136057194Y-73096509D01*
X136006588Y-72929686D01*
X135924410Y-72775940D01*
X135813816Y-72641182D01*
X135780049Y-72613470D01*
X135627000Y-72460421D01*
X135627000Y-65660000D01*
X142373000Y-65660000D01*
X142373000Y-77873000D01*
G36*
X155340000Y-77873000D02*
G01*
X152130308Y-77873000D01*
X152128817Y-77871183D01*
X151994059Y-77760589D01*
X151840313Y-77678411D01*
X151673490Y-77627805D01*
X151543477Y-77615000D01*
X151543476Y-77615000D01*
X151500000Y-77610718D01*
X151456523Y-77615000D01*
X149656577Y-77615000D01*
X149434999Y-77393423D01*
X149434999Y-73093468D01*
X149439280Y-73049999D01*
X149434999Y-73006530D01*
X149434999Y-73006522D01*
X149422194Y-72876509D01*
X149371588Y-72709686D01*
X149289410Y-72555940D01*
X149178816Y-72421182D01*
X149145049Y-72393470D01*
X149127000Y-72375421D01*
X149127000Y-65660000D01*
X155340000Y-65660000D01*
X155340000Y-77873000D01*
G37*
X155340000Y-77873000D02*
X152130308Y-77873000D01*
X152128817Y-77871183D01*
X151994059Y-77760589D01*
X151840313Y-77678411D01*
X151673490Y-77627805D01*
X151543477Y-77615000D01*
X151543476Y-77615000D01*
X151500000Y-77610718D01*
X151456523Y-77615000D01*
X149656577Y-77615000D01*
X149434999Y-77393423D01*
X149434999Y-73093468D01*
X149439280Y-73049999D01*
X149434999Y-73006530D01*
X149434999Y-73006522D01*
X149422194Y-72876509D01*
X149371588Y-72709686D01*
X149289410Y-72555940D01*
X149178816Y-72421182D01*
X149145049Y-72393470D01*
X149127000Y-72375421D01*
X149127000Y-65660000D01*
X155340000Y-65660000D01*
X155340000Y-77873000D01*
G36*
X120364999Y-74358576D02*
G01*
X120365000Y-77373000D01*
X115627000Y-77373000D01*
X115627000Y-73627000D01*
X119633424Y-73627000D01*
X120364999Y-74358576D01*
G37*
X120364999Y-74358576D02*
X120365000Y-77373000D01*
X115627000Y-77373000D01*
X115627000Y-73627000D01*
X119633424Y-73627000D01*
X120364999Y-74358576D01*
G36*
X130904463Y-73174494D02*
G01*
X130983815Y-73271185D01*
X131080506Y-73350537D01*
X131190820Y-73409502D01*
X131310518Y-73445812D01*
X131435000Y-73458072D01*
X133635000Y-73458072D01*
X133759482Y-73445812D01*
X133873000Y-73411377D01*
X133873000Y-77373000D01*
X129627000Y-77373000D01*
X129627000Y-73127000D01*
X130879077Y-73127000D01*
X130904463Y-73174494D01*
G37*
X130904463Y-73174494D02*
X130983815Y-73271185D01*
X131080506Y-73350537D01*
X131190820Y-73409502D01*
X131310518Y-73445812D01*
X131435000Y-73458072D01*
X133635000Y-73458072D01*
X133759482Y-73445812D01*
X133873000Y-73411377D01*
X133873000Y-77373000D01*
X129627000Y-77373000D01*
X129627000Y-73127000D01*
X130879077Y-73127000D01*
X130904463Y-73174494D01*
G36*
X144269463Y-73174494D02*
G01*
X144348815Y-73271185D01*
X144445506Y-73350537D01*
X144555820Y-73409502D01*
X144675518Y-73445812D01*
X144800000Y-73458072D01*
X147000000Y-73458072D01*
X147124482Y-73445812D01*
X147244180Y-73409502D01*
X147354494Y-73350537D01*
X147451185Y-73271185D01*
X147482026Y-73233605D01*
X147664999Y-73416578D01*
X147665000Y-77373000D01*
X143627000Y-77373000D01*
X143627000Y-73127000D01*
X144244077Y-73127000D01*
X144269463Y-73174494D01*
G37*
X144269463Y-73174494D02*
X144348815Y-73271185D01*
X144445506Y-73350537D01*
X144555820Y-73409502D01*
X144675518Y-73445812D01*
X144800000Y-73458072D01*
X147000000Y-73458072D01*
X147124482Y-73445812D01*
X147244180Y-73409502D01*
X147354494Y-73350537D01*
X147451185Y-73271185D01*
X147482026Y-73233605D01*
X147664999Y-73416578D01*
X147665000Y-77373000D01*
X143627000Y-77373000D01*
X143627000Y-73127000D01*
X144244077Y-73127000D01*
X144269463Y-73174494D01*
G36*
X128373000Y-80873000D02*
G01*
X125627000Y-80873000D01*
X125627000Y-77627000D01*
X128373000Y-77627000D01*
X128373000Y-80873000D01*
G37*
X128373000Y-80873000D02*
X125627000Y-80873000D01*
X125627000Y-77627000D01*
X128373000Y-77627000D01*
X128373000Y-80873000D01*
G36*
X142373000Y-80373000D02*
G01*
X139627000Y-80373000D01*
X139627000Y-77627000D01*
X142373000Y-77627000D01*
X142373000Y-80373000D01*
G37*
X142373000Y-80373000D02*
X139627000Y-80373000D01*
X139627000Y-77627000D01*
X142373000Y-77627000D01*
X142373000Y-80373000D01*
G36*
X155340001Y-80873000D02*
G01*
X153127000Y-80873000D01*
X153127000Y-77627000D01*
X155340000Y-77627000D01*
X155340001Y-80873000D01*
G37*
X155340001Y-80873000D02*
X153127000Y-80873000D01*
X153127000Y-77627000D01*
X155340000Y-77627000D01*
X155340001Y-80873000D01*
M02*
